<?xml version="1.0" encoding="utf-8"?>
<!-- Generator: Adobe Illustrator 19.0.1, SVG Export Plug-In . SVG Version: 6.00 Build 0)  -->
<svg version="1.1" id="Layer_1" xmlns="http://www.w3.org/2000/svg" xmlns:xlink="http://www.w3.org/1999/xlink" x="0px" y="0px"
	 viewBox="0 0 64 64" style="enable-background:new 0 0 64 64;" xml:space="preserve">
<style type="text/css">
	.st0{fill:#010202;}
	.st1{fill:#12100B;}
	.st2{fill:#010202;stroke:#010202;stroke-width:0.25;stroke-miterlimit:10;}
</style>
<g>
	<path class="st2" d="M11.3,51.3c0,2.3,0.7,4.1,2.1,5.3c1.4,1.2,3.7,1.8,7,1.8v3.1c-4.5,0-7.7-0.9-9.6-2.6c-1.9-1.7-2.8-4.4-2.8-8
		V39.4c0-4.7-2.6-7.1-7.9-7.2v-2.8c2.8,0,4.8-0.6,6.1-1.8c1.2-1.1,1.9-2.8,1.9-5.1V10.5C7.9,3.6,12.1,0.1,20.3,0v3.1
		c-3.2,0.1-5.5,0.8-6.9,2c-1.4,1.2-2.1,3-2.1,5.4V21c0,3-0.5,5.2-1.5,6.7c-1,1.5-2.6,2.4-4.9,2.9v0.3c2.2,0.5,3.9,1.4,4.9,2.9
		c1,1.5,1.5,3.6,1.5,6.4V51.3z"/>
	<path class="st2" d="M52.7,40.2c0-2.8,0.5-5,1.5-6.4c1-1.5,2.6-2.4,4.9-2.9v-0.3c-2.2-0.5-3.9-1.4-4.9-2.9c-1-1.5-1.5-3.7-1.5-6.7
		V10.5c0-2.4-0.7-4.2-2.1-5.4c-1.4-1.2-3.7-1.9-6.9-2V0c4,0,7.1,0.9,9.2,2.7c2.1,1.8,3.2,4.4,3.2,7.8v12.1c0,2.3,0.6,4,1.9,5.1
		c1.3,1.1,3.3,1.7,6.1,1.7v2.8c-5.3,0.1-7.9,2.5-7.9,7.2V51c0,3.6-0.9,6.2-2.8,7.9c-1.9,1.7-5.1,2.6-9.6,2.6v-3.1
		c3.2,0,5.6-0.6,6.9-1.8c1.4-1.2,2.1-2.9,2.1-5.3V40.2z"/>
</g>
</svg>
