<?xml version="1.0" encoding="utf-8"?>
<!-- Generator: Adobe Illustrator 19.0.1, SVG Export Plug-In . SVG Version: 6.00 Build 0)  -->
<svg version="1.1" id="Layer_1" xmlns="http://www.w3.org/2000/svg" xmlns:xlink="http://www.w3.org/1999/xlink" x="0px" y="0px"
	 viewBox="0 0 64 64" style="enable-background:new 0 0 64 64;" xml:space="preserve">
<style type="text/css">
	.st0{fill:#010202;}
	.st1{fill:#12100B;}
	.st2{fill:#010202;stroke:#010202;stroke-width:0.25;stroke-miterlimit:10;}
</style>
<g>
	<path class="st0" d="M51.6,27.7v-2.8c0-2.7-1.6-5-3.9-6c2.3-1,3.9-3.3,3.9-6c0-3.6-2.9-6.6-6.6-6.6s-6.6,2.9-6.6,6.6
		c0,2.7,1.6,4.9,3.9,6c-2.3,1-3.9,3.4-3.9,6v2.8h-1.6v-9.2c0-2.7-1.6-5-3.9-6c2.3-1,3.9-3.3,3.9-6c0-3.6-2.9-6.6-6.6-6.6
		s-6.6,2.9-6.6,6.6c0,2.7,1.6,4.9,3.9,6c-2.3,1-3.9,3.4-3.9,6v9.2h-1.6v-2.8c0-2.7-1.6-5-3.9-6c2.3-1,3.9-3.3,3.9-6
		c0-3.6-2.9-6.6-6.6-6.6s-6.6,2.9-6.6,6.6c0,2.7,1.6,4.9,3.9,6c-2.3,1-3.9,3.4-3.9,6v2.8H0V64h60.3V27.7H51.6z M40.9,12.9
		c0-2.2,1.8-4,4-4c2.2,0,4,1.8,4,4c0,2.2-1.8,4-4,4C42.7,16.9,40.9,15.1,40.9,12.9z M40.9,24.9c0-2.3,1.8-4.1,4.1-4.1
		c2.3,0,4.1,1.8,4.1,4.1v2.8h-8.2V24.9z M26.1,6.6c0-2.2,1.8-4,4-4s4,1.8,4,4c0,2.2-1.8,4-4,4S26.1,8.8,26.1,6.6z M26,18.6
		c0-2.3,1.8-4.1,4.1-4.1s4.1,1.8,4.1,4.1v9.2H26V18.6z M11.3,12.9c0-2.2,1.8-4,4-4s4,1.8,4,4c0,2.2-1.8,4-4,4S11.3,15.1,11.3,12.9z
		 M11.2,24.9c0-2.3,1.8-4.1,4.1-4.1s4.1,1.8,4.1,4.1v2.8h-8.2V24.9z M57.7,61.5H2.5V30.2h55.2V61.5z"/>
	<polygon class="st0" points="16.2,46.5 27.7,46.5 27.7,57.4 30.1,57.4 30.1,35.1 27.7,35.1 27.7,44.2 16.2,44.2 16.2,35.1 
		13.8,35.1 13.8,57.4 16.2,57.4 	"/>
	<path class="st0" d="M37.2,47.6h0.6l6.7,9.8h3l-7.1-10c3.4-0.3,5.6-2.7,5.6-6.1c0-5-3.9-6.2-8.2-6.2h-3.2v22.3h2.5V47.6z
		 M37.2,37.4H38c3,0,5.7,0.4,5.7,4c0,3.5-2.8,4-5.6,4h-0.8V37.4z"/>
</g>
</svg>
