<?xml version="1.0" encoding="utf-8"?>
<!-- Generator: Adobe Illustrator 19.0.1, SVG Export Plug-In . SVG Version: 6.00 Build 0)  -->
<svg version="1.1" id="Layer_1" xmlns="http://www.w3.org/2000/svg" xmlns:xlink="http://www.w3.org/1999/xlink" x="0px" y="0px"
	 viewBox="0 0 64 64" style="enable-background:new 0 0 64 64;" xml:space="preserve">
<style type="text/css">
	.st0{fill:#010202;}
	.st1{fill:#12100B;}
	.st2{fill:#010202;stroke:#010202;stroke-width:0.25;stroke-miterlimit:10;}
</style>
<g>
	<g id="XMLID_62_">
		<polygon class="st0" points="39.1,61.5 38.9,54.2 39.9,53.2 47.2,54.2 44.1,57.3 44.1,61.5 		"/>
		<path class="st0" d="M41.4,55.9l0.5,0.1l-0.2,0.2l0,2l0,0.7h-0.1L41.4,55.9 M52.8,34.2c-0.1,0-0.2,0-0.3,0
			c-2.3,0.2-1.5,2.4-1.5,2.4l0.5,10.4l-4.7,4.7l-2.9-0.4c0,0,1.9-1.9,4.2-4.2c2.4-2.4-0.6-4.9-0.6-4.9L36.3,53.2L36.6,64h9.9
			l0.1-5.7l9.5-9.5c0,0-1.6-12.3-1.5-12.7C54.6,35.9,54.7,34.2,52.8,34.2L52.8,34.2z"/>
	</g>
	<g id="XMLID_179_">
		<polygon class="st0" points="12,61.5 11.9,57.3 8.9,54.2 16.2,53.2 17.2,54.2 17,61.5 		"/>
		<path class="st0" d="M14.7,55.9L14.6,59h-0.1l0-0.7l0-2L14.2,56L14.7,55.9 M3.3,34.2c-1.9,0-1.8,1.8-1.7,2.1
			C1.6,36.5,0,48.9,0,48.9l9.5,9.5L9.6,64h9.9l0.3-10.8L8.6,42.1c0,0-3,2.6-0.6,4.9c2.4,2.4,4.2,4.2,4.2,4.2l-2.9,0.4l-4.7-4.7
			l0.5-10.4c0,0,0.7-2.2-1.5-2.4C3.5,34.2,3.4,34.2,3.3,34.2L3.3,34.2z"/>
	</g>
	<path id="XMLID_2_" class="st0" d="M28,0C15,0,4.4,10.6,4.4,23.6S15,47.2,28,47.2s23.6-10.6,23.6-23.6S41.1,0,28,0z M7.3,25h8.2
		c0.1,2.8,0.6,5.6,1.4,8.3H9.6C8.3,30.8,7.5,28,7.3,25z M15.4,22.2H7.3c0.2-3,1-5.8,2.4-8.3h7.2C16,16.6,15.5,19.4,15.4,22.2z
		 M19.8,13.9h16.4c0.9,2.7,1.5,5.5,1.6,8.3H18.2C18.3,19.4,18.9,16.6,19.8,13.9z M18.2,25h19.6c-0.1,2.9-0.7,5.7-1.6,8.3H19.8
		C18.9,30.7,18.3,27.9,18.2,25z M40.5,25h8.3c-0.2,3-1,5.8-2.4,8.3h-7.3C39.9,30.7,40.4,27.9,40.5,25z M40.5,22.2
		c-0.1-2.8-0.6-5.6-1.4-8.3h7.3c1.3,2.5,2.2,5.3,2.4,8.3H40.5z M44.7,11.1h-6.5C37,8.5,35.6,6,33.8,3.6C38.2,4.9,42,7.6,44.7,11.1z
		 M29.6,2.9c2.3,2.5,4.1,5.3,5.5,8.3H20.9c1.4-3,3.2-5.8,5.5-8.3c0.6,0,1.1-0.1,1.7-0.1C28.6,2.8,29.1,2.8,29.6,2.9z M22.1,3.6
		c-1.7,2.3-3.2,4.8-4.3,7.5h-6.4C14.1,7.6,17.8,4.9,22.1,3.6z M11.4,36.1h6.4c1.1,2.6,2.5,5.1,4.3,7.5
		C17.8,42.3,14.1,39.7,11.4,36.1z M26.4,44.4c-2.3-2.5-4.1-5.3-5.5-8.3h14.2c-1.4,3-3.2,5.8-5.5,8.3c-0.5,0-1,0.1-1.5,0.1
		C27.5,44.5,26.9,44.4,26.4,44.4z M33.8,43.6c1.8-2.3,3.2-4.9,4.3-7.5h6.6C42,39.7,38.2,42.4,33.8,43.6z"/>
</g>
</svg>
