<?xml version="1.0" encoding="utf-8"?>
<!-- Generator: Adobe Illustrator 19.0.1, SVG Export Plug-In . SVG Version: 6.00 Build 0)  -->
<svg version="1.1" id="Layer_1" xmlns="http://www.w3.org/2000/svg" xmlns:xlink="http://www.w3.org/1999/xlink" x="0px" y="0px"
	 viewBox="0 0 64 64" style="enable-background:new 0 0 64 64;" xml:space="preserve">
<style type="text/css">
	.st0{fill:#010202;}
	.st1{fill:#12100B;}
	.st2{fill:#010202;stroke:#010202;stroke-width:0.25;stroke-miterlimit:10;}
</style>
<path class="st0" d="M55.7,29.4c0.7-0.5,1.2-1.4,1.2-2.3s-0.5-1.8-1.2-2.3v-6.7l8.6-3.8L32,0L-0.2,14.2l16.1,7.1v17.1l2.7-1.8
	c2-1.4,3.5-1.4,6.5-1.4c1.3,0,2.6,0.4,3.8,1.1c0.7,0.4,1.2,0.9,1.7,1.5l1.3,1.6l1.3-1.6c0.5-0.6,1.1-1.1,1.7-1.5
	c1.1-0.7,2.4-1.1,3.8-1.1c3,0,4.5,0,6.5,1.4l2.7,1.8V21.3l4.1-1.8v5.2C51.4,25.2,51,26.1,51,27s0.5,1.8,1.2,2.3V30l-1.8,9.4h7.1
	L55.7,30V29.4z M32,3.8l23.6,10.4L32,24.5L8.4,14.2L32,3.8z M44.6,32.3c-1.8-0.6-3.6-0.6-5.8-0.6c-2,0-3.9,0.6-5.6,1.6
	c-0.4,0.3-0.8,0.6-1.2,0.9c-0.4-0.3-0.8-0.6-1.2-0.9c-1.7-1-3.6-1.6-5.6-1.6c-2.2,0-4,0-5.8,0.6v-9.5L32,28.3l12.6-5.5V32.3z"/>
</svg>
