<?xml version="1.0" encoding="utf-8"?>
<!-- Generator: Adobe Illustrator 19.0.1, SVG Export Plug-In . SVG Version: 6.00 Build 0)  -->
<svg version="1.1" id="Layer_1" xmlns="http://www.w3.org/2000/svg" xmlns:xlink="http://www.w3.org/1999/xlink" x="0px" y="0px"
	 viewBox="0 0 64 64" style="enable-background:new 0 0 64 64;" xml:space="preserve">
<style type="text/css">
	.st0{fill:#010202;}
	.st1{fill:#12100B;}
	.st2{fill:#010202;stroke:#010202;stroke-width:0.25;stroke-miterlimit:10;}
</style>
<g>
	<path class="st0" d="M10.4,21c2.5-1.2,4.3-3.7,4.3-6.7c0-4-3.3-7.3-7.3-7.3s-7.3,3.3-7.3,7.3c0,3,1.8,5.5,4.3,6.7
		C1.8,22.2,0,24.8,0,27.8v28.9C0,60.7,3.3,64,7.4,64s7.4-3.3,7.4-7.4V27.8C14.8,24.8,13,22.2,10.4,21z M2.9,14.4
		c0-2.5,2-4.5,4.5-4.5c2.5,0,4.5,2,4.5,4.5c0,2.5-2,4.5-4.5,4.5C4.9,18.8,2.9,16.8,2.9,14.4z M12,56.6c0,2.5-2.1,4.6-4.6,4.6
		s-4.6-2.1-4.6-4.6V27.8c0-2.5,2.1-4.6,4.6-4.6s4.6,2.1,4.6,4.6V56.6z"/>
	<path class="st0" d="M30.7,14c2.5-1.2,4.3-3.7,4.3-6.7c0-4-3.3-7.3-7.3-7.3c-4,0-7.3,3.3-7.3,7.3c0,3,1.8,5.5,4.3,6.7
		c-2.6,1.2-4.4,3.7-4.4,6.7v28.9c0,4.1,3.3,7.4,7.4,7.4c4.1,0,7.4-3.3,7.4-7.4V20.7C35.1,17.7,33.3,15.1,30.7,14z M23.2,7.3
		c0-2.5,2-4.5,4.5-4.5c2.5,0,4.5,2,4.5,4.5c0,2.5-2,4.5-4.5,4.5C25.2,11.8,23.2,9.8,23.2,7.3z M32.3,49.6c0,2.5-2.1,4.6-4.6,4.6
		c-2.5,0-4.6-2.1-4.6-4.6V20.7c0-2.5,2.1-4.6,4.6-4.6c2.5,0,4.6,2.1,4.6,4.6V49.6z"/>
	<path class="st0" d="M51,21c2.5-1.2,4.3-3.7,4.3-6.7c0-4-3.3-7.3-7.3-7.3c-4,0-7.3,3.3-7.3,7.3c0,3,1.8,5.5,4.3,6.7
		c-2.6,1.2-4.4,3.7-4.4,6.7v28.9c0,4.1,3.3,7.4,7.4,7.4c4.1,0,7.4-3.3,7.4-7.4V27.8C55.4,24.8,53.6,22.2,51,21z M43.5,14.4
		c0-2.5,2-4.5,4.5-4.5c2.5,0,4.5,2,4.5,4.5c0,2.5-2,4.5-4.5,4.5C45.5,18.8,43.5,16.8,43.5,14.4z M52.6,56.6c0,2.5-2.1,4.6-4.6,4.6
		c-2.5,0-4.6-2.1-4.6-4.6V27.8c0-2.5,2.1-4.6,4.6-4.6c2.5,0,4.6,2.1,4.6,4.6V56.6z"/>
</g>
</svg>
