<?xml version="1.0" encoding="utf-8"?>
<!-- Generator: Adobe Illustrator 19.0.1, SVG Export Plug-In . SVG Version: 6.00 Build 0)  -->
<svg version="1.1" id="Layer_1" xmlns="http://www.w3.org/2000/svg" xmlns:xlink="http://www.w3.org/1999/xlink" x="0px" y="0px"
	 viewBox="0 0 64 64" style="enable-background:new 0 0 64 64;" xml:space="preserve">
<style type="text/css">
	.st0{fill:#010202;}
	.st1{fill:#12100B;}
	.st2{fill:#010202;stroke:#010202;stroke-width:0.25;stroke-miterlimit:10;}
</style>
<g id="XMLID_275_">
	<g id="XMLID_277_">
		<path class="st0" d="M12,64c-2.2,0-4.8-0.3-8.2-1l-0.1,0c-0.1,0-0.4-0.1-0.6-0.1c-0.4-0.1-0.8-0.1-1-0.2l-0.3-0.1c0,0-0.1,0-0.1,0
			H0.1L0,60.7V18.1l2.6,1.6c0,0,0.1,0,0.2,0c0.3,0.1,0.7,0.1,1,0.2c0.4,0.1,0.7,0.1,0.8,0.2c3,0.6,5.5,0.9,7.4,0.9
			c1.1,0,1.9-0.2,2.3-0.7c0.7-0.8,1-1.5,1-2.2c0-0.2-0.1-0.6-0.3-1.2c-0.3-0.6-0.6-1.2-0.9-1.8c-0.5-0.8-0.9-1.7-1.3-2.9
			c-0.4-1.2-0.6-2.5-0.6-3.7c0-2.6,0.8-4.7,2.5-6.3C16.4,0.8,18.3,0,20.6,0c2.2,0,4.1,0.8,5.6,2.2c1.5,1.5,2.3,3.5,2.3,6.1
			c0,1.3-0.2,2.5-0.7,3.7c-0.4,1.1-0.9,2-1.5,2.7c-0.3,0.4-0.7,1-1,1.8c-0.3,0.6-0.4,1.3-0.4,2c0,1.2,0.4,1.6,0.6,1.7
			c0.6,0.4,1.3,0.6,2.2,0.6c1.3,0,3.1-0.2,5.5-0.6c2.5-0.4,4.3-0.6,5.4-0.7l2-0.1v2.3L40.5,22c0,0.1,0,0.2-0.1,0.4
			c-0.1,0.4-0.1,0.8-0.2,1.3c-0.1,0.5-0.1,0.8-0.1,0.9c-0.5,3.7-0.7,6.7-0.7,9.1c0,2.1,0.4,3,0.7,3.3c0.5,0.7,1,1,1.4,1
			c0,0,0.2,0,0.6-0.3c0.5-0.3,1-0.7,1.4-1.1c0.7-0.6,1.5-1.1,2.6-1.6c1.1-0.5,2.2-0.7,3.4-0.7c2.4,0,4.3,1.1,5.7,3.1
			c1.2,1.8,1.8,4,1.8,6.5c0,2.4-0.6,4.5-1.8,6.2c-1.3,1.9-3.2,2.9-5.5,2.9c-1.2,0-2.4-0.3-3.4-0.9c-0.9-0.5-1.7-1.2-2.3-1.8
			c-0.4-0.4-0.8-0.8-1.4-1.1c-0.4-0.3-0.8-0.4-1.3-0.4c-0.6,0-1.6,0-1.6,2.9c0,0.9,0.2,2.3,0.5,4.1c0.4,2.1,0.5,3.6,0.5,4.8v2h-1.9
			c-0.4,0-0.7,0-0.9,0c-0.7,0.1-1.7,0.2-3,0.4c-1.4,0.2-2.6,0.4-3.8,0.5c-1.2,0.1-2.3,0.2-3.3,0.2c-1.7,0-3.2-0.5-4.4-1.4
			c-1-0.7-2.1-2.1-2.1-4.7c0-1.2,0.2-2.4,0.7-3.5c0.4-1,0.9-1.9,1.4-2.6c0.3-0.4,0.7-1,1-1.8c0.3-0.7,0.4-1.5,0.4-2.3
			c0-1.5-0.4-2.6-1.2-3.4c-0.8-0.8-1.8-1.2-3-1.2c-1.3,0-2.4,0.4-3.3,1.2C16.4,45,16,46.2,16,47.7c0,0.9,0.1,1.8,0.4,2.6
			c0.3,0.9,0.6,1.5,0.9,2c0.4,0.7,0.9,1.5,1.2,2.3c0.4,1,0.6,1.9,0.6,2.7c0,1.6-0.6,3.2-1.9,4.6C16,63.3,14.3,64,12,64z M4.6,59.4
			c3,0.6,5.5,0.9,7.4,0.9c1.1,0,1.9-0.2,2.3-0.7c0.7-0.8,1-1.5,1-2.2c0-0.2,0-0.5-0.3-1.2c-0.3-0.6-0.6-1.2-0.9-1.8
			c-0.5-0.8-0.9-1.7-1.3-2.9c-0.4-1.2-0.6-2.5-0.6-3.7c0-2.6,0.8-4.7,2.5-6.3c1.6-1.5,3.6-2.2,5.8-2.2c2.2,0,4.1,0.8,5.6,2.2
			c1.5,1.5,2.3,3.5,2.3,6.1c0,1.3-0.2,2.5-0.7,3.7c-0.4,1.1-0.9,2-1.5,2.7c-0.3,0.4-0.7,1-1,1.8c-0.3,0.6-0.4,1.3-0.4,2
			c0,1.2,0.4,1.6,0.6,1.7c0.6,0.4,1.3,0.6,2.2,0.6c0.9,0,1.9-0.1,2.9-0.2c1.1-0.1,2.3-0.3,3.6-0.5c1-0.2,1.8-0.3,2.5-0.4
			c-0.1-0.7-0.2-1.6-0.4-2.5c-0.4-2.1-0.5-3.6-0.5-4.7c0-6,3.8-6.6,5.4-6.6c1.1,0,2.2,0.3,3.3,1c0.9,0.5,1.6,1.1,2.2,1.8
			c0.3,0.4,0.8,0.7,1.4,1.1c0.5,0.3,1,0.4,1.5,0.4c1.1,0,1.8-0.4,2.4-1.3c0.7-1.1,1.1-2.4,1.1-4.1c0-1.8-0.4-3.3-1.2-4.5
			c-0.6-1-1.4-1.4-2.5-1.4c-0.7,0-1.3,0.1-1.9,0.4c-0.7,0.3-1.2,0.6-1.6,1c-0.6,0.5-1.3,1-2,1.5c-0.9,0.6-1.8,0.9-2.6,0.9
			c-1.6,0-3-0.8-4.3-2.5c-1-1.3-1.5-3.2-1.5-5.7c0-2.5,0.3-5.7,0.8-9.6l0-0.2c0-0.1,0-0.2,0-0.3c-0.7,0.1-1.6,0.2-2.7,0.4
			c-2.6,0.4-4.6,0.6-6,0.6c-1.7,0-3.2-0.5-4.4-1.4c-1-0.7-2.1-2.1-2.1-4.7c0-1.2,0.2-2.4,0.7-3.5c0.4-1,0.9-1.9,1.4-2.6
			c0.3-0.4,0.7-1.1,1-1.8c0.3-0.7,0.4-1.5,0.4-2.3c0-1.5-0.4-2.6-1.2-3.4c-0.8-0.8-1.7-1.2-3-1.2c-1.3,0-2.4,0.4-3.3,1.2
			C16.4,5.8,16,7,16,8.5c0,0.9,0.1,1.8,0.4,2.6c0.3,0.9,0.6,1.5,0.9,2c0.4,0.7,0.8,1.5,1.2,2.3c0.4,1,0.6,1.9,0.6,2.7
			c0,1.6-0.6,3.2-1.9,4.6c-1.2,1.3-2.9,2-5.2,2c-2.2,0-4.8-0.3-8.2-1l-0.1,0v35.4C4.1,59.3,4.4,59.3,4.6,59.4z"/>
	</g>
</g>
</svg>
