<?xml version="1.0" encoding="utf-8"?>
<!-- Generator: Adobe Illustrator 19.0.1, SVG Export Plug-In . SVG Version: 6.00 Build 0)  -->
<svg version="1.1" id="Layer_1" xmlns="http://www.w3.org/2000/svg" xmlns:xlink="http://www.w3.org/1999/xlink" x="0px" y="0px"
	 viewBox="0 0 64 64" style="enable-background:new 0 0 64 64;" xml:space="preserve">
<style type="text/css">
	.st0{fill:#010202;}
	.st1{fill:#12100B;}
	.st2{fill:#010202;stroke:#010202;stroke-width:0.25;stroke-miterlimit:10;}
</style>
<path id="XMLID_223_" class="st0" d="M32,0C14.4,0,0,14.4,0,32s14.4,32,32,32s32-14.4,32-32S49.6,0,32,0z M3.9,33.9h11.1
	c0.2,3.9,0.8,7.6,1.9,11.3H7C5.2,41.8,4.1,37.9,3.9,33.9z M14.9,30.1H3.9c0.3-4.1,1.4-7.9,3.2-11.3h9.8
	C15.7,22.5,15.1,26.3,14.9,30.1z M20.8,18.8H43c1.2,3.6,2,7.4,2.1,11.3H18.7C18.9,26.2,19.6,22.5,20.8,18.8z M18.7,33.9h26.5
	c-0.2,3.9-0.9,7.7-2.2,11.3H20.8C19.6,41.5,18.9,37.8,18.7,33.9z M48.9,33.9h11.2c-0.3,4.1-1.4,7.9-3.2,11.3H47
	C48.1,41.5,48.8,37.7,48.9,33.9z M48.9,30.1c-0.2-3.9-0.8-7.6-1.9-11.3H57c1.8,3.4,2.9,7.2,3.2,11.3H48.9z M54.5,15.1h-8.9
	c-1.5-3.6-3.4-7-5.8-10.2C45.8,6.6,50.9,10.2,54.5,15.1z M34.1,3.9c3.1,3.4,5.6,7.2,7.4,11.2H22.3c1.8-4,4.3-7.8,7.4-11.2
	c0.7-0.1,1.5-0.1,2.3-0.1C32.7,3.8,33.4,3.8,34.1,3.9z M24,4.9c-2.4,3.2-4.3,6.5-5.8,10.1H9.5C13.1,10.3,18.1,6.7,24,4.9z M9.5,48.9
	h8.7c1.5,3.6,3.4,7,5.8,10.1C18.1,57.3,13.1,53.7,9.5,48.9z M29.8,60.1c-3.1-3.4-5.6-7.1-7.4-11.2h19.2c-1.8,4-4.3,7.8-7.5,11.2
	c-0.7,0-1.4,0.1-2.1,0.1C31.2,60.2,30.5,60.2,29.8,60.1z M39.8,59.1c2.4-3.2,4.4-6.6,5.9-10.2h8.9C50.9,53.8,45.8,57.4,39.8,59.1z"
	/>
</svg>
