<?xml version="1.0" encoding="utf-8"?>
<!-- Generator: Adobe Illustrator 19.0.1, SVG Export Plug-In . SVG Version: 6.00 Build 0)  -->
<svg version="1.1" id="Layer_1" xmlns="http://www.w3.org/2000/svg" xmlns:xlink="http://www.w3.org/1999/xlink" x="0px" y="0px"
	 viewBox="0 0 64 64" style="enable-background:new 0 0 64 64;" xml:space="preserve">
<style type="text/css">
	.st0{fill:#010202;}
	.st1{fill:#12100B;}
	.st2{fill:#010202;stroke:#010202;stroke-width:0.25;stroke-miterlimit:10;}
</style>
<path id="XMLID_26_" class="st0" d="M64,62c-0.2-10.1-10.4-18.8-24.5-21.1v-5.2c1.8-1.8,3.2-4.5,4-6.9c1.2-0.6,2.3-2,3-3.9
	c0.9-2.6,0.5-5-0.8-6.1c0.1-0.9,0.2-1.8,0.1-2.7c-0.3-2.5,0.2-3.9,0.7-5.1c0.4-1,0.9-2.2,0.4-3.6C45.2,2.6,40.4,0,33.3,0l-1,0
	c-4.9,0.2-6.4,2.3-7.4,4.2c-0.1,0.2-0.3,0.5-0.3,0.6c-6.4,0.6-6.4,5.9-6.3,10.2l0,1.4c0,0.8,0,1.6,0.1,2.4c-1.6,1.1-1.9,3.8-0.7,6.5
	c0.7,1.6,1.7,2.7,2.8,3.4c0.9,2.5,2.3,5.5,4.4,7.4v4.8C10.6,43.1,0.3,51.8,0,62l0,1.9h64C64,63.9,64,62,64,62z M4,60.2
	c1.5-7.9,10.7-14.4,23-15.8l1.7-0.2v-10l-0.8-0.6c-1.5-1-3-3.6-4.1-7l-0.3-1.1l-1.1-0.2c-0.2-0.1-0.8-0.6-1.2-1.6
	c-0.3-0.6-0.4-1.2-0.4-1.6l1.9,0.5l-0.4-2.8c-0.2-1.2-0.2-2.4-0.2-3.6l0-1.4c-0.1-5,0.2-6.1,2.9-6.4c2-0.2,2.8-1.7,3.3-2.6
	c0.6-1.1,1.1-2,4.2-2.2l0.9,0c3.1,0,8.6,0.6,10,4.8c0,0.2-0.2,0.7-0.3,1c-0.5,1.4-1.4,3.5-1,7c0.1,0.7,0,1.6-0.2,2.5l-0.3,3l1.7-0.2
	c0,0.4,0,1-0.3,1.8c-0.4,1.1-0.9,1.6-0.9,1.7h-1.4l-0.4,1.3c-1.1,3.2-2.4,5.6-3.8,6.6l-0.7,0.6v10.2l1.6,0.2
	c12.1,1.5,21.2,8,22.7,15.8L4,60.2L4,60.2z"/>
</svg>
