<?xml version="1.0" encoding="utf-8"?>
<!-- Generator: Adobe Illustrator 19.0.1, SVG Export Plug-In . SVG Version: 6.00 Build 0)  -->
<svg version="1.1" id="Layer_1" xmlns="http://www.w3.org/2000/svg" xmlns:xlink="http://www.w3.org/1999/xlink" x="0px" y="0px"
	 viewBox="0 0 64 64" style="enable-background:new 0 0 64 64;" xml:space="preserve">
<style type="text/css">
	.st0{fill:#010202;}
	.st1{fill:#12100B;}
	.st2{fill:#010202;stroke:#010202;stroke-width:0.25;stroke-miterlimit:10;}
</style>
<path class="st1" d="M32,0C14.3,0,0,14.3,0,32c0,17.7,14.3,32,32,32c17.7,0,32-14.3,32-32C64,14.3,49.7,0,32,0z M24.2,45.3h-6.5
	V24.4h6.5V45.3z M20.9,21.9c-2,0-3.4-1.4-3.4-3.2c0-1.8,1.4-3.2,3.5-3.2c2.1,0,3.4,1.4,3.4,3.2C24.4,20.4,23.1,21.9,20.9,21.9z
	 M47.8,45.3h-6.5V33.7c0-2.7-0.9-4.5-3.3-4.5c-1.8,0-2.9,1.2-3.3,2.4c-0.2,0.4-0.2,1-0.2,1.6v12H28V31.1c0-2.6-0.1-4.8-0.2-6.7h5.6
	l0.3,2.9h0.1c0.9-1.4,2.9-3.4,6.4-3.4c4.3,0,7.5,2.9,7.5,9V45.3z"/>
</svg>
