<?xml version="1.0" encoding="utf-8"?>
<!-- Generator: Adobe Illustrator 19.0.1, SVG Export Plug-In . SVG Version: 6.00 Build 0)  -->
<svg version="1.1" id="Layer_1" xmlns="http://www.w3.org/2000/svg" xmlns:xlink="http://www.w3.org/1999/xlink" x="0px" y="0px"
	 viewBox="0 0 64 64" style="enable-background:new 0 0 64 64;" xml:space="preserve">
<style type="text/css">
	.st0{fill:#010202;}
	.st1{fill:#12100B;}
	.st2{fill:#010202;stroke:#010202;stroke-width:0.25;stroke-miterlimit:10;}
</style>
<g id="XMLID_192_">
	<path id="XMLID_193_" class="st0" d="M64,34.6L63.9,2.7c0-1.9-1.2-2.7-2.4-2.7c-1.3,0-2.6,1-3.3,1.6L12.9,20.1c-2.2,0-5.6,0-8,0
		H0.1v1.7L0,36.2l13.1,0l7.9,3.4l-3,6.7l19.5,9l3.2-7l18.3,8c0.6,0.5,1.7,1.2,2.8,1.2c0.6,0,1.2-0.2,1.6-0.7
		c0.5-0.5,0.7-1.3,0.6-2.1L64,34.6z M6.6,23.4v9.1H3.4v-9.1c0.4,0,1,0,1.5,0H6.6z M35.8,50.8l-13.4-6.2l1.6-3.7l13.5,5.9L35.8,50.8z
		 M60.6,53.4L13.8,32.8H9.9v-9.4c1.2,0,2.4,0,3.3,0h0.3L59.7,4.6L60,4.5l0.2-0.2c0.1-0.1,0.2-0.2,0.4-0.3l0.1,30.6L60.6,53.4z
		 M60.6,53.4"/>
</g>
</svg>
