<?xml version="1.0" encoding="utf-8"?>
<!-- Generator: Adobe Illustrator 19.0.1, SVG Export Plug-In . SVG Version: 6.00 Build 0)  -->
<svg version="1.1" id="Layer_1" xmlns="http://www.w3.org/2000/svg" xmlns:xlink="http://www.w3.org/1999/xlink" x="0px" y="0px"
	 viewBox="0 0 64 64" style="enable-background:new 0 0 64 64;" xml:space="preserve">
<style type="text/css">
	.st0{fill:#010202;}
	.st1{fill:#12100B;}
	.st2{fill:#010202;stroke:#010202;stroke-width:0.25;stroke-miterlimit:10;}
</style>
<path id="XMLID_244_" class="st0" d="M5.9,0C2.7,0,0.1,2.6,0.1,5.8H0V47c0,3.2,2.6,5.8,5.8,5.8h50.8v-6.2H64V0H5.9z M5.8,49
	c-1.1,0-2.1-0.9-2.1-2V10.9c0.1,0,0.2,0,0.3,0c0.5,0.2,1.1,0.3,1.7,0.3c0,0,0,0,0.1,0h47v11.4H42.1c-3.2,0-5.9,2.5-5.9,5.6v3.8
	c0,3.1,2.6,5.6,5.9,5.6h10.8V49H5.8z M42.1,33.9c-1.2,0-2.1-0.8-2.1-1.9v-3.8c0-1,1-1.9,2.1-1.9h18.1v7.5H42.1z M60.2,42.8h-3.6
	v-5.1h3.6V42.8z M56.6,22.6V7.5H5.9c-1,0-2.1-0.5-2.1-1.7c0-1.1,0.9-2,2.1-2h54.3v18.9H56.6z"/>
</svg>
