<?xml version="1.0" encoding="utf-8"?>
<!-- Generator: Adobe Illustrator 19.0.1, SVG Export Plug-In . SVG Version: 6.00 Build 0)  -->
<svg version="1.1" id="Layer_1" xmlns="http://www.w3.org/2000/svg" xmlns:xlink="http://www.w3.org/1999/xlink" x="0px" y="0px"
	 viewBox="0 0 64 64" style="enable-background:new 0 0 64 64;" xml:space="preserve">
<style type="text/css">
	.st0{fill:#010202;}
	.st1{fill:#12100B;}
	.st2{fill:#010202;stroke:#010202;stroke-width:0.25;stroke-miterlimit:10;}
</style>
<path id="XMLID_91_" class="st0" d="M25,4c4.6,0,9.8,4.5,14.2,12.3c4.1,7.2,6.8,16.3,6.8,22.7c0,11.6-9.4,21-21,21S4,50.6,4,39
	c0-6.4,2.7-15.5,6.8-22.7C15.2,8.5,20.4,4,25,4 M25,0C11.2,0,0,25.1,0,39s11.2,25,25,25c13.8,0,25-11.2,25-25S38.9,0,25,0L25,0z"/>
</svg>
