<?xml version="1.0" encoding="utf-8"?>
<!-- Generator: Adobe Illustrator 19.0.1, SVG Export Plug-In . SVG Version: 6.00 Build 0)  -->
<svg version="1.1" id="Layer_1" xmlns="http://www.w3.org/2000/svg" xmlns:xlink="http://www.w3.org/1999/xlink" x="0px" y="0px"
	 viewBox="0 0 64 64" style="enable-background:new 0 0 64 64;" xml:space="preserve">
<style type="text/css">
	.st0{fill:#010202;}
	.st1{fill:#12100B;}
	.st2{fill:#010202;stroke:#010202;stroke-width:0.25;stroke-miterlimit:10;}
</style>
<g>
	<g>
		<path class="st0" d="M42.6,64c-6.5,0-11.7-5.2-11.7-11.7s5.2-11.7,11.7-11.7s11.7,5.2,11.7,11.7S49.1,64,42.6,64z M42.6,44.4
			c-4.3,0-7.9,3.5-7.9,7.9s3.5,7.9,7.9,7.9s7.9-3.5,7.9-7.9S47,44.4,42.6,44.4z"/>
	</g>
	<g>
		<path class="st0" d="M11.7,23.4C5.2,23.4,0,18.2,0,11.7S5.2,0,11.7,0s11.7,5.2,11.7,11.7S18.2,23.4,11.7,23.4z M11.7,3.8
			c-4.3,0-7.9,3.5-7.9,7.9s3.5,7.9,7.9,7.9s7.9-3.5,7.9-7.9S16,3.8,11.7,3.8z"/>
	</g>
	<g>
		
			<rect x="25.2" y="-3.5" transform="matrix(0.8693 0.4942 -0.4942 0.8693 19.3313 -9.2517)" class="st0" width="3.8" height="70.8"/>
	</g>
</g>
</svg>
