<?xml version="1.0" encoding="utf-8"?>
<!-- Generator: Adobe Illustrator 19.0.1, SVG Export Plug-In . SVG Version: 6.00 Build 0)  -->
<svg version="1.1" id="Layer_1" xmlns="http://www.w3.org/2000/svg" xmlns:xlink="http://www.w3.org/1999/xlink" x="0px" y="0px"
	 viewBox="0 0 64 64" style="enable-background:new 0 0 64 64;" xml:space="preserve">
<style type="text/css">
	.st0{fill:#010202;}
	.st1{fill:#12100B;}
	.st2{fill:#010202;stroke:#010202;stroke-width:0.25;stroke-miterlimit:10;}
</style>
<g>
	<path class="st0" d="M35.6,46.1c3-1.7,5.4-3.2,7.3-4.5c1.9-1.2,3.7-2.9,5.7-4.9c1.8-1.9,3.2-3.9,4.1-6c1-2.1,1.6-4.8,2-8.1h-4.6
		c-4,0-7.1-1-9.4-2.9c-2.3-2-3.4-4.8-3.4-8.6c0-2.7,1-5.2,3-7.5c2-2.3,4.8-3.5,8.3-3.5c5.5,0,9.5,1.8,11.8,5.4
		C62.8,9,64,13.8,64,19.7c0,4.2-0.9,7.9-2.7,11.4c-1.8,3.4-4,6.5-6.5,9.2c-2.6,2.7-5.4,5.1-8.4,7c-2.9,1.9-5.4,3.5-7.4,4.7
		L35.6,46.1z M0,46.1c3-1.7,5.4-3.2,7.3-4.5c1.9-1.2,3.7-2.9,5.7-4.9c1.9-2,3.3-4,4.2-6.1c0.9-2.1,1.6-4.8,2-8.1h-4.6
		c-4,0-7.1-1-9.4-2.9c-2.3-2-3.4-4.8-3.4-8.6c0-2.7,1-5.2,3-7.5C6.8,1.2,9.5,0,13.1,0c5.5,0,9.5,1.8,11.8,5.4
		c2.4,3.6,3.6,8.4,3.6,14.2c0,4.2-0.9,7.9-2.7,11.4c-1.8,3.4-4,6.5-6.5,9.2c-2.6,2.7-5.4,5.1-8.4,7c-2.9,1.9-5.4,3.5-7.4,4.7L0,46.1
		z"/>
</g>
</svg>
