<?xml version="1.0" encoding="utf-8"?>
<!-- Generator: Adobe Illustrator 19.0.1, SVG Export Plug-In . SVG Version: 6.00 Build 0)  -->
<svg version="1.1" id="Layer_1" xmlns="http://www.w3.org/2000/svg" xmlns:xlink="http://www.w3.org/1999/xlink" x="0px" y="0px"
	 viewBox="0 0 64 64" style="enable-background:new 0 0 64 64;" xml:space="preserve">
<style type="text/css">
	.st0{fill:#010202;}
	.st1{fill:#12100B;}
	.st2{fill:#010202;stroke:#010202;stroke-width:0.25;stroke-miterlimit:10;}
</style>
<path class="st0" d="M20.7,0C9.3,0,0,9.9,0,22c0,8.9,3.6,13.8,6.8,18.2c2.4,3.3,4.5,6.1,4.5,10.1v7.9c0,3.3,2.5,5.9,5.6,5.9h7.5
	c3.1,0,5.6-2.6,5.6-5.9v-8c0-3.9,1.9-6.5,4.4-9.8c3.1-4.1,6.9-9.2,6.9-18.3C41.4,9.9,32.1,0,20.7,0z M26.4,58.1
	c0,1.2-0.8,2.1-1.9,2.1h-7.5c-1,0-1.9-1-1.9-2.1V52h11.3V58.1z M23.3,38L23.3,38c1.4-2.3,1.6-6.1,0.3-10.1h0c-0.4-1.4-1-2.6-1.7-3.7
	c1.3-1.7,2.8-2.7,4.1-2.7c0.2,0,0.5,0,0.7,0.1c2.3,0.8,3,5.2,1.6,9.7C27.2,34.6,25.2,37.1,23.3,38z M21.7,28.5L21.7,28.5
	c1.3,4.1,0.9,8.1-1,9.4c-1.8-1.3-2.3-5.3-1-9.4h0c0.3-0.8,0.6-1.6,1-2.3C21.1,26.9,21.4,27.6,21.7,28.5z M17.8,27.9
	c-1.3,4-1.1,7.8,0.3,10.1h0c-1.9-0.8-3.9-3.4-5-6.7c-1.5-4.5-0.7-8.9,1.6-9.7c0.2-0.1,0.5-0.1,0.7-0.1c1.3,0,2.8,1,4.1,2.7
	C18.8,25.3,18.3,26.5,17.8,27.9z M19.4,40.3c0.4,0,0.9-0.1,1.3-0.2c0.4,0.1,0.8,0.2,1.3,0.2c0.1,0,0.3,0,0.4,0v8H19v-8
	C19.1,40.3,19.3,40.3,19.4,40.3z M31.5,38c-2.2,3-4.5,6-5,10.2h-2v-8.6c2.3-1.2,4.5-4,5.7-7.7c1.9-5.7,0.6-11.1-2.9-12.2
	c-2.2-0.7-4.6,0.5-6.6,2.8c-2-2.4-4.4-3.5-6.6-2.8c-3.5,1.1-4.7,6.5-2.9,12.2c1.2,3.7,3.4,6.5,5.7,7.7v8.6h-2.1
	c-0.6-4.1-2.8-7.3-5-10.3c-3-4.1-6.1-8.3-6.1-16c0-10,7.6-18.2,16.9-18.2c9.3,0,16.9,8.2,16.9,18.2C37.6,29.8,34.5,34,31.5,38z"/>
</svg>
