<?xml version="1.0" encoding="utf-8"?>
<!-- Generator: Adobe Illustrator 19.0.1, SVG Export Plug-In . SVG Version: 6.00 Build 0)  -->
<svg version="1.1" id="Layer_1" xmlns="http://www.w3.org/2000/svg" xmlns:xlink="http://www.w3.org/1999/xlink" x="0px" y="0px"
	 viewBox="0 0 64 64" style="enable-background:new 0 0 64 64;" xml:space="preserve">
<style type="text/css">
	.st0{fill:#010202;}
	.st1{fill:#12100B;}
	.st2{fill:#010202;stroke:#010202;stroke-width:0.25;stroke-miterlimit:10;}
</style>
<g id="XMLID_186_">
	<path id="XMLID_224_" class="st0" d="M0,60.8c2.6-3.1,7-5.5,11.1-5.4c2.8-2.4,5.3-5.9,5.3-9.8l-0.2-2.4H5.9v-3.7h9.3L8.4,28
		C5.8,23.9,4,20.6,4,15.6C4,6.5,11.8,0,20.6,0c9.2,0,16.1,7.5,15.9,16.5h-4c0.1-7.3-5-12.7-12.4-12.7C13.4,3.7,7.9,9.5,7.9,16
		c0,3.6,1.9,6.7,3.8,9.7c2.7,4.5,5.7,8.8,7.7,13.7h11.2v3.7H20.2l0.2,2.7c0,3.8-2,7.7-4.7,10.4l0.8,0.2c3,1,9.2,3.7,12.1,3.7
		c4,0,7-3.5,8.8-6.8l3.4,2C38.4,59.7,34.1,64,29,64c-2.9,0-6.2-1.2-9.3-2.5c-3.1-1.2-6.1-2.4-8.4-2.4c-3.6,0-6.5,2.3-9,4.9L0,60.8z"
		/>
</g>
</svg>
