<?xml version="1.0" encoding="utf-8"?>
<!-- Generator: Adobe Illustrator 19.0.1, SVG Export Plug-In . SVG Version: 6.00 Build 0)  -->
<svg version="1.1" id="Layer_1" xmlns="http://www.w3.org/2000/svg" xmlns:xlink="http://www.w3.org/1999/xlink" x="0px" y="0px"
	 viewBox="0 0 64 64" style="enable-background:new 0 0 64 64;" xml:space="preserve">
<style type="text/css">
	.st0{fill:#010202;}
	.st1{fill:#12100B;}
	.st2{fill:#010202;stroke:#010202;stroke-width:0.25;stroke-miterlimit:10;}
</style>
<path id="XMLID_271_" class="st0" d="M32,0C21.3,0,12.6,8.7,12.6,19.4c0,5.3,2.2,10.3,6.1,14c0.3,0.3,0.7,0.6,1.1,0.9l0.4,0.3
	c0.7,0.5,1.4,1,2.2,1.4v28l9.6-7.4l9.8,7.4V36c0.7-0.4,1.5-0.9,2.2-1.4l0.4-0.3c0.4-0.3,0.7-0.6,1.1-0.9c3.9-3.7,6.1-8.7,6.1-14
	C51.4,8.7,42.7,0,32,0z M37.8,56.2l-5.9-4.5l-5.7,4.4V39.7c1.9,0.6,3.8,1,5.8,1s3.9-0.3,5.8-1V56.2z M42.7,30.6
	c-0.2,0.2-0.5,0.4-0.7,0.6l-0.5,0.4c-5.6,4.4-13.3,4.4-18.9,0l-0.5-0.4c-0.2-0.2-0.5-0.4-0.7-0.6c-3.1-3-4.9-7-4.9-11.2
	c0-8.6,7-15.5,15.5-15.5s15.5,7,15.5,15.5C47.5,23.7,45.8,27.6,42.7,30.6z M38.8,19.4c0,3.7-3,6.8-6.8,6.8s-6.8-3-6.8-6.8
	s3-6.8,6.8-6.8C35.7,12.6,38.8,15.6,38.8,19.4z"/>
</svg>
