<?xml version="1.0" encoding="utf-8"?>
<!-- Generator: Adobe Illustrator 19.0.1, SVG Export Plug-In . SVG Version: 6.00 Build 0)  -->
<svg version="1.1" id="Layer_1" xmlns="http://www.w3.org/2000/svg" xmlns:xlink="http://www.w3.org/1999/xlink" x="0px" y="0px"
	 viewBox="0 0 64 64" style="enable-background:new 0 0 64 64;" xml:space="preserve">
<style type="text/css">
	.st0{fill:#010202;}
	.st1{fill:#12100B;}
	.st2{fill:#010202;stroke:#010202;stroke-width:0.25;stroke-miterlimit:10;}
</style>
<path class="st0" d="M64,61.3L44.1,41.3c3.8-4.4,6-10.1,6-16.3C50.1,11.2,38.9,0,25.1,0c-6.7,0-13,2.6-17.7,7.3
	C2.6,12.1,0,18.4,0,25.1c0,13.8,11.2,25.1,25.1,25.1c6.2,0,11.9-2.3,16.3-6L61.3,64L64,61.3z M25.1,46.3c-11.7,0-21.2-9.5-21.2-21.2
	c0-5.7,2.2-11,6.2-15c4-4,9.3-6.2,15-6.2c11.7,0,21.2,9.5,21.2,21.2C46.3,36.7,36.7,46.3,25.1,46.3z"/>
</svg>
