<?xml version="1.0" encoding="utf-8"?>
<!-- Generator: Adobe Illustrator 19.0.1, SVG Export Plug-In . SVG Version: 6.00 Build 0)  -->
<svg version="1.1" id="Layer_1" xmlns="http://www.w3.org/2000/svg" xmlns:xlink="http://www.w3.org/1999/xlink" x="0px" y="0px"
	 viewBox="0 0 64 64" style="enable-background:new 0 0 64 64;" xml:space="preserve">
<style type="text/css">
	.st0{fill:#010202;}
	.st1{fill:#12100B;}
	.st2{fill:#010202;stroke:#010202;stroke-width:0.25;stroke-miterlimit:10;}
</style>
<path class="st0" d="M55.9,35.8l4,0.3C58.9,51.7,45.7,64,30,64C13.5,64,0,50.5,0,34C0,18.4,12.2,5.2,27.8,4.1l0.3,4
	C14.6,9.1,4,20.5,4,34c0,14.3,11.7,26,26,26C43.6,60,55,49.4,55.9,35.8z M64,30v2l-2,0.1H32.1V0l2,0C50.6,0,64,13.5,64,30z
	 M59.9,28.1c-0.9-12.7-11.1-23-23.9-24v24H59.9z"/>
</svg>
