<?xml version="1.0" encoding="utf-8"?>
<!-- Generator: Adobe Illustrator 19.0.1, SVG Export Plug-In . SVG Version: 6.00 Build 0)  -->
<svg version="1.1" id="Layer_1" xmlns="http://www.w3.org/2000/svg" xmlns:xlink="http://www.w3.org/1999/xlink" x="0px" y="0px"
	 viewBox="0 0 64 64" style="enable-background:new 0 0 64 64;" xml:space="preserve">
<style type="text/css">
	.st0{fill:#010202;}
	.st1{fill:#12100B;}
	.st2{fill:#010202;stroke:#010202;stroke-width:0.25;stroke-miterlimit:10;}
</style>
<path class="st0" d="M22.6,27.8H0V5.2h3.8v15.5C7.6,8.6,19,0,32,0c13.2,0,24.9,8.9,28.5,21.6l-3.6,1C53.8,11.5,43.5,3.8,32,3.8
	C19.9,3.8,9.4,12.3,6.7,24h15.8L22.6,27.8z M41.4,31.5v3.8h15.8C54.6,47,44.2,55.5,32,55.5c-11.5,0-21.8-7.8-24.9-18.9l-3.6,1
	C7.1,50.4,18.8,59.3,32,59.3c13,0,24.4-8.6,28.2-20.6v15.5H64V31.5H41.4z"/>
</svg>
