<?xml version="1.0" encoding="utf-8"?>
<!-- Generator: Adobe Illustrator 19.0.1, SVG Export Plug-In . SVG Version: 6.00 Build 0)  -->
<svg version="1.1" id="Layer_1" xmlns="http://www.w3.org/2000/svg" xmlns:xlink="http://www.w3.org/1999/xlink" x="0px" y="0px"
	 viewBox="0 0 64 64" style="enable-background:new 0 0 64 64;" xml:space="preserve">
<style type="text/css">
	.st0{fill:#010202;}
	.st1{fill:#12100B;}
	.st2{fill:#010202;stroke:#010202;stroke-width:0.25;stroke-miterlimit:10;}
</style>
<path class="st1" d="M32,0C14.3,0,0,14.3,0,32s14.3,32,32,32c17.7,0,32-14.3,32-32S49.7,0,32,0z M47.6,24.9c0,0.3,0,0.7,0,1
	c0,10.1-7.7,21.7-21.7,21.7c-4.3,0-8.3-1.3-11.7-3.4c0.6,0.1,1.2,0.1,1.8,0.1c3.6,0,6.9-1.2,9.5-3.3c-3.3-0.1-6.2-2.3-7.1-5.3
	c0.5,0.1,0.9,0.1,1.4,0.1c0.7,0,1.4-0.1,2-0.3c-3.5-0.7-6.1-3.8-6.1-7.5c0,0,0-0.1,0-0.1c1,0.6,2.2,0.9,3.5,1
	c-2-1.4-3.4-3.7-3.4-6.3c0-1.4,0.4-2.7,1-3.8c3.8,4.6,9.4,7.7,15.7,8c-0.1-0.6-0.2-1.1-0.2-1.7c0-4.2,3.4-7.6,7.6-7.6
	c2.2,0,4.2,0.9,5.6,2.4c1.7-0.3,3.4-1,4.8-1.9c-0.6,1.8-1.8,3.3-3.4,4.2c1.5-0.2,3-0.6,4.4-1.2C50.4,22.5,49.1,23.8,47.6,24.9z"/>
</svg>
