<?xml version="1.0" encoding="utf-8"?>
<!-- Generator: Adobe Illustrator 19.0.1, SVG Export Plug-In . SVG Version: 6.00 Build 0)  -->
<svg version="1.1" id="Layer_1" xmlns="http://www.w3.org/2000/svg" xmlns:xlink="http://www.w3.org/1999/xlink" x="0px" y="0px"
	 viewBox="0 0 753 254.6" style="enable-background:new 0 0 753 254.6;" xml:space="preserve">
<style type="text/css">
	.st0{fill:none;}
	.st1{fill:#F8C05A;}
	.st2{fill:#FFFFFF;}
</style>
<pattern  x="103.9" y="424.4" width="69" height="69" patternUnits="userSpaceOnUse" id="Unnamed_Pattern" viewBox="2.1 -70.9 69 69" style="overflow:visible;">
	<g>
		<polygon class="st0" points="71.1,-1.9 2.1,-1.9 2.1,-70.9 71.1,-70.9 		"/>
		<polygon class="st1" points="71.1,-1.9 2.1,-1.9 2.1,-70.9 71.1,-70.9 		"/>
		<g>
			<path class="st2" d="M61.8-71.7c0,0.1,0,0.1,0,0.2c-0.1,0.1-0.1,0.1-0.2,0.1c-0.1,0.1-0.1,0.3-0.1,0.4c-0.2,0.1,0,0.2,0,0.3
				c0,0,0,0.1,0,0.2c0,0.1,0,0.3,0.1,0.4c0.1,0.2,0.3,0.4,0.4,0.5c0.2,0.1,0.4,0.6,0.6,0.6c0.2,0,0.4-0.1,0.5-0.1
				c0.2,0,0.4,0,0.6-0.1c0.2-0.1,0.1-0.3,0.3-0.5c0.1-0.1,0.3,0,0.4-0.1c0.2-0.1,0.3-0.3,0.4-0.5c0-0.1,0-0.1,0-0.2
				c0-0.1,0.1-0.2,0.1-0.3c0-0.1-0.1-0.1-0.1-0.2c0-0.1,0-0.2,0-0.3c0-0.2,0-0.4-0.1-0.5c-0.4-0.7-1.2-0.9-2-0.8
				c-0.2,0-0.3,0.1-0.4,0.2c-0.2,0.1-0.1,0.2-0.3,0.2c-0.1,0-0.2,0.1-0.2,0.2C61.8-71.7,61.8-71.7,61.8-71.7
				C61.8-71.6,61.8-71.6,61.8-71.7"/>
			<path class="st2" d="M54.1-71.7c0,0.1,0,0.1,0,0.2c-0.1,0.1-0.1,0.1-0.2,0.1c-0.1,0.1-0.1,0.3-0.1,0.4c-0.2,0.1,0,0.2,0,0.3
				c0,0,0,0.1,0,0.2c0,0.1,0,0.3,0.1,0.4c0.1,0.2,0.3,0.4,0.4,0.5c0.2,0.1,0.4,0.6,0.6,0.6c0.2,0,0.4-0.1,0.5-0.1
				c0.2,0,0.4,0,0.6-0.1c0.2-0.1,0.1-0.3,0.3-0.5c0.1-0.1,0.3,0,0.4-0.1c0.2-0.1,0.3-0.3,0.4-0.5c0-0.1,0-0.1,0-0.2
				c0-0.1,0.1-0.2,0.1-0.3c0-0.1-0.1-0.1-0.1-0.2c0-0.1,0-0.2,0-0.3c0-0.2,0-0.4-0.1-0.5c-0.4-0.7-1.2-0.9-2-0.8
				c-0.2,0-0.3,0.1-0.4,0.2c-0.2,0.1-0.1,0.2-0.3,0.2c-0.1,0-0.2,0.1-0.2,0.2C54.1-71.7,54.1-71.7,54.1-71.7
				C54.1-71.6,54.1-71.6,54.1-71.7"/>
			<path class="st2" d="M46.4-71.7c0,0.1,0,0.1,0,0.2c-0.1,0.1-0.1,0.1-0.2,0.1c-0.1,0.1-0.1,0.3-0.1,0.4c-0.2,0.1,0,0.2,0,0.3
				c0,0,0,0.1,0,0.2c0,0.1,0,0.3,0.1,0.4c0.1,0.2,0.3,0.4,0.4,0.5c0.2,0.1,0.4,0.6,0.6,0.6c0.2,0,0.4-0.1,0.5-0.1
				c0.2,0,0.4,0,0.6-0.1c0.2-0.1,0.1-0.3,0.3-0.5c0.1-0.1,0.3,0,0.4-0.1c0.2-0.1,0.3-0.3,0.4-0.5c0-0.1,0-0.1,0-0.2
				c0-0.1,0.1-0.2,0.1-0.3c0-0.1-0.1-0.1-0.1-0.2c0-0.1,0-0.2,0-0.3c0-0.2,0-0.4-0.1-0.5c-0.4-0.7-1.2-0.9-2-0.8
				c-0.2,0-0.3,0.1-0.4,0.2c-0.2,0.1-0.1,0.2-0.3,0.2c-0.1,0-0.2,0.1-0.2,0.2C46.4-71.7,46.4-71.7,46.4-71.7
				C46.4-71.6,46.4-71.6,46.4-71.7"/>
			<path class="st2" d="M38.8-71.7c0,0.1,0,0.1,0,0.2c-0.1,0.1-0.1,0.1-0.2,0.1c-0.1,0.1-0.1,0.3-0.1,0.4c-0.2,0.1,0,0.2,0,0.3
				c0,0,0,0.1,0,0.2c0,0.1,0,0.3,0.1,0.4c0.1,0.2,0.3,0.4,0.4,0.5c0.2,0.1,0.4,0.6,0.6,0.6c0.2,0,0.4-0.1,0.5-0.1
				c0.2,0,0.4,0,0.6-0.1c0.2-0.1,0.1-0.3,0.3-0.5c0.1-0.1,0.3,0,0.4-0.1c0.2-0.1,0.3-0.3,0.4-0.5c0-0.1,0-0.1,0-0.2
				c0-0.1,0.1-0.2,0.1-0.3c0-0.1-0.1-0.1-0.1-0.2c0-0.1,0-0.2,0-0.3c0-0.2,0-0.4-0.1-0.5c-0.4-0.7-1.2-0.9-2-0.8
				c-0.2,0-0.3,0.1-0.4,0.2c-0.2,0.1-0.1,0.2-0.3,0.2c-0.1,0-0.2,0.1-0.2,0.2C38.8-71.7,38.8-71.7,38.8-71.7
				C38.8-71.6,38.8-71.6,38.8-71.7"/>
			<path class="st2" d="M31.1-71.7c0,0.1,0,0.1,0,0.2c-0.1,0.1-0.1,0.1-0.2,0.1c-0.1,0.1-0.1,0.3-0.1,0.4c-0.2,0.1,0,0.2,0,0.3
				c0,0,0,0.1,0,0.2c0,0.1,0,0.3,0.1,0.4c0.1,0.2,0.3,0.4,0.4,0.5c0.2,0.1,0.4,0.6,0.6,0.6c0.2,0,0.4-0.1,0.5-0.1
				c0.2,0,0.4,0,0.6-0.1c0.2-0.1,0.1-0.3,0.3-0.5c0.1-0.1,0.3,0,0.4-0.1c0.2-0.1,0.3-0.3,0.4-0.5c0-0.1,0-0.1,0-0.2
				c0-0.1,0.1-0.2,0.1-0.3c0-0.1-0.1-0.1-0.1-0.2c0-0.1,0-0.2,0-0.3c0-0.2,0-0.4-0.1-0.5c-0.4-0.7-1.2-0.9-2-0.8
				c-0.2,0-0.3,0.1-0.4,0.2c-0.2,0.1-0.1,0.2-0.3,0.2c-0.1,0-0.2,0.1-0.2,0.2C31.1-71.7,31.1-71.7,31.1-71.7
				C31.1-71.6,31.1-71.6,31.1-71.7"/>
			<path class="st2" d="M23.4-71.7c0,0.1,0,0.1,0,0.2c-0.1,0.1-0.1,0.1-0.2,0.1c-0.1,0.1-0.1,0.3-0.1,0.4c-0.2,0.1,0,0.2,0,0.3
				c0,0,0,0.1,0,0.2c0,0.1,0,0.3,0.1,0.4c0.1,0.2,0.3,0.4,0.4,0.5c0.2,0.1,0.4,0.6,0.6,0.6c0.2,0,0.4-0.1,0.5-0.1
				c0.2,0,0.4,0,0.6-0.1c0.2-0.1,0.1-0.3,0.3-0.5c0.1-0.1,0.3,0,0.4-0.1c0.2-0.1,0.3-0.3,0.4-0.5c0-0.1,0-0.1,0-0.2
				c0-0.1,0.1-0.2,0.1-0.3c0-0.1-0.1-0.1-0.1-0.2c0-0.1,0-0.2,0-0.3c0-0.2,0-0.4-0.1-0.5c-0.4-0.7-1.2-0.9-2-0.8
				c-0.2,0-0.3,0.1-0.4,0.2c-0.2,0.1-0.1,0.2-0.3,0.2c-0.1,0-0.2,0.1-0.2,0.2C23.4-71.7,23.4-71.7,23.4-71.7
				C23.4-71.6,23.4-71.6,23.4-71.7"/>
			<path class="st2" d="M15.8-71.7c0,0.1,0,0.1,0,0.2c-0.1,0.1-0.1,0.1-0.2,0.1c-0.1,0.1-0.1,0.3-0.1,0.4c-0.2,0.1,0,0.2,0,0.3
				c0,0,0,0.1,0,0.2c0,0.1,0,0.3,0.1,0.4c0.1,0.2,0.3,0.4,0.4,0.5c0.2,0.1,0.4,0.6,0.6,0.6c0.2,0,0.4-0.1,0.5-0.1
				c0.2,0,0.4,0,0.6-0.1c0.2-0.1,0.1-0.3,0.3-0.5c0.1-0.1,0.3,0,0.4-0.1c0.2-0.1,0.3-0.3,0.4-0.5c0-0.1,0-0.1,0-0.2
				c0-0.1,0.1-0.2,0.1-0.3c0-0.1-0.1-0.1-0.1-0.2c0-0.1,0-0.2,0-0.3c0-0.2,0-0.4-0.1-0.5c-0.4-0.7-1.2-0.9-2-0.8
				c-0.2,0-0.3,0.1-0.4,0.2c-0.2,0.1-0.1,0.2-0.3,0.2c-0.1,0-0.2,0.1-0.2,0.2C15.8-71.7,15.8-71.7,15.8-71.7
				C15.8-71.6,15.8-71.6,15.8-71.7"/>
			<path class="st2" d="M8.1-71.7c0,0.1,0,0.1,0,0.2C8-71.4,8-71.4,7.9-71.3c-0.1,0.1-0.1,0.3-0.1,0.4c-0.2,0.1,0,0.2,0,0.3
				c0,0,0,0.1,0,0.2c0,0.1,0,0.3,0.1,0.4c0.1,0.2,0.3,0.4,0.4,0.5c0.2,0.1,0.4,0.6,0.6,0.6c0.2,0,0.4-0.1,0.5-0.1
				c0.2,0,0.4,0,0.6-0.1c0.2-0.1,0.1-0.3,0.3-0.5c0.1-0.1,0.3,0,0.4-0.1c0.2-0.1,0.3-0.3,0.4-0.5c0-0.1,0-0.1,0-0.2
				c0-0.1,0.1-0.2,0.1-0.3c0-0.1-0.1-0.1-0.1-0.2c0-0.1,0-0.2,0-0.3c0-0.2,0-0.4-0.1-0.5c-0.4-0.7-1.2-0.9-2-0.8
				c-0.2,0-0.3,0.1-0.4,0.2c-0.2,0.1-0.1,0.2-0.3,0.2c-0.1,0-0.2,0.1-0.2,0.2C8.1-71.7,8.1-71.7,8.1-71.7
				C8.1-71.6,8.1-71.6,8.1-71.7"/>
			<path class="st2" d="M0.4-71.7c0,0.1,0,0.1,0,0.2c-0.1,0.1-0.1,0.1-0.2,0.1c-0.1,0.1-0.1,0.3-0.1,0.4c-0.2,0.1,0,0.2,0,0.3
				c0,0,0,0.1,0,0.2c0,0.1,0,0.3,0.1,0.4c0.1,0.2,0.3,0.4,0.4,0.5C0.8-69.4,1-69,1.2-68.9c0.2,0,0.4-0.1,0.5-0.1
				c0.2,0,0.4,0,0.6-0.1c0.2-0.1,0.1-0.3,0.3-0.5c0.1-0.1,0.3,0,0.4-0.1c0.2-0.1,0.3-0.3,0.4-0.5c0-0.1,0-0.1,0-0.2
				c0-0.1,0.1-0.2,0.1-0.3c0-0.1-0.1-0.1-0.1-0.2c0-0.1,0-0.2,0-0.3c0-0.2,0-0.4-0.1-0.5c-0.4-0.7-1.2-0.9-2-0.8
				c-0.2,0-0.3,0.1-0.4,0.2c-0.2,0.1-0.1,0.2-0.3,0.2c-0.1,0-0.2,0.1-0.2,0.2C0.4-71.7,0.4-71.7,0.4-71.7
				C0.4-71.6,0.4-71.6,0.4-71.7"/>
		</g>
		<g>
			<path class="st2" d="M69.4-71.7c0,0.1,0,0.1,0,0.2c-0.1,0.1-0.1,0.1-0.2,0.1c-0.1,0.1-0.1,0.3-0.1,0.4c-0.2,0.1,0,0.2,0,0.3
				c0,0,0,0.1,0,0.2c0,0.1,0,0.3,0.1,0.4c0.1,0.2,0.3,0.4,0.4,0.5c0.2,0.1,0.4,0.6,0.6,0.6c0.2,0,0.4-0.1,0.5-0.1
				c0.2,0,0.4,0,0.6-0.1c0.2-0.1,0.1-0.3,0.3-0.5c0.1-0.1,0.3,0,0.4-0.1c0.2-0.1,0.3-0.3,0.4-0.5c0-0.1,0-0.1,0-0.2
				c0-0.1,0.1-0.2,0.1-0.3c0-0.1-0.1-0.1-0.1-0.2c0-0.1,0-0.2,0-0.3c0-0.2,0-0.4-0.1-0.5c-0.4-0.7-1.2-0.9-2-0.8
				c-0.2,0-0.3,0.1-0.4,0.2c-0.2,0.1-0.1,0.2-0.3,0.2c-0.1,0-0.2,0.1-0.2,0.2C69.4-71.7,69.4-71.7,69.4-71.7
				C69.4-71.6,69.4-71.6,69.4-71.7"/>
		</g>
		<path class="st2" d="M0.5-71.7c0,0.1,0,0.1,0,0.2c-0.1,0.1-0.1,0.1-0.2,0.1c-0.1,0.1-0.1,0.3-0.1,0.4c-0.2,0.1,0,0.2,0,0.3
			c0,0,0,0.1,0,0.2c0,0.1,0,0.3,0.1,0.4c0.1,0.2,0.3,0.4,0.4,0.5C0.9-69.4,1-69,1.3-68.9c0.2,0,0.4-0.1,0.5-0.1c0.2,0,0.4,0,0.6-0.1
			c0.2-0.1,0.1-0.3,0.3-0.5c0.1-0.1,0.3,0,0.4-0.1c0.2-0.1,0.3-0.3,0.4-0.5c0-0.1,0-0.1,0-0.2c0-0.1,0.1-0.2,0.1-0.3
			c0-0.1-0.1-0.1-0.1-0.2c0-0.1,0-0.2,0-0.3c0-0.2,0-0.4-0.1-0.5c-0.4-0.7-1.2-0.9-2-0.8c-0.2,0-0.3,0.1-0.4,0.2
			c-0.2,0.1-0.1,0.2-0.3,0.2c-0.1,0-0.2,0.1-0.2,0.2C0.5-71.7,0.5-71.7,0.5-71.7C0.5-71.6,0.5-71.6,0.5-71.7"/>
		<g>
			<g>
				<path class="st2" d="M69.4-64c0,0.1,0,0.1,0,0.2c-0.1,0.1-0.1,0.1-0.2,0.1c-0.1,0.1-0.1,0.3-0.1,0.4c-0.2,0.1,0,0.2,0,0.3
					c0,0,0,0.1,0,0.2c0,0.1,0,0.3,0.1,0.4c0.1,0.2,0.3,0.4,0.4,0.5c0.2,0.1,0.4,0.6,0.6,0.6c0.2,0,0.4-0.1,0.5-0.1
					c0.2,0,0.4,0,0.6-0.1c0.2-0.1,0.1-0.3,0.3-0.5c0.1-0.1,0.3,0,0.4-0.1c0.2-0.1,0.3-0.3,0.4-0.5c0-0.1,0-0.1,0-0.2
					c0-0.1,0.1-0.2,0.1-0.3c0-0.1-0.1-0.1-0.1-0.2c0-0.1,0-0.2,0-0.3c0-0.2,0-0.4-0.1-0.5c-0.4-0.7-1.2-0.9-2-0.8
					c-0.2,0-0.3,0.1-0.4,0.2c-0.2,0.1-0.1,0.2-0.3,0.2c-0.1,0-0.2,0.1-0.2,0.2C69.4-64,69.4-64.1,69.4-64C69.4-64,69.4-64,69.4-64"
					/>
				<path class="st2" d="M61.8-64c0,0.1,0,0.1,0,0.2c-0.1,0.1-0.1,0.1-0.2,0.1c-0.1,0.1-0.1,0.3-0.1,0.4c-0.2,0.1,0,0.2,0,0.3
					c0,0,0,0.1,0,0.2c0,0.1,0,0.3,0.1,0.4c0.1,0.2,0.3,0.4,0.4,0.5c0.2,0.1,0.4,0.6,0.6,0.6c0.2,0,0.4-0.1,0.5-0.1
					c0.2,0,0.4,0,0.6-0.1c0.2-0.1,0.1-0.3,0.3-0.5c0.1-0.1,0.3,0,0.4-0.1c0.2-0.1,0.3-0.3,0.4-0.5c0-0.1,0-0.1,0-0.2
					c0-0.1,0.1-0.2,0.1-0.3c0-0.1-0.1-0.1-0.1-0.2c0-0.1,0-0.2,0-0.3c0-0.2,0-0.4-0.1-0.5c-0.4-0.7-1.2-0.9-2-0.8
					c-0.2,0-0.3,0.1-0.4,0.2c-0.2,0.1-0.1,0.2-0.3,0.2c-0.1,0-0.2,0.1-0.2,0.2C61.8-64,61.8-64.1,61.8-64C61.8-64,61.8-64,61.8-64"
					/>
				<path class="st2" d="M54.1-64c0,0.1,0,0.1,0,0.2c-0.1,0.1-0.1,0.1-0.2,0.1c-0.1,0.1-0.1,0.3-0.1,0.4c-0.2,0.1,0,0.2,0,0.3
					c0,0,0,0.1,0,0.2c0,0.1,0,0.3,0.1,0.4c0.1,0.2,0.3,0.4,0.4,0.5c0.2,0.1,0.4,0.6,0.6,0.6c0.2,0,0.4-0.1,0.5-0.1
					c0.2,0,0.4,0,0.6-0.1c0.2-0.1,0.1-0.3,0.3-0.5c0.1-0.1,0.3,0,0.4-0.1c0.2-0.1,0.3-0.3,0.4-0.5c0-0.1,0-0.1,0-0.2
					c0-0.1,0.1-0.2,0.1-0.3c0-0.1-0.1-0.1-0.1-0.2c0-0.1,0-0.2,0-0.3c0-0.2,0-0.4-0.1-0.5c-0.4-0.7-1.2-0.9-2-0.8
					c-0.2,0-0.3,0.1-0.4,0.2c-0.2,0.1-0.1,0.2-0.3,0.2c-0.1,0-0.2,0.1-0.2,0.2C54.1-64,54.1-64.1,54.1-64C54.1-64,54.1-64,54.1-64"
					/>
				<path class="st2" d="M46.5-64c0,0.1,0,0.1,0,0.2c-0.1,0.1-0.1,0.1-0.2,0.1c-0.1,0.1-0.1,0.3-0.1,0.4c-0.2,0.1,0,0.2,0,0.3
					c0,0,0,0.1,0,0.2c0,0.1,0,0.3,0.1,0.4c0.1,0.2,0.3,0.4,0.4,0.5c0.2,0.1,0.4,0.6,0.6,0.6c0.2,0,0.4-0.1,0.5-0.1
					c0.2,0,0.4,0,0.6-0.1c0.2-0.1,0.1-0.3,0.3-0.5c0.1-0.1,0.3,0,0.4-0.1c0.2-0.1,0.3-0.3,0.4-0.5c0-0.1,0-0.1,0-0.2
					c0-0.1,0.1-0.2,0.1-0.3c0-0.1-0.1-0.1-0.1-0.2c0-0.1,0-0.2,0-0.3c0-0.2,0-0.4-0.1-0.5c-0.4-0.7-1.2-0.9-2-0.8
					c-0.2,0-0.3,0.1-0.4,0.2c-0.2,0.1-0.1,0.2-0.3,0.2c-0.1,0-0.2,0.1-0.2,0.2C46.5-64,46.5-64.1,46.5-64C46.5-64,46.5-64,46.5-64"
					/>
				<path class="st2" d="M38.8-64c0,0.1,0,0.1,0,0.2c-0.1,0.1-0.1,0.1-0.2,0.1c-0.1,0.1-0.1,0.3-0.1,0.4c-0.2,0.1,0,0.2,0,0.3
					c0,0,0,0.1,0,0.2c0,0.1,0,0.3,0.1,0.4c0.1,0.2,0.3,0.4,0.4,0.5c0.2,0.1,0.4,0.6,0.6,0.6c0.2,0,0.4-0.1,0.5-0.1
					c0.2,0,0.4,0,0.6-0.1c0.2-0.1,0.1-0.3,0.3-0.5c0.1-0.1,0.3,0,0.4-0.1c0.2-0.1,0.3-0.3,0.4-0.5c0-0.1,0-0.1,0-0.2
					c0-0.1,0.1-0.2,0.1-0.3c0-0.1-0.1-0.1-0.1-0.2c0-0.1,0-0.2,0-0.3c0-0.2,0-0.4-0.1-0.5c-0.4-0.7-1.2-0.9-2-0.8
					c-0.2,0-0.3,0.1-0.4,0.2c-0.2,0.1-0.1,0.2-0.3,0.2c-0.1,0-0.2,0.1-0.2,0.2C38.8-64,38.8-64.1,38.8-64C38.8-64,38.8-64,38.8-64"
					/>
				<path class="st2" d="M31.1-64c0,0.1,0,0.1,0,0.2c-0.1,0.1-0.1,0.1-0.2,0.1c-0.1,0.1-0.1,0.3-0.1,0.4c-0.2,0.1,0,0.2,0,0.3
					c0,0,0,0.1,0,0.2c0,0.1,0,0.3,0.1,0.4c0.1,0.2,0.3,0.4,0.4,0.5c0.2,0.1,0.4,0.6,0.6,0.6c0.2,0,0.4-0.1,0.5-0.1
					c0.2,0,0.4,0,0.6-0.1c0.2-0.1,0.1-0.3,0.3-0.5c0.1-0.1,0.3,0,0.4-0.1c0.2-0.1,0.3-0.3,0.4-0.5c0-0.1,0-0.1,0-0.2
					c0-0.1,0.1-0.2,0.1-0.3c0-0.1-0.1-0.1-0.1-0.2c0-0.1,0-0.2,0-0.3c0-0.2,0-0.4-0.1-0.5c-0.4-0.7-1.2-0.9-2-0.8
					c-0.2,0-0.3,0.1-0.4,0.2c-0.2,0.1-0.1,0.2-0.3,0.2c-0.1,0-0.2,0.1-0.2,0.2C31.1-64,31.1-64.1,31.1-64C31.1-64,31.1-64,31.1-64"
					/>
				<path class="st2" d="M23.5-64c0,0.1,0,0.1,0,0.2c-0.1,0.1-0.1,0.1-0.2,0.1c-0.1,0.1-0.1,0.3-0.1,0.4c-0.2,0.1,0,0.2,0,0.3
					c0,0,0,0.1,0,0.2c0,0.1,0,0.3,0.1,0.4c0.1,0.2,0.3,0.4,0.4,0.5c0.2,0.1,0.4,0.6,0.6,0.6c0.2,0,0.4-0.1,0.5-0.1
					c0.2,0,0.4,0,0.6-0.1c0.2-0.1,0.1-0.3,0.3-0.5c0.1-0.1,0.3,0,0.4-0.1c0.2-0.1,0.3-0.3,0.4-0.5c0-0.1,0-0.1,0-0.2
					c0-0.1,0.1-0.2,0.1-0.3c0-0.1-0.1-0.1-0.1-0.2c0-0.1,0-0.2,0-0.3c0-0.2,0-0.4-0.1-0.5c-0.4-0.7-1.2-0.9-2-0.8
					c-0.2,0-0.3,0.1-0.4,0.2c-0.2,0.1-0.1,0.2-0.3,0.2c-0.1,0-0.2,0.1-0.2,0.2C23.5-64,23.5-64.1,23.5-64C23.5-64,23.5-64,23.5-64"
					/>
				<path class="st2" d="M15.8-64c0,0.1,0,0.1,0,0.2c-0.1,0.1-0.1,0.1-0.2,0.1c-0.1,0.1-0.1,0.3-0.1,0.4c-0.2,0.1,0,0.2,0,0.3
					c0,0,0,0.1,0,0.2c0,0.1,0,0.3,0.1,0.4c0.1,0.2,0.3,0.4,0.4,0.5c0.2,0.1,0.4,0.6,0.6,0.6c0.2,0,0.4-0.1,0.5-0.1
					c0.2,0,0.4,0,0.6-0.1c0.2-0.1,0.1-0.3,0.3-0.5c0.1-0.1,0.3,0,0.4-0.1c0.2-0.1,0.3-0.3,0.4-0.5c0-0.1,0-0.1,0-0.2
					c0-0.1,0.1-0.2,0.1-0.3c0-0.1-0.1-0.1-0.1-0.2c0-0.1,0-0.2,0-0.3c0-0.2,0-0.4-0.1-0.5c-0.4-0.7-1.2-0.9-2-0.8
					c-0.2,0-0.3,0.1-0.4,0.2c-0.2,0.1-0.1,0.2-0.3,0.2c-0.1,0-0.2,0.1-0.2,0.2C15.8-64,15.8-64.1,15.8-64C15.8-64,15.8-64,15.8-64"
					/>
				<path class="st2" d="M8.2-64c0,0.1,0,0.1,0,0.2C8.1-63.7,8-63.7,8-63.7c-0.1,0.1-0.1,0.3-0.1,0.4c-0.2,0.1,0,0.2,0,0.3
					c0,0,0,0.1,0,0.2c0,0.1,0,0.3,0.1,0.4C8-62.2,8.2-62,8.3-61.9c0.2,0.1,0.4,0.6,0.6,0.6c0.2,0,0.4-0.1,0.5-0.1
					c0.2,0,0.4,0,0.6-0.1c0.2-0.1,0.1-0.3,0.3-0.5c0.1-0.1,0.3,0,0.4-0.1c0.2-0.1,0.3-0.3,0.4-0.5c0-0.1,0-0.1,0-0.2
					c0-0.1,0.1-0.2,0.1-0.3c0-0.1-0.1-0.1-0.1-0.2c0-0.1,0-0.2,0-0.3c0-0.2,0-0.4-0.1-0.5c-0.4-0.7-1.2-0.9-2-0.8
					c-0.2,0-0.3,0.1-0.4,0.2c-0.2,0.1-0.1,0.2-0.3,0.2c-0.1,0-0.2,0.1-0.2,0.2C8.2-64,8.2-64.1,8.2-64C8.1-64,8.1-64,8.2-64"/>
				<path class="st2" d="M0.5-64c0,0.1,0,0.1,0,0.2c-0.1,0.1-0.1,0.1-0.2,0.1c-0.1,0.1-0.1,0.3-0.1,0.4c-0.2,0.1,0,0.2,0,0.3
					c0,0,0,0.1,0,0.2c0,0.1,0,0.3,0.1,0.4c0.1,0.2,0.3,0.4,0.4,0.5c0.2,0.1,0.4,0.6,0.6,0.6c0.2,0,0.4-0.1,0.5-0.1
					c0.2,0,0.4,0,0.6-0.1c0.2-0.1,0.1-0.3,0.3-0.5C2.8-62,3-61.9,3.1-62c0.2-0.1,0.3-0.3,0.4-0.5c0-0.1,0-0.1,0-0.2
					c0-0.1,0.1-0.2,0.1-0.3c0-0.1-0.1-0.1-0.1-0.2c0-0.1,0-0.2,0-0.3c0-0.2,0-0.4-0.1-0.5c-0.4-0.7-1.2-0.9-2-0.8
					c-0.2,0-0.3,0.1-0.4,0.2c-0.2,0.1-0.1,0.2-0.3,0.2c-0.1,0-0.2,0.1-0.2,0.2C0.5-64,0.5-64.1,0.5-64C0.5-64,0.5-64,0.5-64"/>
			</g>
			<g>
				<path class="st2" d="M69.4-56.3c0,0.1,0,0.1,0,0.2c-0.1,0.1-0.1,0.1-0.2,0.1c-0.1,0.1-0.1,0.3-0.1,0.4c-0.2,0.1,0,0.2,0,0.3
					c0,0,0,0.1,0,0.2c0,0.1,0,0.3,0.1,0.4c0.1,0.2,0.3,0.4,0.4,0.5c0.2,0.1,0.4,0.6,0.6,0.6c0.2,0,0.4-0.1,0.5-0.1
					c0.2,0,0.4,0,0.6-0.1c0.2-0.1,0.1-0.3,0.3-0.5c0.1-0.1,0.3,0,0.4-0.1c0.2-0.1,0.3-0.3,0.4-0.5c0-0.1,0-0.1,0-0.2
					c0-0.1,0.1-0.2,0.1-0.3c0-0.1-0.1-0.1-0.1-0.2c0-0.1,0-0.2,0-0.3c0-0.2,0-0.4-0.1-0.5c-0.4-0.7-1.2-0.9-2-0.8
					c-0.2,0-0.3,0.1-0.4,0.2c-0.2,0.1-0.1,0.2-0.3,0.2c-0.1,0-0.2,0.1-0.2,0.2C69.4-56.4,69.4-56.4,69.4-56.3
					C69.4-56.3,69.4-56.3,69.4-56.3"/>
				<path class="st2" d="M61.8-56.3c0,0.1,0,0.1,0,0.2c-0.1,0.1-0.1,0.1-0.2,0.1c-0.1,0.1-0.1,0.3-0.1,0.4c-0.2,0.1,0,0.2,0,0.3
					c0,0,0,0.1,0,0.2c0,0.1,0,0.3,0.1,0.4c0.1,0.2,0.3,0.4,0.4,0.5c0.2,0.1,0.4,0.6,0.6,0.6c0.2,0,0.4-0.1,0.5-0.1
					c0.2,0,0.4,0,0.6-0.1c0.2-0.1,0.1-0.3,0.3-0.5c0.1-0.1,0.3,0,0.4-0.1c0.2-0.1,0.3-0.3,0.4-0.5c0-0.1,0-0.1,0-0.2
					c0-0.1,0.1-0.2,0.1-0.3c0-0.1-0.1-0.1-0.1-0.2c0-0.1,0-0.2,0-0.3c0-0.2,0-0.4-0.1-0.5c-0.4-0.7-1.2-0.9-2-0.8
					c-0.2,0-0.3,0.1-0.4,0.2c-0.2,0.1-0.1,0.2-0.3,0.2c-0.1,0-0.2,0.1-0.2,0.2C61.8-56.4,61.8-56.4,61.8-56.3
					C61.8-56.3,61.8-56.3,61.8-56.3"/>
				<path class="st2" d="M54.1-56.3c0,0.1,0,0.1,0,0.2C54-56.1,54-56.1,53.9-56c-0.1,0.1-0.1,0.3-0.1,0.4c-0.2,0.1,0,0.2,0,0.3
					c0,0,0,0.1,0,0.2c0,0.1,0,0.3,0.1,0.4c0.1,0.2,0.3,0.4,0.4,0.5c0.2,0.1,0.4,0.6,0.6,0.6c0.2,0,0.4-0.1,0.5-0.1
					c0.2,0,0.4,0,0.6-0.1c0.2-0.1,0.1-0.3,0.3-0.5c0.1-0.1,0.3,0,0.4-0.1c0.2-0.1,0.3-0.3,0.4-0.5c0-0.1,0-0.1,0-0.2
					c0-0.1,0.1-0.2,0.1-0.3c0-0.1-0.1-0.1-0.1-0.2c0-0.1,0-0.2,0-0.3c0-0.2,0-0.4-0.1-0.5c-0.4-0.7-1.2-0.9-2-0.8
					c-0.2,0-0.3,0.1-0.4,0.2c-0.2,0.1-0.1,0.2-0.3,0.2c-0.1,0-0.2,0.1-0.2,0.2C54.1-56.4,54.1-56.4,54.1-56.3
					C54.1-56.3,54.1-56.3,54.1-56.3"/>
				<path class="st2" d="M46.5-56.3c0,0.1,0,0.1,0,0.2c-0.1,0.1-0.1,0.1-0.2,0.1c-0.1,0.1-0.1,0.3-0.1,0.4c-0.2,0.1,0,0.2,0,0.3
					c0,0,0,0.1,0,0.2c0,0.1,0,0.3,0.1,0.4c0.1,0.2,0.3,0.4,0.4,0.5c0.2,0.1,0.4,0.6,0.6,0.6c0.2,0,0.4-0.1,0.5-0.1
					c0.2,0,0.4,0,0.6-0.1c0.2-0.1,0.1-0.3,0.3-0.5c0.1-0.1,0.3,0,0.4-0.1c0.2-0.1,0.3-0.3,0.4-0.5c0-0.1,0-0.1,0-0.2
					c0-0.1,0.1-0.2,0.1-0.3c0-0.1-0.1-0.1-0.1-0.2c0-0.1,0-0.2,0-0.3c0-0.2,0-0.4-0.1-0.5c-0.4-0.7-1.2-0.9-2-0.8
					c-0.2,0-0.3,0.1-0.4,0.2c-0.2,0.1-0.1,0.2-0.3,0.2c-0.1,0-0.2,0.1-0.2,0.2C46.5-56.4,46.5-56.4,46.5-56.3
					C46.5-56.3,46.5-56.3,46.5-56.3"/>
				<path class="st2" d="M38.8-56.3c0,0.1,0,0.1,0,0.2c-0.1,0.1-0.1,0.1-0.2,0.1c-0.1,0.1-0.1,0.3-0.1,0.4c-0.2,0.1,0,0.2,0,0.3
					c0,0,0,0.1,0,0.2c0,0.1,0,0.3,0.1,0.4c0.1,0.2,0.3,0.4,0.4,0.5c0.2,0.1,0.4,0.6,0.6,0.6c0.2,0,0.4-0.1,0.5-0.1
					c0.2,0,0.4,0,0.6-0.1c0.2-0.1,0.1-0.3,0.3-0.5c0.1-0.1,0.3,0,0.4-0.1c0.2-0.1,0.3-0.3,0.4-0.5c0-0.1,0-0.1,0-0.2
					c0-0.1,0.1-0.2,0.1-0.3c0-0.1-0.1-0.1-0.1-0.2c0-0.1,0-0.2,0-0.3c0-0.2,0-0.4-0.1-0.5c-0.4-0.7-1.2-0.9-2-0.8
					c-0.2,0-0.3,0.1-0.4,0.2c-0.2,0.1-0.1,0.2-0.3,0.2c-0.1,0-0.2,0.1-0.2,0.2C38.8-56.4,38.8-56.4,38.8-56.3
					C38.8-56.3,38.8-56.3,38.8-56.3"/>
				<path class="st2" d="M31.1-56.3c0,0.1,0,0.1,0,0.2c-0.1,0.1-0.1,0.1-0.2,0.1c-0.1,0.1-0.1,0.3-0.1,0.4c-0.2,0.1,0,0.2,0,0.3
					c0,0,0,0.1,0,0.2c0,0.1,0,0.3,0.1,0.4c0.1,0.2,0.3,0.4,0.4,0.5c0.2,0.1,0.4,0.6,0.6,0.6c0.2,0,0.4-0.1,0.5-0.1
					c0.2,0,0.4,0,0.6-0.1c0.2-0.1,0.1-0.3,0.3-0.5c0.1-0.1,0.3,0,0.4-0.1c0.2-0.1,0.3-0.3,0.4-0.5c0-0.1,0-0.1,0-0.2
					c0-0.1,0.1-0.2,0.1-0.3c0-0.1-0.1-0.1-0.1-0.2c0-0.1,0-0.2,0-0.3c0-0.2,0-0.4-0.1-0.5c-0.4-0.7-1.2-0.9-2-0.8
					c-0.2,0-0.3,0.1-0.4,0.2c-0.2,0.1-0.1,0.2-0.3,0.2c-0.1,0-0.2,0.1-0.2,0.2C31.1-56.4,31.1-56.4,31.1-56.3
					C31.1-56.3,31.1-56.3,31.1-56.3"/>
				<path class="st2" d="M23.5-56.3c0,0.1,0,0.1,0,0.2c-0.1,0.1-0.1,0.1-0.2,0.1c-0.1,0.1-0.1,0.3-0.1,0.4c-0.2,0.1,0,0.2,0,0.3
					c0,0,0,0.1,0,0.2c0,0.1,0,0.3,0.1,0.4c0.1,0.2,0.3,0.4,0.4,0.5c0.2,0.1,0.4,0.6,0.6,0.6c0.2,0,0.4-0.1,0.5-0.1
					c0.2,0,0.4,0,0.6-0.1c0.2-0.1,0.1-0.3,0.3-0.5c0.1-0.1,0.3,0,0.4-0.1c0.2-0.1,0.3-0.3,0.4-0.5c0-0.1,0-0.1,0-0.2
					c0-0.1,0.1-0.2,0.1-0.3c0-0.1-0.1-0.1-0.1-0.2c0-0.1,0-0.2,0-0.3c0-0.2,0-0.4-0.1-0.5c-0.4-0.7-1.2-0.9-2-0.8
					c-0.2,0-0.3,0.1-0.4,0.2c-0.2,0.1-0.1,0.2-0.3,0.2c-0.1,0-0.2,0.1-0.2,0.2C23.5-56.4,23.5-56.4,23.5-56.3
					C23.5-56.3,23.5-56.3,23.5-56.3"/>
				<path class="st2" d="M15.8-56.3c0,0.1,0,0.1,0,0.2c-0.1,0.1-0.1,0.1-0.2,0.1c-0.1,0.1-0.1,0.3-0.1,0.4c-0.2,0.1,0,0.2,0,0.3
					c0,0,0,0.1,0,0.2c0,0.1,0,0.3,0.1,0.4c0.1,0.2,0.3,0.4,0.4,0.5c0.2,0.1,0.4,0.6,0.6,0.6c0.2,0,0.4-0.1,0.5-0.1
					c0.2,0,0.4,0,0.6-0.1c0.2-0.1,0.1-0.3,0.3-0.5c0.1-0.1,0.3,0,0.4-0.1c0.2-0.1,0.3-0.3,0.4-0.5c0-0.1,0-0.1,0-0.2
					c0-0.1,0.1-0.2,0.1-0.3c0-0.1-0.1-0.1-0.1-0.2c0-0.1,0-0.2,0-0.3c0-0.2,0-0.4-0.1-0.5c-0.4-0.7-1.2-0.9-2-0.8
					c-0.2,0-0.3,0.1-0.4,0.2c-0.2,0.1-0.1,0.2-0.3,0.2c-0.1,0-0.2,0.1-0.2,0.2C15.8-56.4,15.8-56.4,15.8-56.3
					C15.8-56.3,15.8-56.3,15.8-56.3"/>
				<path class="st2" d="M8.2-56.3c0,0.1,0,0.1,0,0.2C8.1-56.1,8-56.1,8-56c-0.1,0.1-0.1,0.3-0.1,0.4c-0.2,0.1,0,0.2,0,0.3
					c0,0,0,0.1,0,0.2c0,0.1,0,0.3,0.1,0.4c0.1,0.2,0.3,0.4,0.4,0.5c0.2,0.1,0.4,0.6,0.6,0.6c0.2,0,0.4-0.1,0.5-0.1
					c0.2,0,0.4,0,0.6-0.1c0.2-0.1,0.1-0.3,0.3-0.5c0.1-0.1,0.3,0,0.4-0.1c0.2-0.1,0.3-0.3,0.4-0.5c0-0.1,0-0.1,0-0.2
					c0-0.1,0.1-0.2,0.1-0.3c0-0.1-0.1-0.1-0.1-0.2c0-0.1,0-0.2,0-0.3c0-0.2,0-0.4-0.1-0.5c-0.4-0.7-1.2-0.9-2-0.8
					c-0.2,0-0.3,0.1-0.4,0.2c-0.2,0.1-0.1,0.2-0.3,0.2c-0.1,0-0.2,0.1-0.2,0.2C8.2-56.4,8.2-56.4,8.2-56.3
					C8.1-56.3,8.1-56.3,8.2-56.3"/>
				<path class="st2" d="M0.5-56.3c0,0.1,0,0.1,0,0.2c-0.1,0.1-0.1,0.1-0.2,0.1c-0.1,0.1-0.1,0.3-0.1,0.4c-0.2,0.1,0,0.2,0,0.3
					c0,0,0,0.1,0,0.2c0,0.1,0,0.3,0.1,0.4c0.1,0.2,0.3,0.4,0.4,0.5c0.2,0.1,0.4,0.6,0.6,0.6c0.2,0,0.4-0.1,0.5-0.1
					c0.2,0,0.4,0,0.6-0.1c0.2-0.1,0.1-0.3,0.3-0.5c0.1-0.1,0.3,0,0.4-0.1c0.2-0.1,0.3-0.3,0.4-0.5c0-0.1,0-0.1,0-0.2
					c0-0.1,0.1-0.2,0.1-0.3c0-0.1-0.1-0.1-0.1-0.2c0-0.1,0-0.2,0-0.3c0-0.2,0-0.4-0.1-0.5c-0.4-0.7-1.2-0.9-2-0.8
					c-0.2,0-0.3,0.1-0.4,0.2c-0.2,0.1-0.1,0.2-0.3,0.2c-0.1,0-0.2,0.1-0.2,0.2C0.5-56.4,0.5-56.4,0.5-56.3
					C0.5-56.3,0.5-56.3,0.5-56.3"/>
			</g>
			<g>
				<path class="st2" d="M69.4-48.7c0,0.1,0,0.1,0,0.2c-0.1,0.1-0.1,0.1-0.2,0.1c-0.1,0.1-0.1,0.3-0.1,0.4c-0.2,0.1,0,0.2,0,0.3
					c0,0,0,0.1,0,0.2c0,0.1,0,0.3,0.1,0.4c0.1,0.2,0.3,0.4,0.4,0.5c0.2,0.1,0.4,0.6,0.6,0.6c0.2,0,0.4-0.1,0.5-0.1
					c0.2,0,0.4,0,0.6-0.1c0.2-0.1,0.1-0.3,0.3-0.5c0.1-0.1,0.3,0,0.4-0.1c0.2-0.1,0.3-0.3,0.4-0.5c0-0.1,0-0.1,0-0.2
					c0-0.1,0.1-0.2,0.1-0.3c0-0.1-0.1-0.1-0.1-0.2c0-0.1,0-0.2,0-0.3c0-0.2,0-0.4-0.1-0.5c-0.4-0.7-1.2-0.9-2-0.8
					c-0.2,0-0.3,0.1-0.4,0.2c-0.2,0.1-0.1,0.2-0.3,0.2c-0.1,0-0.2,0.1-0.2,0.2C69.4-48.7,69.4-48.8,69.4-48.7
					C69.4-48.7,69.4-48.7,69.4-48.7"/>
				<path class="st2" d="M61.8-48.7c0,0.1,0,0.1,0,0.2c-0.1,0.1-0.1,0.1-0.2,0.1c-0.1,0.1-0.1,0.3-0.1,0.4c-0.2,0.1,0,0.2,0,0.3
					c0,0,0,0.1,0,0.2c0,0.1,0,0.3,0.1,0.4c0.1,0.2,0.3,0.4,0.4,0.5c0.2,0.1,0.4,0.6,0.6,0.6c0.2,0,0.4-0.1,0.5-0.1
					c0.2,0,0.4,0,0.6-0.1c0.2-0.1,0.1-0.3,0.3-0.5c0.1-0.1,0.3,0,0.4-0.1c0.2-0.1,0.3-0.3,0.4-0.5c0-0.1,0-0.1,0-0.2
					c0-0.1,0.1-0.2,0.1-0.3c0-0.1-0.1-0.1-0.1-0.2c0-0.1,0-0.2,0-0.3c0-0.2,0-0.4-0.1-0.5c-0.4-0.7-1.2-0.9-2-0.8
					c-0.2,0-0.3,0.1-0.4,0.2c-0.2,0.1-0.1,0.2-0.3,0.2c-0.1,0-0.2,0.1-0.2,0.2C61.8-48.7,61.8-48.8,61.8-48.7
					C61.8-48.7,61.8-48.7,61.8-48.7"/>
				<path class="st2" d="M54.1-48.7c0,0.1,0,0.1,0,0.2c-0.1,0.1-0.1,0.1-0.2,0.1c-0.1,0.1-0.1,0.3-0.1,0.4c-0.2,0.1,0,0.2,0,0.3
					c0,0,0,0.1,0,0.2c0,0.1,0,0.3,0.1,0.4c0.1,0.2,0.3,0.4,0.4,0.5c0.2,0.1,0.4,0.6,0.6,0.6c0.2,0,0.4-0.1,0.5-0.1
					c0.2,0,0.4,0,0.6-0.1c0.2-0.1,0.1-0.3,0.3-0.5c0.1-0.1,0.3,0,0.4-0.1c0.2-0.1,0.3-0.3,0.4-0.5c0-0.1,0-0.1,0-0.2
					c0-0.1,0.1-0.2,0.1-0.3c0-0.1-0.1-0.1-0.1-0.2c0-0.1,0-0.2,0-0.3c0-0.2,0-0.4-0.1-0.5c-0.4-0.7-1.2-0.9-2-0.8
					c-0.2,0-0.3,0.1-0.4,0.2c-0.2,0.1-0.1,0.2-0.3,0.2c-0.1,0-0.2,0.1-0.2,0.2C54.1-48.7,54.1-48.8,54.1-48.7
					C54.1-48.7,54.1-48.7,54.1-48.7"/>
				<path class="st2" d="M46.5-48.7c0,0.1,0,0.1,0,0.2c-0.1,0.1-0.1,0.1-0.2,0.1c-0.1,0.1-0.1,0.3-0.1,0.4c-0.2,0.1,0,0.2,0,0.3
					c0,0,0,0.1,0,0.2c0,0.1,0,0.3,0.1,0.4c0.1,0.2,0.3,0.4,0.4,0.5c0.2,0.1,0.4,0.6,0.6,0.6c0.2,0,0.4-0.1,0.5-0.1
					c0.2,0,0.4,0,0.6-0.1c0.2-0.1,0.1-0.3,0.3-0.5c0.1-0.1,0.3,0,0.4-0.1c0.2-0.1,0.3-0.3,0.4-0.5c0-0.1,0-0.1,0-0.2
					c0-0.1,0.1-0.2,0.1-0.3c0-0.1-0.1-0.1-0.1-0.2c0-0.1,0-0.2,0-0.3c0-0.2,0-0.4-0.1-0.5c-0.4-0.7-1.2-0.9-2-0.8
					c-0.2,0-0.3,0.1-0.4,0.2c-0.2,0.1-0.1,0.2-0.3,0.2c-0.1,0-0.2,0.1-0.2,0.2C46.5-48.7,46.5-48.8,46.5-48.7
					C46.5-48.7,46.5-48.7,46.5-48.7"/>
				<path class="st2" d="M38.8-48.7c0,0.1,0,0.1,0,0.2c-0.1,0.1-0.1,0.1-0.2,0.1c-0.1,0.1-0.1,0.3-0.1,0.4c-0.2,0.1,0,0.2,0,0.3
					c0,0,0,0.1,0,0.2c0,0.1,0,0.3,0.1,0.4c0.1,0.2,0.3,0.4,0.4,0.5c0.2,0.1,0.4,0.6,0.6,0.6c0.2,0,0.4-0.1,0.5-0.1
					c0.2,0,0.4,0,0.6-0.1c0.2-0.1,0.1-0.3,0.3-0.5c0.1-0.1,0.3,0,0.4-0.1c0.2-0.1,0.3-0.3,0.4-0.5c0-0.1,0-0.1,0-0.2
					c0-0.1,0.1-0.2,0.1-0.3c0-0.1-0.1-0.1-0.1-0.2c0-0.1,0-0.2,0-0.3c0-0.2,0-0.4-0.1-0.5c-0.4-0.7-1.2-0.9-2-0.8
					c-0.2,0-0.3,0.1-0.4,0.2c-0.2,0.1-0.1,0.2-0.3,0.2c-0.1,0-0.2,0.1-0.2,0.2C38.8-48.7,38.8-48.8,38.8-48.7
					C38.8-48.7,38.8-48.7,38.8-48.7"/>
				<path class="st2" d="M31.1-48.7c0,0.1,0,0.1,0,0.2c-0.1,0.1-0.1,0.1-0.2,0.1c-0.1,0.1-0.1,0.3-0.1,0.4c-0.2,0.1,0,0.2,0,0.3
					c0,0,0,0.1,0,0.2c0,0.1,0,0.3,0.1,0.4c0.1,0.2,0.3,0.4,0.4,0.5c0.2,0.1,0.4,0.6,0.6,0.6c0.2,0,0.4-0.1,0.5-0.1
					c0.2,0,0.4,0,0.6-0.1c0.2-0.1,0.1-0.3,0.3-0.5c0.1-0.1,0.3,0,0.4-0.1c0.2-0.1,0.3-0.3,0.4-0.5c0-0.1,0-0.1,0-0.2
					c0-0.1,0.1-0.2,0.1-0.3c0-0.1-0.1-0.1-0.1-0.2c0-0.1,0-0.2,0-0.3c0-0.2,0-0.4-0.1-0.5c-0.4-0.7-1.2-0.9-2-0.8
					c-0.2,0-0.3,0.1-0.4,0.2c-0.2,0.1-0.1,0.2-0.3,0.2c-0.1,0-0.2,0.1-0.2,0.2C31.1-48.7,31.1-48.8,31.1-48.7
					C31.1-48.7,31.1-48.7,31.1-48.7"/>
				<path class="st2" d="M23.5-48.7c0,0.1,0,0.1,0,0.2c-0.1,0.1-0.1,0.1-0.2,0.1c-0.1,0.1-0.1,0.3-0.1,0.4c-0.2,0.1,0,0.2,0,0.3
					c0,0,0,0.1,0,0.2c0,0.1,0,0.3,0.1,0.4c0.1,0.2,0.3,0.4,0.4,0.5c0.2,0.1,0.4,0.6,0.6,0.6c0.2,0,0.4-0.1,0.5-0.1
					c0.2,0,0.4,0,0.6-0.1c0.2-0.1,0.1-0.3,0.3-0.5c0.1-0.1,0.3,0,0.4-0.1c0.2-0.1,0.3-0.3,0.4-0.5c0-0.1,0-0.1,0-0.2
					c0-0.1,0.1-0.2,0.1-0.3c0-0.1-0.1-0.1-0.1-0.2c0-0.1,0-0.2,0-0.3c0-0.2,0-0.4-0.1-0.5c-0.4-0.7-1.2-0.9-2-0.8
					c-0.2,0-0.3,0.1-0.4,0.2c-0.2,0.1-0.1,0.2-0.3,0.2c-0.1,0-0.2,0.1-0.2,0.2C23.5-48.7,23.5-48.8,23.5-48.7
					C23.5-48.7,23.5-48.7,23.5-48.7"/>
				<path class="st2" d="M15.8-48.7c0,0.1,0,0.1,0,0.2c-0.1,0.1-0.1,0.1-0.2,0.1c-0.1,0.1-0.1,0.3-0.1,0.4c-0.2,0.1,0,0.2,0,0.3
					c0,0,0,0.1,0,0.2c0,0.1,0,0.3,0.1,0.4c0.1,0.2,0.3,0.4,0.4,0.5c0.2,0.1,0.4,0.6,0.6,0.6c0.2,0,0.4-0.1,0.5-0.1
					c0.2,0,0.4,0,0.6-0.1c0.2-0.1,0.1-0.3,0.3-0.5c0.1-0.1,0.3,0,0.4-0.1c0.2-0.1,0.3-0.3,0.4-0.5c0-0.1,0-0.1,0-0.2
					c0-0.1,0.1-0.2,0.1-0.3c0-0.1-0.1-0.1-0.1-0.2c0-0.1,0-0.2,0-0.3c0-0.2,0-0.4-0.1-0.5c-0.4-0.7-1.2-0.9-2-0.8
					c-0.2,0-0.3,0.1-0.4,0.2c-0.2,0.1-0.1,0.2-0.3,0.2c-0.1,0-0.2,0.1-0.2,0.2C15.8-48.7,15.8-48.8,15.8-48.7
					C15.8-48.7,15.8-48.7,15.8-48.7"/>
				<path class="st2" d="M8.2-48.7c0,0.1,0,0.1,0,0.2C8.1-48.4,8-48.4,8-48.4c-0.1,0.1-0.1,0.3-0.1,0.4c-0.2,0.1,0,0.2,0,0.3
					c0,0,0,0.1,0,0.2c0,0.1,0,0.3,0.1,0.4c0.1,0.2,0.3,0.4,0.4,0.5C8.5-46.4,8.7-46,8.9-46c0.2,0,0.4-0.1,0.5-0.1
					c0.2,0,0.4,0,0.6-0.1c0.2-0.1,0.1-0.3,0.3-0.5c0.1-0.1,0.3,0,0.4-0.1c0.2-0.1,0.3-0.3,0.4-0.5c0-0.1,0-0.1,0-0.2
					c0-0.1,0.1-0.2,0.1-0.3c0-0.1-0.1-0.1-0.1-0.2c0-0.1,0-0.2,0-0.3c0-0.2,0-0.4-0.1-0.5c-0.4-0.7-1.2-0.9-2-0.8
					c-0.2,0-0.3,0.1-0.4,0.2c-0.2,0.1-0.1,0.2-0.3,0.2c-0.1,0-0.2,0.1-0.2,0.2C8.2-48.7,8.2-48.8,8.2-48.7
					C8.1-48.7,8.1-48.7,8.2-48.7"/>
				<path class="st2" d="M0.5-48.7c0,0.1,0,0.1,0,0.2c-0.1,0.1-0.1,0.1-0.2,0.1c-0.1,0.1-0.1,0.3-0.1,0.4c-0.2,0.1,0,0.2,0,0.3
					c0,0,0,0.1,0,0.2c0,0.1,0,0.3,0.1,0.4c0.1,0.2,0.3,0.4,0.4,0.5C0.9-46.4,1-46,1.3-46c0.2,0,0.4-0.1,0.5-0.1c0.2,0,0.4,0,0.6-0.1
					c0.2-0.1,0.1-0.3,0.3-0.5c0.1-0.1,0.3,0,0.4-0.1c0.2-0.1,0.3-0.3,0.4-0.5c0-0.1,0-0.1,0-0.2c0-0.1,0.1-0.2,0.1-0.3
					c0-0.1-0.1-0.1-0.1-0.2c0-0.1,0-0.2,0-0.3c0-0.2,0-0.4-0.1-0.5c-0.4-0.7-1.2-0.9-2-0.8c-0.2,0-0.3,0.1-0.4,0.2
					c-0.2,0.1-0.1,0.2-0.3,0.2c-0.1,0-0.2,0.1-0.2,0.2C0.5-48.7,0.5-48.8,0.5-48.7C0.5-48.7,0.5-48.7,0.5-48.7"/>
			</g>
			<g>
				<path class="st2" d="M69.4-41c0,0.1,0,0.1,0,0.2c-0.1,0.1-0.1,0.1-0.2,0.1c-0.1,0.1-0.1,0.3-0.1,0.4c-0.2,0.1,0,0.2,0,0.3
					c0,0,0,0.1,0,0.2c0,0.1,0,0.3,0.1,0.4c0.1,0.2,0.3,0.4,0.4,0.5c0.2,0.1,0.4,0.6,0.6,0.6c0.2,0,0.4-0.1,0.5-0.1
					c0.2,0,0.4,0,0.6-0.1c0.2-0.1,0.1-0.3,0.3-0.5c0.1-0.1,0.3,0,0.4-0.1c0.2-0.1,0.3-0.3,0.4-0.5c0-0.1,0-0.1,0-0.2
					c0-0.1,0.1-0.2,0.1-0.3c0-0.1-0.1-0.1-0.1-0.2c0-0.1,0-0.2,0-0.3c0-0.2,0-0.4-0.1-0.5c-0.4-0.7-1.2-0.9-2-0.8
					c-0.2,0-0.3,0.1-0.4,0.2c-0.2,0.1-0.1,0.2-0.3,0.2c-0.1,0-0.2,0.1-0.2,0.2C69.4-41.1,69.4-41.1,69.4-41C69.4-41,69.4-41,69.4-41
					"/>
				<path class="st2" d="M61.8-41c0,0.1,0,0.1,0,0.2c-0.1,0.1-0.1,0.1-0.2,0.1c-0.1,0.1-0.1,0.3-0.1,0.4c-0.2,0.1,0,0.2,0,0.3
					c0,0,0,0.1,0,0.2c0,0.1,0,0.3,0.1,0.4c0.1,0.2,0.3,0.4,0.4,0.5c0.2,0.1,0.4,0.6,0.6,0.6c0.2,0,0.4-0.1,0.5-0.1
					c0.2,0,0.4,0,0.6-0.1c0.2-0.1,0.1-0.3,0.3-0.5c0.1-0.1,0.3,0,0.4-0.1c0.2-0.1,0.3-0.3,0.4-0.5c0-0.1,0-0.1,0-0.2
					c0-0.1,0.1-0.2,0.1-0.3c0-0.1-0.1-0.1-0.1-0.2c0-0.1,0-0.2,0-0.3c0-0.2,0-0.4-0.1-0.5c-0.4-0.7-1.2-0.9-2-0.8
					c-0.2,0-0.3,0.1-0.4,0.2c-0.2,0.1-0.1,0.2-0.3,0.2c-0.1,0-0.2,0.1-0.2,0.2C61.8-41.1,61.8-41.1,61.8-41C61.8-41,61.8-41,61.8-41
					"/>
				<path class="st2" d="M54.1-41c0,0.1,0,0.1,0,0.2c-0.1,0.1-0.1,0.1-0.2,0.1c-0.1,0.1-0.1,0.3-0.1,0.4c-0.2,0.1,0,0.2,0,0.3
					c0,0,0,0.1,0,0.2c0,0.1,0,0.3,0.1,0.4c0.1,0.2,0.3,0.4,0.4,0.5c0.2,0.1,0.4,0.6,0.6,0.6c0.2,0,0.4-0.1,0.5-0.1
					c0.2,0,0.4,0,0.6-0.1c0.2-0.1,0.1-0.3,0.3-0.5c0.1-0.1,0.3,0,0.4-0.1c0.2-0.1,0.3-0.3,0.4-0.5c0-0.1,0-0.1,0-0.2
					c0-0.1,0.1-0.2,0.1-0.3c0-0.1-0.1-0.1-0.1-0.2c0-0.1,0-0.2,0-0.3c0-0.2,0-0.4-0.1-0.5c-0.4-0.7-1.2-0.9-2-0.8
					c-0.2,0-0.3,0.1-0.4,0.2c-0.2,0.1-0.1,0.2-0.3,0.2c-0.1,0-0.2,0.1-0.2,0.2C54.1-41.1,54.1-41.1,54.1-41C54.1-41,54.1-41,54.1-41
					"/>
				<path class="st2" d="M46.5-41c0,0.1,0,0.1,0,0.2c-0.1,0.1-0.1,0.1-0.2,0.1c-0.1,0.1-0.1,0.3-0.1,0.4c-0.2,0.1,0,0.2,0,0.3
					c0,0,0,0.1,0,0.2c0,0.1,0,0.3,0.1,0.4c0.1,0.2,0.3,0.4,0.4,0.5c0.2,0.1,0.4,0.6,0.6,0.6c0.2,0,0.4-0.1,0.5-0.1
					c0.2,0,0.4,0,0.6-0.1c0.2-0.1,0.1-0.3,0.3-0.5c0.1-0.1,0.3,0,0.4-0.1c0.2-0.1,0.3-0.3,0.4-0.5c0-0.1,0-0.1,0-0.2
					c0-0.1,0.1-0.2,0.1-0.3c0-0.1-0.1-0.1-0.1-0.2c0-0.1,0-0.2,0-0.3c0-0.2,0-0.4-0.1-0.5c-0.4-0.7-1.2-0.9-2-0.8
					c-0.2,0-0.3,0.1-0.4,0.2c-0.2,0.1-0.1,0.2-0.3,0.2c-0.1,0-0.2,0.1-0.2,0.2C46.5-41.1,46.5-41.1,46.5-41C46.5-41,46.5-41,46.5-41
					"/>
				<path class="st2" d="M38.8-41c0,0.1,0,0.1,0,0.2c-0.1,0.1-0.1,0.1-0.2,0.1c-0.1,0.1-0.1,0.3-0.1,0.4c-0.2,0.1,0,0.2,0,0.3
					c0,0,0,0.1,0,0.2c0,0.1,0,0.3,0.1,0.4c0.1,0.2,0.3,0.4,0.4,0.5c0.2,0.1,0.4,0.6,0.6,0.6c0.2,0,0.4-0.1,0.5-0.1
					c0.2,0,0.4,0,0.6-0.1c0.2-0.1,0.1-0.3,0.3-0.5c0.1-0.1,0.3,0,0.4-0.1c0.2-0.1,0.3-0.3,0.4-0.5c0-0.1,0-0.1,0-0.2
					c0-0.1,0.1-0.2,0.1-0.3c0-0.1-0.1-0.1-0.1-0.2c0-0.1,0-0.2,0-0.3c0-0.2,0-0.4-0.1-0.5c-0.4-0.7-1.2-0.9-2-0.8
					c-0.2,0-0.3,0.1-0.4,0.2c-0.2,0.1-0.1,0.2-0.3,0.2c-0.1,0-0.2,0.1-0.2,0.2C38.8-41.1,38.8-41.1,38.8-41C38.8-41,38.8-41,38.8-41
					"/>
				<path class="st2" d="M31.1-41c0,0.1,0,0.1,0,0.2c-0.1,0.1-0.1,0.1-0.2,0.1c-0.1,0.1-0.1,0.3-0.1,0.4c-0.2,0.1,0,0.2,0,0.3
					c0,0,0,0.1,0,0.2c0,0.1,0,0.3,0.1,0.4c0.1,0.2,0.3,0.4,0.4,0.5c0.2,0.1,0.4,0.6,0.6,0.6c0.2,0,0.4-0.1,0.5-0.1
					c0.2,0,0.4,0,0.6-0.1c0.2-0.1,0.1-0.3,0.3-0.5c0.1-0.1,0.3,0,0.4-0.1c0.2-0.1,0.3-0.3,0.4-0.5c0-0.1,0-0.1,0-0.2
					c0-0.1,0.1-0.2,0.1-0.3c0-0.1-0.1-0.1-0.1-0.2c0-0.1,0-0.2,0-0.3c0-0.2,0-0.4-0.1-0.5c-0.4-0.7-1.2-0.9-2-0.8
					c-0.2,0-0.3,0.1-0.4,0.2c-0.2,0.1-0.1,0.2-0.3,0.2c-0.1,0-0.2,0.1-0.2,0.2C31.1-41.1,31.1-41.1,31.1-41C31.1-41,31.1-41,31.1-41
					"/>
				<path class="st2" d="M23.5-41c0,0.1,0,0.1,0,0.2c-0.1,0.1-0.1,0.1-0.2,0.1c-0.1,0.1-0.1,0.3-0.1,0.4c-0.2,0.1,0,0.2,0,0.3
					c0,0,0,0.1,0,0.2c0,0.1,0,0.3,0.1,0.4c0.1,0.2,0.3,0.4,0.4,0.5c0.2,0.1,0.4,0.6,0.6,0.6c0.2,0,0.4-0.1,0.5-0.1
					c0.2,0,0.4,0,0.6-0.1c0.2-0.1,0.1-0.3,0.3-0.5c0.1-0.1,0.3,0,0.4-0.1c0.2-0.1,0.3-0.3,0.4-0.5c0-0.1,0-0.1,0-0.2
					c0-0.1,0.1-0.2,0.1-0.3c0-0.1-0.1-0.1-0.1-0.2c0-0.1,0-0.2,0-0.3c0-0.2,0-0.4-0.1-0.5c-0.4-0.7-1.2-0.9-2-0.8
					c-0.2,0-0.3,0.1-0.4,0.2c-0.2,0.1-0.1,0.2-0.3,0.2c-0.1,0-0.2,0.1-0.2,0.2C23.5-41.1,23.5-41.1,23.5-41C23.5-41,23.5-41,23.5-41
					"/>
				<path class="st2" d="M15.8-41c0,0.1,0,0.1,0,0.2c-0.1,0.1-0.1,0.1-0.2,0.1c-0.1,0.1-0.1,0.3-0.1,0.4c-0.2,0.1,0,0.2,0,0.3
					c0,0,0,0.1,0,0.2c0,0.1,0,0.3,0.1,0.4c0.1,0.2,0.3,0.4,0.4,0.5c0.2,0.1,0.4,0.6,0.6,0.6c0.2,0,0.4-0.1,0.5-0.1
					c0.2,0,0.4,0,0.6-0.1c0.2-0.1,0.1-0.3,0.3-0.5c0.1-0.1,0.3,0,0.4-0.1c0.2-0.1,0.3-0.3,0.4-0.5c0-0.1,0-0.1,0-0.2
					c0-0.1,0.1-0.2,0.1-0.3c0-0.1-0.1-0.1-0.1-0.2c0-0.1,0-0.2,0-0.3c0-0.2,0-0.4-0.1-0.5c-0.4-0.7-1.2-0.9-2-0.8
					c-0.2,0-0.3,0.1-0.4,0.2c-0.2,0.1-0.1,0.2-0.3,0.2c-0.1,0-0.2,0.1-0.2,0.2C15.8-41.1,15.8-41.1,15.8-41C15.8-41,15.8-41,15.8-41
					"/>
				<path class="st2" d="M8.2-41c0,0.1,0,0.1,0,0.2C8.1-40.8,8-40.8,8-40.7c-0.1,0.1-0.1,0.3-0.1,0.4c-0.2,0.1,0,0.2,0,0.3
					c0,0,0,0.1,0,0.2c0,0.1,0,0.3,0.1,0.4c0.1,0.2,0.3,0.4,0.4,0.5c0.2,0.1,0.4,0.6,0.6,0.6c0.2,0,0.4-0.1,0.5-0.1
					c0.2,0,0.4,0,0.6-0.1c0.2-0.1,0.1-0.3,0.3-0.5c0.1-0.1,0.3,0,0.4-0.1c0.2-0.1,0.3-0.3,0.4-0.5c0-0.1,0-0.1,0-0.2
					c0-0.1,0.1-0.2,0.1-0.3c0-0.1-0.1-0.1-0.1-0.2c0-0.1,0-0.2,0-0.3c0-0.2,0-0.4-0.1-0.5c-0.4-0.7-1.2-0.9-2-0.8
					c-0.2,0-0.3,0.1-0.4,0.2c-0.2,0.1-0.1,0.2-0.3,0.2c-0.1,0-0.2,0.1-0.2,0.2C8.2-41.1,8.2-41.1,8.2-41C8.1-41,8.1-41,8.2-41"/>
				<path class="st2" d="M0.5-41c0,0.1,0,0.1,0,0.2c-0.1,0.1-0.1,0.1-0.2,0.1c-0.1,0.1-0.1,0.3-0.1,0.4c-0.2,0.1,0,0.2,0,0.3
					c0,0,0,0.1,0,0.2c0,0.1,0,0.3,0.1,0.4c0.1,0.2,0.3,0.4,0.4,0.5c0.2,0.1,0.4,0.6,0.6,0.6c0.2,0,0.4-0.1,0.5-0.1
					c0.2,0,0.4,0,0.6-0.1c0.2-0.1,0.1-0.3,0.3-0.5C2.8-39,3-39,3.1-39c0.2-0.1,0.3-0.3,0.4-0.5c0-0.1,0-0.1,0-0.2
					c0-0.1,0.1-0.2,0.1-0.3c0-0.1-0.1-0.1-0.1-0.2c0-0.1,0-0.2,0-0.3c0-0.2,0-0.4-0.1-0.5c-0.4-0.7-1.2-0.9-2-0.8
					c-0.2,0-0.3,0.1-0.4,0.2c-0.2,0.1-0.1,0.2-0.3,0.2c-0.1,0-0.2,0.1-0.2,0.2C0.5-41.1,0.5-41.1,0.5-41C0.5-41,0.5-41,0.5-41"/>
			</g>
			<g>
				<path class="st2" d="M69.4-33.4c0,0.1,0,0.1,0,0.2c-0.1,0.1-0.1,0.1-0.2,0.1c-0.1,0.1-0.1,0.3-0.1,0.4c-0.2,0.1,0,0.2,0,0.3
					c0,0,0,0.1,0,0.2c0,0.1,0,0.3,0.1,0.4c0.1,0.2,0.3,0.4,0.4,0.5c0.2,0.1,0.4,0.6,0.6,0.6c0.2,0,0.4-0.1,0.5-0.1
					c0.2,0,0.4,0,0.6-0.1c0.2-0.1,0.1-0.3,0.3-0.5c0.1-0.1,0.3,0,0.4-0.1c0.2-0.1,0.3-0.3,0.4-0.5c0-0.1,0-0.1,0-0.2
					c0-0.1,0.1-0.2,0.1-0.3c0-0.1-0.1-0.1-0.1-0.2c0-0.1,0-0.2,0-0.3c0-0.2,0-0.4-0.1-0.5c-0.4-0.7-1.2-0.9-2-0.8
					c-0.2,0-0.3,0.1-0.4,0.2c-0.2,0.1-0.1,0.2-0.3,0.2c-0.1,0-0.2,0.1-0.2,0.2C69.4-33.4,69.4-33.5,69.4-33.4
					C69.4-33.4,69.4-33.4,69.4-33.4"/>
				<path class="st2" d="M61.8-33.4c0,0.1,0,0.1,0,0.2c-0.1,0.1-0.1,0.1-0.2,0.1c-0.1,0.1-0.1,0.3-0.1,0.4c-0.2,0.1,0,0.2,0,0.3
					c0,0,0,0.1,0,0.2c0,0.1,0,0.3,0.1,0.4c0.1,0.2,0.3,0.4,0.4,0.5c0.2,0.1,0.4,0.6,0.6,0.6c0.2,0,0.4-0.1,0.5-0.1
					c0.2,0,0.4,0,0.6-0.1c0.2-0.1,0.1-0.3,0.3-0.5c0.1-0.1,0.3,0,0.4-0.1c0.2-0.1,0.3-0.3,0.4-0.5c0-0.1,0-0.1,0-0.2
					c0-0.1,0.1-0.2,0.1-0.3c0-0.1-0.1-0.1-0.1-0.2c0-0.1,0-0.2,0-0.3c0-0.2,0-0.4-0.1-0.5c-0.4-0.7-1.2-0.9-2-0.8
					c-0.2,0-0.3,0.1-0.4,0.2c-0.2,0.1-0.1,0.2-0.3,0.2c-0.1,0-0.2,0.1-0.2,0.2C61.8-33.4,61.8-33.5,61.8-33.4
					C61.8-33.4,61.8-33.4,61.8-33.4"/>
				<path class="st2" d="M54.1-33.4c0,0.1,0,0.1,0,0.2c-0.1,0.1-0.1,0.1-0.2,0.1c-0.1,0.1-0.1,0.3-0.1,0.4c-0.2,0.1,0,0.2,0,0.3
					c0,0,0,0.1,0,0.2c0,0.1,0,0.3,0.1,0.4c0.1,0.2,0.3,0.4,0.4,0.5c0.2,0.1,0.4,0.6,0.6,0.6c0.2,0,0.4-0.1,0.5-0.1
					c0.2,0,0.4,0,0.6-0.1c0.2-0.1,0.1-0.3,0.3-0.5c0.1-0.1,0.3,0,0.4-0.1c0.2-0.1,0.3-0.3,0.4-0.5c0-0.1,0-0.1,0-0.2
					c0-0.1,0.1-0.2,0.1-0.3c0-0.1-0.1-0.1-0.1-0.2c0-0.1,0-0.2,0-0.3c0-0.2,0-0.4-0.1-0.5c-0.4-0.7-1.2-0.9-2-0.8
					c-0.2,0-0.3,0.1-0.4,0.2c-0.2,0.1-0.1,0.2-0.3,0.2c-0.1,0-0.2,0.1-0.2,0.2C54.1-33.4,54.1-33.5,54.1-33.4
					C54.1-33.4,54.1-33.4,54.1-33.4"/>
				<path class="st2" d="M46.5-33.4c0,0.1,0,0.1,0,0.2c-0.1,0.1-0.1,0.1-0.2,0.1c-0.1,0.1-0.1,0.3-0.1,0.4c-0.2,0.1,0,0.2,0,0.3
					c0,0,0,0.1,0,0.2c0,0.1,0,0.3,0.1,0.4c0.1,0.2,0.3,0.4,0.4,0.5c0.2,0.1,0.4,0.6,0.6,0.6c0.2,0,0.4-0.1,0.5-0.1
					c0.2,0,0.4,0,0.6-0.1c0.2-0.1,0.1-0.3,0.3-0.5c0.1-0.1,0.3,0,0.4-0.1c0.2-0.1,0.3-0.3,0.4-0.5c0-0.1,0-0.1,0-0.2
					c0-0.1,0.1-0.2,0.1-0.3c0-0.1-0.1-0.1-0.1-0.2c0-0.1,0-0.2,0-0.3c0-0.2,0-0.4-0.1-0.5c-0.4-0.7-1.2-0.9-2-0.8
					c-0.2,0-0.3,0.1-0.4,0.2c-0.2,0.1-0.1,0.2-0.3,0.2c-0.1,0-0.2,0.1-0.2,0.2C46.5-33.4,46.5-33.5,46.5-33.4
					C46.5-33.4,46.5-33.4,46.5-33.4"/>
				<path class="st2" d="M38.8-33.4c0,0.1,0,0.1,0,0.2c-0.1,0.1-0.1,0.1-0.2,0.1c-0.1,0.1-0.1,0.3-0.1,0.4c-0.2,0.1,0,0.2,0,0.3
					c0,0,0,0.1,0,0.2c0,0.1,0,0.3,0.1,0.4c0.1,0.2,0.3,0.4,0.4,0.5c0.2,0.1,0.4,0.6,0.6,0.6c0.2,0,0.4-0.1,0.5-0.1
					c0.2,0,0.4,0,0.6-0.1c0.2-0.1,0.1-0.3,0.3-0.5c0.1-0.1,0.3,0,0.4-0.1c0.2-0.1,0.3-0.3,0.4-0.5c0-0.1,0-0.1,0-0.2
					c0-0.1,0.1-0.2,0.1-0.3c0-0.1-0.1-0.1-0.1-0.2c0-0.1,0-0.2,0-0.3c0-0.2,0-0.4-0.1-0.5c-0.4-0.7-1.2-0.9-2-0.8
					c-0.2,0-0.3,0.1-0.4,0.2c-0.2,0.1-0.1,0.2-0.3,0.2c-0.1,0-0.2,0.1-0.2,0.2C38.8-33.4,38.8-33.5,38.8-33.4
					C38.8-33.4,38.8-33.4,38.8-33.4"/>
				<path class="st2" d="M31.1-33.4c0,0.1,0,0.1,0,0.2c-0.1,0.1-0.1,0.1-0.2,0.1c-0.1,0.1-0.1,0.3-0.1,0.4c-0.2,0.1,0,0.2,0,0.3
					c0,0,0,0.1,0,0.2c0,0.1,0,0.3,0.1,0.4c0.1,0.2,0.3,0.4,0.4,0.5c0.2,0.1,0.4,0.6,0.6,0.6c0.2,0,0.4-0.1,0.5-0.1
					c0.2,0,0.4,0,0.6-0.1c0.2-0.1,0.1-0.3,0.3-0.5c0.1-0.1,0.3,0,0.4-0.1c0.2-0.1,0.3-0.3,0.4-0.5c0-0.1,0-0.1,0-0.2
					c0-0.1,0.1-0.2,0.1-0.3c0-0.1-0.1-0.1-0.1-0.2c0-0.1,0-0.2,0-0.3c0-0.2,0-0.4-0.1-0.5c-0.4-0.7-1.2-0.9-2-0.8
					c-0.2,0-0.3,0.1-0.4,0.2c-0.2,0.1-0.1,0.2-0.3,0.2c-0.1,0-0.2,0.1-0.2,0.2C31.1-33.4,31.1-33.5,31.1-33.4
					C31.1-33.4,31.1-33.4,31.1-33.4"/>
				<path class="st2" d="M23.5-33.4c0,0.1,0,0.1,0,0.2c-0.1,0.1-0.1,0.1-0.2,0.1c-0.1,0.1-0.1,0.3-0.1,0.4c-0.2,0.1,0,0.2,0,0.3
					c0,0,0,0.1,0,0.2c0,0.1,0,0.3,0.1,0.4c0.1,0.2,0.3,0.4,0.4,0.5c0.2,0.1,0.4,0.6,0.6,0.6c0.2,0,0.4-0.1,0.5-0.1
					c0.2,0,0.4,0,0.6-0.1c0.2-0.1,0.1-0.3,0.3-0.5c0.1-0.1,0.3,0,0.4-0.1c0.2-0.1,0.3-0.3,0.4-0.5c0-0.1,0-0.1,0-0.2
					c0-0.1,0.1-0.2,0.1-0.3c0-0.1-0.1-0.1-0.1-0.2c0-0.1,0-0.2,0-0.3c0-0.2,0-0.4-0.1-0.5c-0.4-0.7-1.2-0.9-2-0.8
					c-0.2,0-0.3,0.1-0.4,0.2c-0.2,0.1-0.1,0.2-0.3,0.2c-0.1,0-0.2,0.1-0.2,0.2C23.5-33.4,23.5-33.5,23.5-33.4
					C23.5-33.4,23.5-33.4,23.5-33.4"/>
				<path class="st2" d="M15.8-33.4c0,0.1,0,0.1,0,0.2c-0.1,0.1-0.1,0.1-0.2,0.1c-0.1,0.1-0.1,0.3-0.1,0.4c-0.2,0.1,0,0.2,0,0.3
					c0,0,0,0.1,0,0.2c0,0.1,0,0.3,0.1,0.4c0.1,0.2,0.3,0.4,0.4,0.5c0.2,0.1,0.4,0.6,0.6,0.6c0.2,0,0.4-0.1,0.5-0.1
					c0.2,0,0.4,0,0.6-0.1c0.2-0.1,0.1-0.3,0.3-0.5c0.1-0.1,0.3,0,0.4-0.1c0.2-0.1,0.3-0.3,0.4-0.5c0-0.1,0-0.1,0-0.2
					c0-0.1,0.1-0.2,0.1-0.3c0-0.1-0.1-0.1-0.1-0.2c0-0.1,0-0.2,0-0.3c0-0.2,0-0.4-0.1-0.5c-0.4-0.7-1.2-0.9-2-0.8
					c-0.2,0-0.3,0.1-0.4,0.2c-0.2,0.1-0.1,0.2-0.3,0.2c-0.1,0-0.2,0.1-0.2,0.2C15.8-33.4,15.8-33.5,15.8-33.4
					C15.8-33.4,15.8-33.4,15.8-33.4"/>
				<path class="st2" d="M8.2-33.4c0,0.1,0,0.1,0,0.2C8.1-33.1,8-33.1,8-33.1c-0.1,0.1-0.1,0.3-0.1,0.4c-0.2,0.1,0,0.2,0,0.3
					c0,0,0,0.1,0,0.2c0,0.1,0,0.3,0.1,0.4c0.1,0.2,0.3,0.4,0.4,0.5c0.2,0.1,0.4,0.6,0.6,0.6c0.2,0,0.4-0.1,0.5-0.1
					c0.2,0,0.4,0,0.6-0.1c0.2-0.1,0.1-0.3,0.3-0.5c0.1-0.1,0.3,0,0.4-0.1c0.2-0.1,0.3-0.3,0.4-0.5c0-0.1,0-0.1,0-0.2
					c0-0.1,0.1-0.2,0.1-0.3c0-0.1-0.1-0.1-0.1-0.2c0-0.1,0-0.2,0-0.3c0-0.2,0-0.4-0.1-0.5c-0.4-0.7-1.2-0.9-2-0.8
					c-0.2,0-0.3,0.1-0.4,0.2c-0.2,0.1-0.1,0.2-0.3,0.2c-0.1,0-0.2,0.1-0.2,0.2C8.2-33.4,8.2-33.5,8.2-33.4
					C8.1-33.4,8.1-33.4,8.2-33.4"/>
				<path class="st2" d="M0.5-33.4c0,0.1,0,0.1,0,0.2c-0.1,0.1-0.1,0.1-0.2,0.1c-0.1,0.1-0.1,0.3-0.1,0.4c-0.2,0.1,0,0.2,0,0.3
					c0,0,0,0.1,0,0.2c0,0.1,0,0.3,0.1,0.4c0.1,0.2,0.3,0.4,0.4,0.5c0.2,0.1,0.4,0.6,0.6,0.6c0.2,0,0.4-0.1,0.5-0.1
					c0.2,0,0.4,0,0.6-0.1c0.2-0.1,0.1-0.3,0.3-0.5c0.1-0.1,0.3,0,0.4-0.1c0.2-0.1,0.3-0.3,0.4-0.5c0-0.1,0-0.1,0-0.2
					c0-0.1,0.1-0.2,0.1-0.3c0-0.1-0.1-0.1-0.1-0.2c0-0.1,0-0.2,0-0.3c0-0.2,0-0.4-0.1-0.5c-0.4-0.7-1.2-0.9-2-0.8
					c-0.2,0-0.3,0.1-0.4,0.2c-0.2,0.1-0.1,0.2-0.3,0.2c-0.1,0-0.2,0.1-0.2,0.2C0.5-33.4,0.5-33.5,0.5-33.4
					C0.5-33.4,0.5-33.4,0.5-33.4"/>
			</g>
			<g>
				<path class="st2" d="M69.4-25.7c0,0.1,0,0.1,0,0.2c-0.1,0.1-0.1,0.1-0.2,0.1c-0.1,0.1-0.1,0.3-0.1,0.4c-0.2,0.1,0,0.2,0,0.3
					c0,0,0,0.1,0,0.2c0,0.1,0,0.3,0.1,0.4c0.1,0.2,0.3,0.4,0.4,0.5c0.2,0.1,0.4,0.6,0.6,0.6c0.2,0,0.4-0.1,0.5-0.1
					c0.2,0,0.4,0,0.6-0.1c0.2-0.1,0.1-0.3,0.3-0.5c0.1-0.1,0.3,0,0.4-0.1c0.2-0.1,0.3-0.3,0.4-0.5c0-0.1,0-0.1,0-0.2
					c0-0.1,0.1-0.2,0.1-0.3c0-0.1-0.1-0.1-0.1-0.2c0-0.1,0-0.2,0-0.3c0-0.2,0-0.4-0.1-0.5c-0.4-0.7-1.2-0.9-2-0.8
					c-0.2,0-0.3,0.1-0.4,0.2c-0.2,0.1-0.1,0.2-0.3,0.2c-0.1,0-0.2,0.1-0.2,0.2C69.4-25.8,69.4-25.8,69.4-25.7
					C69.4-25.7,69.4-25.7,69.4-25.7"/>
				<path class="st2" d="M61.8-25.7c0,0.1,0,0.1,0,0.2c-0.1,0.1-0.1,0.1-0.2,0.1c-0.1,0.1-0.1,0.3-0.1,0.4c-0.2,0.1,0,0.2,0,0.3
					c0,0,0,0.1,0,0.2c0,0.1,0,0.3,0.1,0.4c0.1,0.2,0.3,0.4,0.4,0.5c0.2,0.1,0.4,0.6,0.6,0.6c0.2,0,0.4-0.1,0.5-0.1
					c0.2,0,0.4,0,0.6-0.1c0.2-0.1,0.1-0.3,0.3-0.5c0.1-0.1,0.3,0,0.4-0.1c0.2-0.1,0.3-0.3,0.4-0.5c0-0.1,0-0.1,0-0.2
					c0-0.1,0.1-0.2,0.1-0.3c0-0.1-0.1-0.1-0.1-0.2c0-0.1,0-0.2,0-0.3c0-0.2,0-0.4-0.1-0.5c-0.4-0.7-1.2-0.9-2-0.8
					c-0.2,0-0.3,0.1-0.4,0.2c-0.2,0.1-0.1,0.2-0.3,0.2c-0.1,0-0.2,0.1-0.2,0.2C61.8-25.8,61.8-25.8,61.8-25.7
					C61.8-25.7,61.8-25.7,61.8-25.7"/>
				<path class="st2" d="M54.1-25.7c0,0.1,0,0.1,0,0.2c-0.1,0.1-0.1,0.1-0.2,0.1c-0.1,0.1-0.1,0.3-0.1,0.4c-0.2,0.1,0,0.2,0,0.3
					c0,0,0,0.1,0,0.2c0,0.1,0,0.3,0.1,0.4c0.1,0.2,0.3,0.4,0.4,0.5c0.2,0.1,0.4,0.6,0.6,0.6c0.2,0,0.4-0.1,0.5-0.1
					c0.2,0,0.4,0,0.6-0.1c0.2-0.1,0.1-0.3,0.3-0.5c0.1-0.1,0.3,0,0.4-0.1c0.2-0.1,0.3-0.3,0.4-0.5c0-0.1,0-0.1,0-0.2
					c0-0.1,0.1-0.2,0.1-0.3c0-0.1-0.1-0.1-0.1-0.2c0-0.1,0-0.2,0-0.3c0-0.2,0-0.4-0.1-0.5c-0.4-0.7-1.2-0.9-2-0.8
					c-0.2,0-0.3,0.1-0.4,0.2c-0.2,0.1-0.1,0.2-0.3,0.2c-0.1,0-0.2,0.1-0.2,0.2C54.1-25.8,54.1-25.8,54.1-25.7
					C54.1-25.7,54.1-25.7,54.1-25.7"/>
				<path class="st2" d="M46.5-25.7c0,0.1,0,0.1,0,0.2c-0.1,0.1-0.1,0.1-0.2,0.1c-0.1,0.1-0.1,0.3-0.1,0.4c-0.2,0.1,0,0.2,0,0.3
					c0,0,0,0.1,0,0.2c0,0.1,0,0.3,0.1,0.4c0.1,0.2,0.3,0.4,0.4,0.5c0.2,0.1,0.4,0.6,0.6,0.6c0.2,0,0.4-0.1,0.5-0.1
					c0.2,0,0.4,0,0.6-0.1c0.2-0.1,0.1-0.3,0.3-0.5c0.1-0.1,0.3,0,0.4-0.1c0.2-0.1,0.3-0.3,0.4-0.5c0-0.1,0-0.1,0-0.2
					c0-0.1,0.1-0.2,0.1-0.3c0-0.1-0.1-0.1-0.1-0.2c0-0.1,0-0.2,0-0.3c0-0.2,0-0.4-0.1-0.5c-0.4-0.7-1.2-0.9-2-0.8
					c-0.2,0-0.3,0.1-0.4,0.2c-0.2,0.1-0.1,0.2-0.3,0.2c-0.1,0-0.2,0.1-0.2,0.2C46.5-25.8,46.5-25.8,46.5-25.7
					C46.5-25.7,46.5-25.7,46.5-25.7"/>
				<path class="st2" d="M38.8-25.7c0,0.1,0,0.1,0,0.2c-0.1,0.1-0.1,0.1-0.2,0.1c-0.1,0.1-0.1,0.3-0.1,0.4c-0.2,0.1,0,0.2,0,0.3
					c0,0,0,0.1,0,0.2c0,0.1,0,0.3,0.1,0.4c0.1,0.2,0.3,0.4,0.4,0.5c0.2,0.1,0.4,0.6,0.6,0.6c0.2,0,0.4-0.1,0.5-0.1
					c0.2,0,0.4,0,0.6-0.1c0.2-0.1,0.1-0.3,0.3-0.5c0.1-0.1,0.3,0,0.4-0.1c0.2-0.1,0.3-0.3,0.4-0.5c0-0.1,0-0.1,0-0.2
					c0-0.1,0.1-0.2,0.1-0.3c0-0.1-0.1-0.1-0.1-0.2c0-0.1,0-0.2,0-0.3c0-0.2,0-0.4-0.1-0.5c-0.4-0.7-1.2-0.9-2-0.8
					c-0.2,0-0.3,0.1-0.4,0.2c-0.2,0.1-0.1,0.2-0.3,0.2c-0.1,0-0.2,0.1-0.2,0.2C38.8-25.8,38.8-25.8,38.8-25.7
					C38.8-25.7,38.8-25.7,38.8-25.7"/>
				<path class="st2" d="M31.1-25.7c0,0.1,0,0.1,0,0.2c-0.1,0.1-0.1,0.1-0.2,0.1c-0.1,0.1-0.1,0.3-0.1,0.4c-0.2,0.1,0,0.2,0,0.3
					c0,0,0,0.1,0,0.2c0,0.1,0,0.3,0.1,0.4c0.1,0.2,0.3,0.4,0.4,0.5c0.2,0.1,0.4,0.6,0.6,0.6c0.2,0,0.4-0.1,0.5-0.1
					c0.2,0,0.4,0,0.6-0.1c0.2-0.1,0.1-0.3,0.3-0.5c0.1-0.1,0.3,0,0.4-0.1c0.2-0.1,0.3-0.3,0.4-0.5c0-0.1,0-0.1,0-0.2
					c0-0.1,0.1-0.2,0.1-0.3c0-0.1-0.1-0.1-0.1-0.2c0-0.1,0-0.2,0-0.3c0-0.2,0-0.4-0.1-0.5c-0.4-0.7-1.2-0.9-2-0.8
					c-0.2,0-0.3,0.1-0.4,0.2c-0.2,0.1-0.1,0.2-0.3,0.2c-0.1,0-0.2,0.1-0.2,0.2C31.1-25.8,31.1-25.8,31.1-25.7
					C31.1-25.7,31.1-25.7,31.1-25.7"/>
				<path class="st2" d="M23.5-25.7c0,0.1,0,0.1,0,0.2c-0.1,0.1-0.1,0.1-0.2,0.1c-0.1,0.1-0.1,0.3-0.1,0.4c-0.2,0.1,0,0.2,0,0.3
					c0,0,0,0.1,0,0.2c0,0.1,0,0.3,0.1,0.4c0.1,0.2,0.3,0.4,0.4,0.5c0.2,0.1,0.4,0.6,0.6,0.6c0.2,0,0.4-0.1,0.5-0.1
					c0.2,0,0.4,0,0.6-0.1c0.2-0.1,0.1-0.3,0.3-0.5c0.1-0.1,0.3,0,0.4-0.1c0.2-0.1,0.3-0.3,0.4-0.5c0-0.1,0-0.1,0-0.2
					c0-0.1,0.1-0.2,0.1-0.3c0-0.1-0.1-0.1-0.1-0.2c0-0.1,0-0.2,0-0.3c0-0.2,0-0.4-0.1-0.5c-0.4-0.7-1.2-0.9-2-0.8
					c-0.2,0-0.3,0.1-0.4,0.2c-0.2,0.1-0.1,0.2-0.3,0.2c-0.1,0-0.2,0.1-0.2,0.2C23.5-25.8,23.5-25.8,23.5-25.7
					C23.5-25.7,23.5-25.7,23.5-25.7"/>
				<path class="st2" d="M15.8-25.7c0,0.1,0,0.1,0,0.2c-0.1,0.1-0.1,0.1-0.2,0.1c-0.1,0.1-0.1,0.3-0.1,0.4c-0.2,0.1,0,0.2,0,0.3
					c0,0,0,0.1,0,0.2c0,0.1,0,0.3,0.1,0.4c0.1,0.2,0.3,0.4,0.4,0.5c0.2,0.1,0.4,0.6,0.6,0.6c0.2,0,0.4-0.1,0.5-0.1
					c0.2,0,0.4,0,0.6-0.1c0.2-0.1,0.1-0.3,0.3-0.5c0.1-0.1,0.3,0,0.4-0.1c0.2-0.1,0.3-0.3,0.4-0.5c0-0.1,0-0.1,0-0.2
					c0-0.1,0.1-0.2,0.1-0.3c0-0.1-0.1-0.1-0.1-0.2c0-0.1,0-0.2,0-0.3c0-0.2,0-0.4-0.1-0.5c-0.4-0.7-1.2-0.9-2-0.8
					c-0.2,0-0.3,0.1-0.4,0.2c-0.2,0.1-0.1,0.2-0.3,0.2c-0.1,0-0.2,0.1-0.2,0.2C15.8-25.8,15.8-25.8,15.8-25.7
					C15.8-25.7,15.8-25.7,15.8-25.7"/>
				<path class="st2" d="M8.2-25.7c0,0.1,0,0.1,0,0.2C8.1-25.4,8-25.5,8-25.4c-0.1,0.1-0.1,0.3-0.1,0.4c-0.2,0.1,0,0.2,0,0.3
					c0,0,0,0.1,0,0.2c0,0.1,0,0.3,0.1,0.4C8-24,8.2-23.8,8.3-23.6c0.2,0.1,0.4,0.6,0.6,0.6c0.2,0,0.4-0.1,0.5-0.1
					c0.2,0,0.4,0,0.6-0.1c0.2-0.1,0.1-0.3,0.3-0.5c0.1-0.1,0.3,0,0.4-0.1c0.2-0.1,0.3-0.3,0.4-0.5c0-0.1,0-0.1,0-0.2
					c0-0.1,0.1-0.2,0.1-0.3c0-0.1-0.1-0.1-0.1-0.2c0-0.1,0-0.2,0-0.3c0-0.2,0-0.4-0.1-0.5c-0.4-0.7-1.2-0.9-2-0.8
					c-0.2,0-0.3,0.1-0.4,0.2c-0.2,0.1-0.1,0.2-0.3,0.2c-0.1,0-0.2,0.1-0.2,0.2C8.2-25.8,8.2-25.8,8.2-25.7
					C8.1-25.7,8.1-25.7,8.2-25.7"/>
				<path class="st2" d="M0.5-25.7c0,0.1,0,0.1,0,0.2c-0.1,0.1-0.1,0.1-0.2,0.1c-0.1,0.1-0.1,0.3-0.1,0.4c-0.2,0.1,0,0.2,0,0.3
					c0,0,0,0.1,0,0.2c0,0.1,0,0.3,0.1,0.4c0.1,0.2,0.3,0.4,0.4,0.5C0.9-23.5,1-23.1,1.3-23c0.2,0,0.4-0.1,0.5-0.1
					c0.2,0,0.4,0,0.6-0.1c0.2-0.1,0.1-0.3,0.3-0.5c0.1-0.1,0.3,0,0.4-0.1c0.2-0.1,0.3-0.3,0.4-0.5c0-0.1,0-0.1,0-0.2
					c0-0.1,0.1-0.2,0.1-0.3c0-0.1-0.1-0.1-0.1-0.2c0-0.1,0-0.2,0-0.3c0-0.2,0-0.4-0.1-0.5c-0.4-0.7-1.2-0.9-2-0.8
					c-0.2,0-0.3,0.1-0.4,0.2c-0.2,0.1-0.1,0.2-0.3,0.2c-0.1,0-0.2,0.1-0.2,0.2C0.5-25.8,0.5-25.8,0.5-25.7
					C0.5-25.7,0.5-25.7,0.5-25.7"/>
			</g>
			<g>
				<path class="st2" d="M69.4-18.1c0,0.1,0,0.1,0,0.2c-0.1,0.1-0.1,0.1-0.2,0.1c-0.1,0.1-0.1,0.3-0.1,0.4c-0.2,0.1,0,0.2,0,0.3
					c0,0,0,0.1,0,0.2c0,0.1,0,0.3,0.1,0.4c0.1,0.2,0.3,0.4,0.4,0.5c0.2,0.1,0.4,0.6,0.6,0.6c0.2,0,0.4-0.1,0.5-0.1
					c0.2,0,0.4,0,0.6-0.1c0.2-0.1,0.1-0.3,0.3-0.5c0.1-0.1,0.3,0,0.4-0.1c0.2-0.1,0.3-0.3,0.4-0.5c0-0.1,0-0.1,0-0.2
					c0-0.1,0.1-0.2,0.1-0.3c0-0.1-0.1-0.1-0.1-0.2c0-0.1,0-0.2,0-0.3c0-0.2,0-0.4-0.1-0.5c-0.4-0.7-1.2-0.9-2-0.8
					c-0.2,0-0.3,0.1-0.4,0.2c-0.2,0.1-0.1,0.2-0.3,0.2c-0.1,0-0.2,0.1-0.2,0.2C69.4-18.1,69.4-18.2,69.4-18.1
					C69.4-18,69.4-18.1,69.4-18.1"/>
				<path class="st2" d="M61.8-18.1c0,0.1,0,0.1,0,0.2c-0.1,0.1-0.1,0.1-0.2,0.1c-0.1,0.1-0.1,0.3-0.1,0.4c-0.2,0.1,0,0.2,0,0.3
					c0,0,0,0.1,0,0.2c0,0.1,0,0.3,0.1,0.4c0.1,0.2,0.3,0.4,0.4,0.5c0.2,0.1,0.4,0.6,0.6,0.6c0.2,0,0.4-0.1,0.5-0.1
					c0.2,0,0.4,0,0.6-0.1c0.2-0.1,0.1-0.3,0.3-0.5c0.1-0.1,0.3,0,0.4-0.1c0.2-0.1,0.3-0.3,0.4-0.5c0-0.1,0-0.1,0-0.2
					c0-0.1,0.1-0.2,0.1-0.3c0-0.1-0.1-0.1-0.1-0.2c0-0.1,0-0.2,0-0.3c0-0.2,0-0.4-0.1-0.5c-0.4-0.7-1.2-0.9-2-0.8
					c-0.2,0-0.3,0.1-0.4,0.2c-0.2,0.1-0.1,0.2-0.3,0.2c-0.1,0-0.2,0.1-0.2,0.2C61.8-18.1,61.8-18.2,61.8-18.1
					C61.8-18,61.8-18.1,61.8-18.1"/>
				<path class="st2" d="M54.1-18.1c0,0.1,0,0.1,0,0.2c-0.1,0.1-0.1,0.1-0.2,0.1c-0.1,0.1-0.1,0.3-0.1,0.4c-0.2,0.1,0,0.2,0,0.3
					c0,0,0,0.1,0,0.2c0,0.1,0,0.3,0.1,0.4c0.1,0.2,0.3,0.4,0.4,0.5c0.2,0.1,0.4,0.6,0.6,0.6c0.2,0,0.4-0.1,0.5-0.1
					c0.2,0,0.4,0,0.6-0.1c0.2-0.1,0.1-0.3,0.3-0.5c0.1-0.1,0.3,0,0.4-0.1c0.2-0.1,0.3-0.3,0.4-0.5c0-0.1,0-0.1,0-0.2
					c0-0.1,0.1-0.2,0.1-0.3c0-0.1-0.1-0.1-0.1-0.2c0-0.1,0-0.2,0-0.3c0-0.2,0-0.4-0.1-0.5c-0.4-0.7-1.2-0.9-2-0.8
					c-0.2,0-0.3,0.1-0.4,0.2c-0.2,0.1-0.1,0.2-0.3,0.2c-0.1,0-0.2,0.1-0.2,0.2C54.1-18.1,54.1-18.2,54.1-18.1
					C54.1-18,54.1-18.1,54.1-18.1"/>
				<path class="st2" d="M46.5-18.1c0,0.1,0,0.1,0,0.2c-0.1,0.1-0.1,0.1-0.2,0.1c-0.1,0.1-0.1,0.3-0.1,0.4c-0.2,0.1,0,0.2,0,0.3
					c0,0,0,0.1,0,0.2c0,0.1,0,0.3,0.1,0.4c0.1,0.2,0.3,0.4,0.4,0.5c0.2,0.1,0.4,0.6,0.6,0.6c0.2,0,0.4-0.1,0.5-0.1
					c0.2,0,0.4,0,0.6-0.1c0.2-0.1,0.1-0.3,0.3-0.5c0.1-0.1,0.3,0,0.4-0.1c0.2-0.1,0.3-0.3,0.4-0.5c0-0.1,0-0.1,0-0.2
					c0-0.1,0.1-0.2,0.1-0.3c0-0.1-0.1-0.1-0.1-0.2c0-0.1,0-0.2,0-0.3c0-0.2,0-0.4-0.1-0.5c-0.4-0.7-1.2-0.9-2-0.8
					c-0.2,0-0.3,0.1-0.4,0.2c-0.2,0.1-0.1,0.2-0.3,0.2c-0.1,0-0.2,0.1-0.2,0.2C46.5-18.1,46.5-18.2,46.5-18.1
					C46.5-18,46.5-18.1,46.5-18.1"/>
				<path class="st2" d="M38.8-18.1c0,0.1,0,0.1,0,0.2c-0.1,0.1-0.1,0.1-0.2,0.1c-0.1,0.1-0.1,0.3-0.1,0.4c-0.2,0.1,0,0.2,0,0.3
					c0,0,0,0.1,0,0.2c0,0.1,0,0.3,0.1,0.4c0.1,0.2,0.3,0.4,0.4,0.5c0.2,0.1,0.4,0.6,0.6,0.6c0.2,0,0.4-0.1,0.5-0.1
					c0.2,0,0.4,0,0.6-0.1c0.2-0.1,0.1-0.3,0.3-0.5c0.1-0.1,0.3,0,0.4-0.1c0.2-0.1,0.3-0.3,0.4-0.5c0-0.1,0-0.1,0-0.2
					c0-0.1,0.1-0.2,0.1-0.3c0-0.1-0.1-0.1-0.1-0.2c0-0.1,0-0.2,0-0.3c0-0.2,0-0.4-0.1-0.5c-0.4-0.7-1.2-0.9-2-0.8
					c-0.2,0-0.3,0.1-0.4,0.2c-0.2,0.1-0.1,0.2-0.3,0.2c-0.1,0-0.2,0.1-0.2,0.2C38.8-18.1,38.8-18.2,38.8-18.1
					C38.8-18,38.8-18.1,38.8-18.1"/>
				<path class="st2" d="M31.1-18.1c0,0.1,0,0.1,0,0.2c-0.1,0.1-0.1,0.1-0.2,0.1c-0.1,0.1-0.1,0.3-0.1,0.4c-0.2,0.1,0,0.2,0,0.3
					c0,0,0,0.1,0,0.2c0,0.1,0,0.3,0.1,0.4c0.1,0.2,0.3,0.4,0.4,0.5c0.2,0.1,0.4,0.6,0.6,0.6c0.2,0,0.4-0.1,0.5-0.1
					c0.2,0,0.4,0,0.6-0.1c0.2-0.1,0.1-0.3,0.3-0.5c0.1-0.1,0.3,0,0.4-0.1c0.2-0.1,0.3-0.3,0.4-0.5c0-0.1,0-0.1,0-0.2
					c0-0.1,0.1-0.2,0.1-0.3c0-0.1-0.1-0.1-0.1-0.2c0-0.1,0-0.2,0-0.3c0-0.2,0-0.4-0.1-0.5c-0.4-0.7-1.2-0.9-2-0.8
					c-0.2,0-0.3,0.1-0.4,0.2c-0.2,0.1-0.1,0.2-0.3,0.2c-0.1,0-0.2,0.1-0.2,0.2C31.1-18.1,31.1-18.2,31.1-18.1
					C31.1-18,31.1-18.1,31.1-18.1"/>
				<path class="st2" d="M23.5-18.1c0,0.1,0,0.1,0,0.2c-0.1,0.1-0.1,0.1-0.2,0.1c-0.1,0.1-0.1,0.3-0.1,0.4c-0.2,0.1,0,0.2,0,0.3
					c0,0,0,0.1,0,0.2c0,0.1,0,0.3,0.1,0.4c0.1,0.2,0.3,0.4,0.4,0.5c0.2,0.1,0.4,0.6,0.6,0.6c0.2,0,0.4-0.1,0.5-0.1
					c0.2,0,0.4,0,0.6-0.1c0.2-0.1,0.1-0.3,0.3-0.5c0.1-0.1,0.3,0,0.4-0.1c0.2-0.1,0.3-0.3,0.4-0.5c0-0.1,0-0.1,0-0.2
					c0-0.1,0.1-0.2,0.1-0.3c0-0.1-0.1-0.1-0.1-0.2c0-0.1,0-0.2,0-0.3c0-0.2,0-0.4-0.1-0.5c-0.4-0.7-1.2-0.9-2-0.8
					c-0.2,0-0.3,0.1-0.4,0.2c-0.2,0.1-0.1,0.2-0.3,0.2c-0.1,0-0.2,0.1-0.2,0.2C23.5-18.1,23.5-18.2,23.5-18.1
					C23.5-18,23.5-18.1,23.5-18.1"/>
				<path class="st2" d="M15.8-18.1c0,0.1,0,0.1,0,0.2c-0.1,0.1-0.1,0.1-0.2,0.1c-0.1,0.1-0.1,0.3-0.1,0.4c-0.2,0.1,0,0.2,0,0.3
					c0,0,0,0.1,0,0.2c0,0.1,0,0.3,0.1,0.4c0.1,0.2,0.3,0.4,0.4,0.5c0.2,0.1,0.4,0.6,0.6,0.6c0.2,0,0.4-0.1,0.5-0.1
					c0.2,0,0.4,0,0.6-0.1c0.2-0.1,0.1-0.3,0.3-0.5c0.1-0.1,0.3,0,0.4-0.1c0.2-0.1,0.3-0.3,0.4-0.5c0-0.1,0-0.1,0-0.2
					c0-0.1,0.1-0.2,0.1-0.3c0-0.1-0.1-0.1-0.1-0.2c0-0.1,0-0.2,0-0.3c0-0.2,0-0.4-0.1-0.5c-0.4-0.7-1.2-0.9-2-0.8
					c-0.2,0-0.3,0.1-0.4,0.2c-0.2,0.1-0.1,0.2-0.3,0.2c-0.1,0-0.2,0.1-0.2,0.2C15.8-18.1,15.8-18.2,15.8-18.1
					C15.8-18,15.8-18.1,15.8-18.1"/>
				<path class="st2" d="M8.2-18.1c0,0.1,0,0.1,0,0.2C8.1-17.8,8-17.8,8-17.8c-0.1,0.1-0.1,0.3-0.1,0.4c-0.2,0.1,0,0.2,0,0.3
					c0,0,0,0.1,0,0.2c0,0.1,0,0.3,0.1,0.4C8-16.3,8.2-16.1,8.3-16c0.2,0.1,0.4,0.6,0.6,0.6c0.2,0,0.4-0.1,0.5-0.1
					c0.2,0,0.4,0,0.6-0.1c0.2-0.1,0.1-0.3,0.3-0.5c0.1-0.1,0.3,0,0.4-0.1c0.2-0.1,0.3-0.3,0.4-0.5c0-0.1,0-0.1,0-0.2
					c0-0.1,0.1-0.2,0.1-0.3c0-0.1-0.1-0.1-0.1-0.2c0-0.1,0-0.2,0-0.3c0-0.2,0-0.4-0.1-0.5c-0.4-0.7-1.2-0.9-2-0.8
					c-0.2,0-0.3,0.1-0.4,0.2c-0.2,0.1-0.1,0.2-0.3,0.2c-0.1,0-0.2,0.1-0.2,0.2C8.2-18.1,8.2-18.2,8.2-18.1C8.1-18,8.1-18.1,8.2-18.1
					"/>
				<path class="st2" d="M0.5-18.1c0,0.1,0,0.1,0,0.2c-0.1,0.1-0.1,0.1-0.2,0.1c-0.1,0.1-0.1,0.3-0.1,0.4c-0.2,0.1,0,0.2,0,0.3
					c0,0,0,0.1,0,0.2c0,0.1,0,0.3,0.1,0.4c0.1,0.2,0.3,0.4,0.4,0.5c0.2,0.1,0.4,0.6,0.6,0.6c0.2,0,0.4-0.1,0.5-0.1
					c0.2,0,0.4,0,0.6-0.1c0.2-0.1,0.1-0.3,0.3-0.5C2.8-16.1,3-16,3.1-16c0.2-0.1,0.3-0.3,0.4-0.5c0-0.1,0-0.1,0-0.2
					c0-0.1,0.1-0.2,0.1-0.3c0-0.1-0.1-0.1-0.1-0.2c0-0.1,0-0.2,0-0.3c0-0.2,0-0.4-0.1-0.5c-0.4-0.7-1.2-0.9-2-0.8
					c-0.2,0-0.3,0.1-0.4,0.2c-0.2,0.1-0.1,0.2-0.3,0.2c-0.1,0-0.2,0.1-0.2,0.2C0.5-18.1,0.5-18.2,0.5-18.1C0.5-18,0.5-18.1,0.5-18.1
					"/>
			</g>
			<g>
				<path class="st2" d="M69.4-10.4c0,0.1,0,0.1,0,0.2c-0.1,0.1-0.1,0.1-0.2,0.1c-0.1,0.1-0.1,0.3-0.1,0.4c-0.2,0.1,0,0.2,0,0.3
					c0,0,0,0.1,0,0.2c0,0.1,0,0.3,0.1,0.4c0.1,0.2,0.3,0.4,0.4,0.5c0.2,0.1,0.4,0.6,0.6,0.6c0.2,0,0.4-0.1,0.5-0.1
					c0.2,0,0.4,0,0.6-0.1c0.2-0.1,0.1-0.3,0.3-0.5c0.1-0.1,0.3,0,0.4-0.1c0.2-0.1,0.3-0.3,0.4-0.5c0-0.1,0-0.1,0-0.2
					c0-0.1,0.1-0.2,0.1-0.3c0-0.1-0.1-0.1-0.1-0.2c0-0.1,0-0.2,0-0.3c0-0.2,0-0.4-0.1-0.5c-0.4-0.7-1.2-0.9-2-0.8
					c-0.2,0-0.3,0.1-0.4,0.2c-0.2,0.1-0.1,0.2-0.3,0.2c-0.1,0-0.2,0.1-0.2,0.2C69.4-10.5,69.4-10.5,69.4-10.4
					C69.4-10.4,69.4-10.4,69.4-10.4"/>
				<path class="st2" d="M61.8-10.4c0,0.1,0,0.1,0,0.2c-0.1,0.1-0.1,0.1-0.2,0.1c-0.1,0.1-0.1,0.3-0.1,0.4c-0.2,0.1,0,0.2,0,0.3
					c0,0,0,0.1,0,0.2c0,0.1,0,0.3,0.1,0.4c0.1,0.2,0.3,0.4,0.4,0.5c0.2,0.1,0.4,0.6,0.6,0.6c0.2,0,0.4-0.1,0.5-0.1
					c0.2,0,0.4,0,0.6-0.1C63.9-8,63.8-8.2,64-8.3c0.1-0.1,0.3,0,0.4-0.1c0.2-0.1,0.3-0.3,0.4-0.5c0-0.1,0-0.1,0-0.2
					c0-0.1,0.1-0.2,0.1-0.3c0-0.1-0.1-0.1-0.1-0.2c0-0.1,0-0.2,0-0.3c0-0.2,0-0.4-0.1-0.5c-0.4-0.7-1.2-0.9-2-0.8
					c-0.2,0-0.3,0.1-0.4,0.2c-0.2,0.1-0.1,0.2-0.3,0.2c-0.1,0-0.2,0.1-0.2,0.2C61.8-10.5,61.8-10.5,61.8-10.4
					C61.8-10.4,61.8-10.4,61.8-10.4"/>
				<path class="st2" d="M54.1-10.4c0,0.1,0,0.1,0,0.2c-0.1,0.1-0.1,0.1-0.2,0.1c-0.1,0.1-0.1,0.3-0.1,0.4c-0.2,0.1,0,0.2,0,0.3
					c0,0,0,0.1,0,0.2c0,0.1,0,0.3,0.1,0.4c0.1,0.2,0.3,0.4,0.4,0.5c0.2,0.1,0.4,0.6,0.6,0.6c0.2,0,0.4-0.1,0.5-0.1
					c0.2,0,0.4,0,0.6-0.1c0.2-0.1,0.1-0.3,0.3-0.5c0.1-0.1,0.3,0,0.4-0.1c0.2-0.1,0.3-0.3,0.4-0.5c0-0.1,0-0.1,0-0.2
					c0-0.1,0.1-0.2,0.1-0.3c0-0.1-0.1-0.1-0.1-0.2c0-0.1,0-0.2,0-0.3c0-0.2,0-0.4-0.1-0.5c-0.4-0.7-1.2-0.9-2-0.8
					c-0.2,0-0.3,0.1-0.4,0.2c-0.2,0.1-0.1,0.2-0.3,0.2c-0.1,0-0.2,0.1-0.2,0.2C54.1-10.5,54.1-10.5,54.1-10.4
					C54.1-10.4,54.1-10.4,54.1-10.4"/>
				<path class="st2" d="M46.5-10.4c0,0.1,0,0.1,0,0.2c-0.1,0.1-0.1,0.1-0.2,0.1c-0.1,0.1-0.1,0.3-0.1,0.4c-0.2,0.1,0,0.2,0,0.3
					c0,0,0,0.1,0,0.2c0,0.1,0,0.3,0.1,0.4c0.1,0.2,0.3,0.4,0.4,0.5c0.2,0.1,0.4,0.6,0.6,0.6c0.2,0,0.4-0.1,0.5-0.1
					c0.2,0,0.4,0,0.6-0.1c0.2-0.1,0.1-0.3,0.3-0.5c0.1-0.1,0.3,0,0.4-0.1c0.2-0.1,0.3-0.3,0.4-0.5c0-0.1,0-0.1,0-0.2
					c0-0.1,0.1-0.2,0.1-0.3c0-0.1-0.1-0.1-0.1-0.2c0-0.1,0-0.2,0-0.3c0-0.2,0-0.4-0.1-0.5c-0.4-0.7-1.2-0.9-2-0.8
					c-0.2,0-0.3,0.1-0.4,0.2c-0.2,0.1-0.1,0.2-0.3,0.2c-0.1,0-0.2,0.1-0.2,0.2C46.5-10.5,46.5-10.5,46.5-10.4
					C46.5-10.4,46.5-10.4,46.5-10.4"/>
				<path class="st2" d="M38.8-10.4c0,0.1,0,0.1,0,0.2c-0.1,0.1-0.1,0.1-0.2,0.1c-0.1,0.1-0.1,0.3-0.1,0.4c-0.2,0.1,0,0.2,0,0.3
					c0,0,0,0.1,0,0.2c0,0.1,0,0.3,0.1,0.4c0.1,0.2,0.3,0.4,0.4,0.5c0.2,0.1,0.4,0.6,0.6,0.6c0.2,0,0.4-0.1,0.5-0.1
					c0.2,0,0.4,0,0.6-0.1C40.9-8,40.8-8.2,41-8.3c0.1-0.1,0.3,0,0.4-0.1c0.2-0.1,0.3-0.3,0.4-0.5c0-0.1,0-0.1,0-0.2
					c0-0.1,0.1-0.2,0.1-0.3c0-0.1-0.1-0.1-0.1-0.2c0-0.1,0-0.2,0-0.3c0-0.2,0-0.4-0.1-0.5c-0.4-0.7-1.2-0.9-2-0.8
					c-0.2,0-0.3,0.1-0.4,0.2c-0.2,0.1-0.1,0.2-0.3,0.2c-0.1,0-0.2,0.1-0.2,0.2C38.8-10.5,38.8-10.5,38.8-10.4
					C38.8-10.4,38.8-10.4,38.8-10.4"/>
				<path class="st2" d="M31.1-10.4c0,0.1,0,0.1,0,0.2c-0.1,0.1-0.1,0.1-0.2,0.1c-0.1,0.1-0.1,0.3-0.1,0.4c-0.2,0.1,0,0.2,0,0.3
					c0,0,0,0.1,0,0.2c0,0.1,0,0.3,0.1,0.4c0.1,0.2,0.3,0.4,0.4,0.5c0.2,0.1,0.4,0.6,0.6,0.6c0.2,0,0.4-0.1,0.5-0.1
					c0.2,0,0.4,0,0.6-0.1c0.2-0.1,0.1-0.3,0.3-0.5c0.1-0.1,0.3,0,0.4-0.1c0.2-0.1,0.3-0.3,0.4-0.5c0-0.1,0-0.1,0-0.2
					c0-0.1,0.1-0.2,0.1-0.3c0-0.1-0.1-0.1-0.1-0.2c0-0.1,0-0.2,0-0.3c0-0.2,0-0.4-0.1-0.5c-0.4-0.7-1.2-0.9-2-0.8
					c-0.2,0-0.3,0.1-0.4,0.2c-0.2,0.1-0.1,0.2-0.3,0.2c-0.1,0-0.2,0.1-0.2,0.2C31.1-10.5,31.1-10.5,31.1-10.4
					C31.1-10.4,31.1-10.4,31.1-10.4"/>
				<path class="st2" d="M23.5-10.4c0,0.1,0,0.1,0,0.2c-0.1,0.1-0.1,0.1-0.2,0.1c-0.1,0.1-0.1,0.3-0.1,0.4c-0.2,0.1,0,0.2,0,0.3
					c0,0,0,0.1,0,0.2c0,0.1,0,0.3,0.1,0.4c0.1,0.2,0.3,0.4,0.4,0.5c0.2,0.1,0.4,0.6,0.6,0.6c0.2,0,0.4-0.1,0.5-0.1
					c0.2,0,0.4,0,0.6-0.1c0.2-0.1,0.1-0.3,0.3-0.5c0.1-0.1,0.3,0,0.4-0.1c0.2-0.1,0.3-0.3,0.4-0.5c0-0.1,0-0.1,0-0.2
					c0-0.1,0.1-0.2,0.1-0.3c0-0.1-0.1-0.1-0.1-0.2c0-0.1,0-0.2,0-0.3c0-0.2,0-0.4-0.1-0.5c-0.4-0.7-1.2-0.9-2-0.8
					c-0.2,0-0.3,0.1-0.4,0.2c-0.2,0.1-0.1,0.2-0.3,0.2c-0.1,0-0.2,0.1-0.2,0.2C23.5-10.5,23.5-10.5,23.5-10.4
					C23.5-10.4,23.5-10.4,23.5-10.4"/>
				<path class="st2" d="M15.8-10.4c0,0.1,0,0.1,0,0.2c-0.1,0.1-0.1,0.1-0.2,0.1c-0.1,0.1-0.1,0.3-0.1,0.4c-0.2,0.1,0,0.2,0,0.3
					c0,0,0,0.1,0,0.2c0,0.1,0,0.3,0.1,0.4c0.1,0.2,0.3,0.4,0.4,0.5c0.2,0.1,0.4,0.6,0.6,0.6c0.2,0,0.4-0.1,0.5-0.1
					c0.2,0,0.4,0,0.6-0.1C17.9-8,17.8-8.2,18-8.3c0.1-0.1,0.3,0,0.4-0.1c0.2-0.1,0.3-0.3,0.4-0.5c0-0.1,0-0.1,0-0.2
					c0-0.1,0.1-0.2,0.1-0.3c0-0.1-0.1-0.1-0.1-0.2c0-0.1,0-0.2,0-0.3c0-0.2,0-0.4-0.1-0.5c-0.4-0.7-1.2-0.9-2-0.8
					c-0.2,0-0.3,0.1-0.4,0.2c-0.2,0.1-0.1,0.2-0.3,0.2c-0.1,0-0.2,0.1-0.2,0.2C15.8-10.5,15.8-10.5,15.8-10.4
					C15.8-10.4,15.8-10.4,15.8-10.4"/>
				<path class="st2" d="M8.2-10.4c0,0.1,0,0.1,0,0.2C8.1-10.1,8-10.2,8-10.1C7.9-10,7.9-9.8,7.9-9.8c-0.2,0.1,0,0.2,0,0.3
					c0,0,0,0.1,0,0.2c0,0.1,0,0.3,0.1,0.4C8-8.7,8.2-8.5,8.3-8.3c0.2,0.1,0.4,0.6,0.6,0.6c0.2,0,0.4-0.1,0.5-0.1
					c0.2,0,0.4,0,0.6-0.1c0.2-0.1,0.1-0.3,0.3-0.5c0.1-0.1,0.3,0,0.4-0.1c0.2-0.1,0.3-0.3,0.4-0.5c0-0.1,0-0.1,0-0.2
					c0-0.1,0.1-0.2,0.1-0.3c0-0.1-0.1-0.1-0.1-0.2c0-0.1,0-0.2,0-0.3c0-0.2,0-0.4-0.1-0.5c-0.4-0.7-1.2-0.9-2-0.8
					c-0.2,0-0.3,0.1-0.4,0.2c-0.2,0.1-0.1,0.2-0.3,0.2c-0.1,0-0.2,0.1-0.2,0.2C8.2-10.5,8.2-10.5,8.2-10.4
					C8.1-10.4,8.1-10.4,8.2-10.4"/>
				<path class="st2" d="M0.5-10.4c0,0.1,0,0.1,0,0.2c-0.1,0.1-0.1,0.1-0.2,0.1C0.3-10,0.2-9.8,0.2-9.8c-0.2,0.1,0,0.2,0,0.3
					c0,0,0,0.1,0,0.2c0,0.1,0,0.3,0.1,0.4c0.1,0.2,0.3,0.4,0.4,0.5C0.9-8.2,1-7.8,1.3-7.7c0.2,0,0.4-0.1,0.5-0.1
					c0.2,0,0.4,0,0.6-0.1C2.6-8,2.5-8.2,2.7-8.3c0.1-0.1,0.3,0,0.4-0.1c0.2-0.1,0.3-0.3,0.4-0.5c0-0.1,0-0.1,0-0.2
					c0-0.1,0.1-0.2,0.1-0.3c0-0.1-0.1-0.1-0.1-0.2c0-0.1,0-0.2,0-0.3c0-0.2,0-0.4-0.1-0.5c-0.4-0.7-1.2-0.9-2-0.8
					c-0.2,0-0.3,0.1-0.4,0.2c-0.2,0.1-0.1,0.2-0.3,0.2c-0.1,0-0.2,0.1-0.2,0.2C0.5-10.5,0.5-10.5,0.5-10.4
					C0.5-10.4,0.5-10.4,0.5-10.4"/>
			</g>
		</g>
		<g>
			<path class="st2" d="M69.4-2.8c0,0.1,0,0.1,0,0.2c-0.1,0.1-0.1,0.1-0.2,0.1c-0.1,0.1-0.1,0.3-0.1,0.4c-0.2,0.1,0,0.2,0,0.3
				c0,0,0,0.1,0,0.2c0,0.1,0,0.3,0.1,0.4c0.1,0.2,0.3,0.4,0.4,0.5C69.8-0.5,70-0.1,70.2,0c0.2,0,0.4-0.1,0.5-0.1
				c0.2,0,0.4,0,0.6-0.1c0.2-0.1,0.1-0.3,0.3-0.5c0.1-0.1,0.3,0,0.4-0.1c0.2-0.1,0.3-0.3,0.4-0.5c0-0.1,0-0.1,0-0.2
				c0-0.1,0.1-0.2,0.1-0.3c0-0.1-0.1-0.1-0.1-0.2c0-0.1,0-0.2,0-0.3c0-0.2,0-0.4-0.1-0.5c-0.4-0.7-1.2-0.9-2-0.8
				c-0.2,0-0.3,0.1-0.4,0.2c-0.2,0.1-0.1,0.2-0.3,0.2c-0.1,0-0.2,0.1-0.2,0.2C69.4-2.8,69.4-2.9,69.4-2.8
				C69.4-2.7,69.4-2.8,69.4-2.8"/>
			<path class="st2" d="M61.8-2.8c0,0.1,0,0.1,0,0.2c-0.1,0.1-0.1,0.1-0.2,0.1c-0.1,0.1-0.1,0.3-0.1,0.4c-0.2,0.1,0,0.2,0,0.3
				c0,0,0,0.1,0,0.2c0,0.1,0,0.3,0.1,0.4C61.6-1,61.8-0.8,62-0.7c0.2,0.1,0.4,0.6,0.6,0.6c0.2,0,0.4-0.1,0.5-0.1
				c0.2,0,0.4,0,0.6-0.1c0.2-0.1,0.1-0.3,0.3-0.5c0.1-0.1,0.3,0,0.4-0.1c0.2-0.1,0.3-0.3,0.4-0.5c0-0.1,0-0.1,0-0.2
				c0-0.1,0.1-0.2,0.1-0.3c0-0.1-0.1-0.1-0.1-0.2c0-0.1,0-0.2,0-0.3c0-0.2,0-0.4-0.1-0.5c-0.4-0.7-1.2-0.9-2-0.8
				c-0.2,0-0.3,0.1-0.4,0.2c-0.2,0.1-0.1,0.2-0.3,0.2c-0.1,0-0.2,0.1-0.2,0.2C61.8-2.8,61.8-2.9,61.8-2.8
				C61.8-2.7,61.8-2.8,61.8-2.8"/>
			<path class="st2" d="M54.1-2.8c0,0.1,0,0.1,0,0.2C54-2.5,54-2.5,53.9-2.5c-0.1,0.1-0.1,0.3-0.1,0.4c-0.2,0.1,0,0.2,0,0.3
				c0,0,0,0.1,0,0.2c0,0.1,0,0.3,0.1,0.4C54-1,54.1-0.8,54.3-0.7c0.2,0.1,0.4,0.6,0.6,0.6c0.2,0,0.4-0.1,0.5-0.1
				c0.2,0,0.4,0,0.6-0.1c0.2-0.1,0.1-0.3,0.3-0.5c0.1-0.1,0.3,0,0.4-0.1C56.9-0.8,57-1,57.1-1.2c0-0.1,0-0.1,0-0.2
				c0-0.1,0.1-0.2,0.1-0.3c0-0.1-0.1-0.1-0.1-0.2c0-0.1,0-0.2,0-0.3c0-0.2,0-0.4-0.1-0.5c-0.4-0.7-1.2-0.9-2-0.8
				c-0.2,0-0.3,0.1-0.4,0.2c-0.2,0.1-0.1,0.2-0.3,0.2c-0.1,0-0.2,0.1-0.2,0.2C54.1-2.8,54.1-2.9,54.1-2.8
				C54.1-2.7,54.1-2.8,54.1-2.8"/>
			<path class="st2" d="M46.5-2.8c0,0.1,0,0.1,0,0.2c-0.1,0.1-0.1,0.1-0.2,0.1c-0.1,0.1-0.1,0.3-0.1,0.4c-0.2,0.1,0,0.2,0,0.3
				c0,0,0,0.1,0,0.2c0,0.1,0,0.3,0.1,0.4c0.1,0.2,0.3,0.4,0.4,0.5C46.8-0.5,47-0.1,47.2,0c0.2,0,0.4-0.1,0.5-0.1
				c0.2,0,0.4,0,0.6-0.1c0.2-0.1,0.1-0.3,0.3-0.5c0.1-0.1,0.3,0,0.4-0.1c0.2-0.1,0.3-0.3,0.4-0.5c0-0.1,0-0.1,0-0.2
				c0-0.1,0.1-0.2,0.1-0.3c0-0.1-0.1-0.1-0.1-0.2c0-0.1,0-0.2,0-0.3c0-0.2,0-0.4-0.1-0.5c-0.4-0.7-1.2-0.9-2-0.8
				c-0.2,0-0.3,0.1-0.4,0.2c-0.2,0.1-0.1,0.2-0.3,0.2c-0.1,0-0.2,0.1-0.2,0.2C46.5-2.8,46.5-2.9,46.5-2.8
				C46.5-2.7,46.5-2.8,46.5-2.8"/>
			<path class="st2" d="M38.8-2.8c0,0.1,0,0.1,0,0.2c-0.1,0.1-0.1,0.1-0.2,0.1c-0.1,0.1-0.1,0.3-0.1,0.4c-0.2,0.1,0,0.2,0,0.3
				c0,0,0,0.1,0,0.2c0,0.1,0,0.3,0.1,0.4C38.6-1,38.8-0.8,39-0.7c0.2,0.1,0.4,0.6,0.6,0.6c0.2,0,0.4-0.1,0.5-0.1
				c0.2,0,0.4,0,0.6-0.1c0.2-0.1,0.1-0.3,0.3-0.5c0.1-0.1,0.3,0,0.4-0.1c0.2-0.1,0.3-0.3,0.4-0.5c0-0.1,0-0.1,0-0.2
				c0-0.1,0.1-0.2,0.1-0.3c0-0.1-0.1-0.1-0.1-0.2c0-0.1,0-0.2,0-0.3c0-0.2,0-0.4-0.1-0.5c-0.4-0.7-1.2-0.9-2-0.8
				c-0.2,0-0.3,0.1-0.4,0.2c-0.2,0.1-0.1,0.2-0.3,0.2c-0.1,0-0.2,0.1-0.2,0.2C38.8-2.8,38.8-2.9,38.8-2.8
				C38.8-2.7,38.8-2.8,38.8-2.8"/>
			<path class="st2" d="M31.1-2.8c0,0.1,0,0.1,0,0.2c-0.1,0.1-0.1,0.1-0.2,0.1c-0.1,0.1-0.1,0.3-0.1,0.4c-0.2,0.1,0,0.2,0,0.3
				c0,0,0,0.1,0,0.2c0,0.1,0,0.3,0.1,0.4C31-1,31.1-0.8,31.3-0.7c0.2,0.1,0.4,0.6,0.6,0.6c0.2,0,0.4-0.1,0.5-0.1
				c0.2,0,0.4,0,0.6-0.1c0.2-0.1,0.1-0.3,0.3-0.5c0.1-0.1,0.3,0,0.4-0.1c0.2-0.1,0.3-0.3,0.4-0.5c0-0.1,0-0.1,0-0.2
				c0-0.1,0.1-0.2,0.1-0.3c0-0.1-0.1-0.1-0.1-0.2c0-0.1,0-0.2,0-0.3c0-0.2,0-0.4-0.1-0.5c-0.4-0.7-1.2-0.9-2-0.8
				c-0.2,0-0.3,0.1-0.4,0.2c-0.2,0.1-0.1,0.2-0.3,0.2c-0.1,0-0.2,0.1-0.2,0.2C31.1-2.8,31.1-2.9,31.1-2.8
				C31.1-2.7,31.1-2.8,31.1-2.8"/>
			<path class="st2" d="M23.5-2.8c0,0.1,0,0.1,0,0.2c-0.1,0.1-0.1,0.1-0.2,0.1c-0.1,0.1-0.1,0.3-0.1,0.4c-0.2,0.1,0,0.2,0,0.3
				c0,0,0,0.1,0,0.2c0,0.1,0,0.3,0.1,0.4c0.1,0.2,0.3,0.4,0.4,0.5C23.8-0.5,24-0.1,24.3,0c0.2,0,0.4-0.1,0.5-0.1
				c0.2,0,0.4,0,0.6-0.1c0.2-0.1,0.1-0.3,0.3-0.5c0.1-0.1,0.3,0,0.4-0.1c0.2-0.1,0.3-0.3,0.4-0.5c0-0.1,0-0.1,0-0.2
				c0-0.1,0.1-0.2,0.1-0.3c0-0.1-0.1-0.1-0.1-0.2c0-0.1,0-0.2,0-0.3c0-0.2,0-0.4-0.1-0.5c-0.4-0.7-1.2-0.9-2-0.8
				c-0.2,0-0.3,0.1-0.4,0.2c-0.2,0.1-0.1,0.2-0.3,0.2c-0.1,0-0.2,0.1-0.2,0.2C23.5-2.8,23.5-2.9,23.5-2.8
				C23.5-2.7,23.5-2.8,23.5-2.8"/>
			<path class="st2" d="M15.8-2.8c0,0.1,0,0.1,0,0.2c-0.1,0.1-0.1,0.1-0.2,0.1c-0.1,0.1-0.1,0.3-0.1,0.4c-0.2,0.1,0,0.2,0,0.3
				c0,0,0,0.1,0,0.2c0,0.1,0,0.3,0.1,0.4C15.7-1,15.8-0.8,16-0.7c0.2,0.1,0.4,0.6,0.6,0.6c0.2,0,0.4-0.1,0.5-0.1
				c0.2,0,0.4,0,0.6-0.1c0.2-0.1,0.1-0.3,0.3-0.5c0.1-0.1,0.3,0,0.4-0.1c0.2-0.1,0.3-0.3,0.4-0.5c0-0.1,0-0.1,0-0.2
				c0-0.1,0.1-0.2,0.1-0.3c0-0.1-0.1-0.1-0.1-0.2c0-0.1,0-0.2,0-0.3c0-0.2,0-0.4-0.1-0.5c-0.4-0.7-1.2-0.9-2-0.8
				c-0.2,0-0.3,0.1-0.4,0.2c-0.2,0.1-0.1,0.2-0.3,0.2c-0.1,0-0.2,0.1-0.2,0.2C15.8-2.8,15.8-2.9,15.8-2.8
				C15.8-2.7,15.8-2.8,15.8-2.8"/>
			<path class="st2" d="M8.2-2.8c0,0.1,0,0.1,0,0.2C8.1-2.5,8-2.5,8-2.5C7.9-2.4,7.9-2.2,7.9-2.1c-0.2,0.1,0,0.2,0,0.3
				c0,0,0,0.1,0,0.2c0,0.1,0,0.3,0.1,0.4C8-1,8.2-0.8,8.3-0.7C8.5-0.5,8.7-0.1,8.9,0c0.2,0,0.4-0.1,0.5-0.1c0.2,0,0.4,0,0.6-0.1
				c0.2-0.1,0.1-0.3,0.3-0.5c0.1-0.1,0.3,0,0.4-0.1c0.2-0.1,0.3-0.3,0.4-0.5c0-0.1,0-0.1,0-0.2c0-0.1,0.1-0.2,0.1-0.3
				c0-0.1-0.1-0.1-0.1-0.2c0-0.1,0-0.2,0-0.3c0-0.2,0-0.4-0.1-0.5c-0.4-0.7-1.2-0.9-2-0.8C9-3.5,8.8-3.4,8.7-3.4
				C8.5-3.3,8.6-3.2,8.4-3.1C8.3-3.1,8.2-3,8.2-2.9C8.2-2.8,8.2-2.9,8.2-2.8C8.1-2.7,8.1-2.8,8.2-2.8"/>
			<path class="st2" d="M0.5-2.8c0,0.1,0,0.1,0,0.2C0.4-2.5,0.4-2.5,0.3-2.5C0.3-2.4,0.2-2.2,0.2-2.1c-0.2,0.1,0,0.2,0,0.3
				c0,0,0,0.1,0,0.2c0,0.1,0,0.3,0.1,0.4C0.3-1,0.5-0.8,0.7-0.7C0.9-0.5,1-0.1,1.3,0c0.2,0,0.4-0.1,0.5-0.1c0.2,0,0.4,0,0.6-0.1
				c0.2-0.1,0.1-0.3,0.3-0.5c0.1-0.1,0.3,0,0.4-0.1C3.3-0.8,3.4-1,3.5-1.2c0-0.1,0-0.1,0-0.2c0-0.1,0.1-0.2,0.1-0.3
				c0-0.1-0.1-0.1-0.1-0.2c0-0.1,0-0.2,0-0.3c0-0.2,0-0.4-0.1-0.5c-0.4-0.7-1.2-0.9-2-0.8C1.3-3.5,1.2-3.4,1-3.4
				C0.9-3.3,0.9-3.2,0.7-3.1C0.6-3.1,0.5-3,0.5-2.9C0.5-2.8,0.5-2.9,0.5-2.8C0.5-2.7,0.5-2.8,0.5-2.8"/>
		</g>
	</g>
</pattern>
<path class="st2" d="M215.8,169c-32.1,0-46.6-21.2-46.6-45c0-23.7,14.5-44.8,46.6-44.8c32.1,0,46.6,21.1,46.6,44.8
	C262.4,147.7,247.9,169,215.8,169z M215.8,102.9c-12.4,0-14,12-14,21.1c0,9.1,1.6,21.2,14,21.2c12.3,0,14-12.2,14-21.2
	C229.8,114.9,228.1,102.9,215.8,102.9z"/>
<path class="st2" d="M351.5,147.7c0,6.4,0.3,13.7,4,19.1h-33.3c-0.8-2.3-1.3-5.8-1.2-8.1h-0.3c-6.9,7.9-17,10.2-27.5,10.2
	c-16.5,0-30.1-7.9-30.1-25.9c0-27,31.6-26,48.3-29.2c4.4-0.8,8.9-2.1,8.9-7.6c0-5.8-5.4-7.9-10.7-7.9c-10.1,0-12,5.1-12.2,8.7H267
	c1-24,23.7-28,44-28c40.8,0,40.5,17,40.5,33.4V147.7z M320.2,128.4c-4,2-8.4,3.1-12.8,4.1c-7.2,1.6-11,3.5-11,9.2
	c0,4,4.3,7.9,10.2,7.9c7.4,0,13.2-4.4,13.7-13.3V128.4z"/>
<path class="st2" d="M358.7,49.2h32.6V106L412,81.3h36.9l-30.5,32.3l35.2,53.2h-39.2l-17.5-31l-5.8,6.3v24.7h-32.6V49.2z"/>
<path class="st2" d="M456.9,49.2h32.6v117.6h-32.6V49.2z"/>
<path class="st2" d="M524.2,131.4c0.8,9.7,6.4,16.6,16.6,16.6c5.3,0,11-2,13.7-6.1H585c-6.6,18.4-24.5,27-44,27
	c-27.3,0-47.9-16.1-47.9-44.6c0-24.9,18.1-45.1,45.1-45.1c33.9,0,48.6,18.9,48.6,52.2H524.2z M555.5,114.4c0-7.9-5.9-14.3-14.3-14.3
	c-9.7,0-15.3,5.1-16.8,14.3H555.5z"/>
<path class="st2" d="M677.2,147.7c0,6.4,0.3,13.7,3.9,19.1h-33.3c-0.8-2.3-1.3-5.8-1.2-8.1h-0.3c-6.9,7.9-17,10.2-27.5,10.2
	c-16.5,0-30.1-7.9-30.1-25.9c0-27,31.6-26,48.3-29.2c4.4-0.8,8.9-2.1,8.9-7.6c0-5.8-5.4-7.9-10.7-7.9c-10,0-12,5.1-12.2,8.7h-30.3
	c1-24,23.7-28,44-28c40.8,0,40.5,17,40.5,33.4V147.7z M645.9,128.4c-4,2-8.4,3.1-12.9,4.1c-7.2,1.6-11,3.5-11,9.2
	c0,4,4.3,7.9,10.2,7.9c7.4,0,13.2-4.4,13.7-13.3V128.4z"/>
<path class="st2" d="M694.6,101.4h-13.3V81.3h13.3c-0.3-8.4,0.5-17.8,6.8-24c7.1-7.1,15.3-8.1,28.5-8.1c5,0,9.7,0.5,14.7,0.7v22.4
	c-2.6-0.3-5.3-1.2-7.9-1.2c-7.9,0-10.5,2.3-10,10.2h17.1v20.1h-16.5v65.4h-32.6V101.4z"/>
<g>
	<path class="st2" d="M137.5,254.6c0,0-60-60,0-120C137.5,134.6,199.9,192.3,137.5,254.6z"/>
	<path class="st2" d="M0,127.8c0,0,60-60,120,0C120,127.8,62.3,190.1,0,127.8z"/>
	<path class="st2" d="M138.1,120c0,0-60-60,0-120C138.1,0,200.4,57.7,138.1,120z"/>
</g>
<g>
	<path class="st2" d="M741.5,190.1h-2.3v-0.8h5.5v0.8h-2.3v6.6h-1V190.1z"/>
	<path class="st2" d="M751.9,193.5c-0.1-1-0.1-2.3-0.1-3.2h0c-0.3,0.9-0.6,1.8-0.9,2.8l-1.3,3.6h-0.7l-1.2-3.6
		c-0.4-1.1-0.7-2-0.9-2.9h0c0,0.9-0.1,2.2-0.1,3.3l-0.2,3.2h-0.9l0.5-7.5h1.2l1.3,3.6c0.3,0.9,0.6,1.7,0.8,2.5h0
		c0.2-0.8,0.5-1.6,0.8-2.5l1.3-3.6h1.2l0.5,7.5H752L751.9,193.5z"/>
</g>
<g>
	<path class="st2" d="M213.3,200.3v11.8H210v-11.8l-8.3-10.5h3.9l6,7.7l6.1-7.7h3.9L213.3,200.3z"/>
	<path class="st2" d="M251.5,200.9c0,6.6-5.2,11.5-12.2,11.5c-6.7,0-11.8-4.9-11.8-11.4c0-6.7,5-11.5,12-11.5
		C246.3,189.5,251.5,194.4,251.5,200.9z M230.8,201c0,4.8,3.7,8.4,8.7,8.4c5,0,8.7-3.7,8.7-8.5c0-4.7-3.8-8.4-8.6-8.4
		C234.4,192.5,230.8,196.1,230.8,201z"/>
	<path class="st2" d="M278.5,202.5c0,2.5-0.1,3-0.5,4.4c-0.4,1.2-1.1,2.3-2,3.1c-1.8,1.6-4.2,2.4-7,2.4c-4.6,0-8-2.1-9.1-5.5
		c-0.5-1.4-0.5-2.1-0.5-4.5v-12.6h3.2v12.7c0,2.9,0.3,4.1,1.4,5.2c1.2,1.2,2.9,1.9,5,1.9c3.2,0,5.7-1.6,6.2-4.1c0.1-0.6,0.2-2,0.2-3
		v-12.7h3.2V202.5z"/>
	<path class="st2" d="M293.1,189.8c4.5,0,7.3,2.4,7.3,6.2c0,2.6-1.3,4.6-3.7,5.5c0.9,0.6,1.2,0.9,1.9,1.7c1,1.1,1.5,1.9,3,4.4
		c0.8,1.2,1.4,2.2,1.9,2.8l1,1.3l0.2,0.3h-3.8l-0.2-0.3l-0.8-1.2c-0.1-0.2-0.4-0.6-0.8-1.2c-0.8-1.3-1.7-2.6-2.1-3.3
		c-1.1-1.5-1.9-2.5-2.8-3.1c-0.8-0.6-1.2-0.7-2.7-0.7h-0.9v9.7h-3.2v-22.3H293.1z M290.7,199.5h1.2c0.9,0,1.7,0,2.3-0.1
		c1.8-0.2,2.9-1.6,2.9-3.4c0-1.3-0.7-2.5-1.7-3c-0.8-0.4-1.8-0.5-3.8-0.5h-1V199.5z"/>
	<path class="st2" d="M333,212.2h-0.7l-9.6-22.5h3.2l6.7,15.7l6.7-15.7h3.2L333,212.2z"/>
	<path class="st2" d="M352.5,212.1h-3.2v-22.3h3.2V212.1z"/>
	<path class="st2" d="M372.5,194.7c-1.6-1.5-3.4-2.3-5.2-2.3c-2.1,0-3.6,1.1-3.6,2.6c0,1.3,0.9,2.4,3.1,3.7l2.5,1.4
		c2.7,1.6,4.1,3.7,4.1,6.2c0,3.6-2.7,6.1-6.5,6.1c-2.2,0-4.2-0.7-6-2.1v-4.1c0.8,1,1.1,1.3,1.8,1.8c1.2,0.9,2.8,1.4,4.2,1.4
		c2,0,3.5-1.2,3.5-2.9c0-1.4-1-2.8-2.9-3.9l-2.4-1.5c-3-1.8-4.2-3.5-4.2-5.9c0-3.5,2.7-5.9,6.6-5.9c1.8,0,3.5,0.5,5.1,1.6V194.7z"/>
	<path class="st2" d="M384.5,212.1h-3.2v-22.3h3.2V212.1z"/>
	<path class="st2" d="M416.9,200.9c0,6.6-5.2,11.5-12.2,11.5c-6.8,0-11.8-4.9-11.8-11.4c0-6.7,5-11.5,12-11.5
		C411.8,189.5,416.9,194.4,416.9,200.9z M396.2,201c0,4.8,3.7,8.4,8.7,8.4c5,0,8.7-3.7,8.7-8.5c0-4.7-3.8-8.4-8.6-8.4
		C399.9,192.5,396.2,196.1,396.2,201z"/>
	<path class="st2" d="M446,212.1h-2.8l-14.9-17.2v17.2h-3v-22.3h2.6l15.1,17.3v-17.3h3V212.1z"/>
	<path class="st2" d="M454.4,215.4c1-0.9,1.3-1.7,1.3-3.3c-1.1-0.3-1.7-1.1-1.7-2.1c0-1.1,0.9-2.1,2-2.1c1.3,0,2.2,1.3,2.2,3.1
		c0,2.4-1.4,4.3-3.8,5V215.4z"/>
	<path class="st2" d="M503.4,200.9c0,6.6-5.2,11.5-12.2,11.5c-6.7,0-11.8-4.9-11.8-11.4c0-6.7,5-11.5,11.9-11.5
		C498.2,189.5,503.4,194.4,503.4,200.9z M482.7,201c0,4.8,3.7,8.4,8.7,8.4c5,0,8.7-3.7,8.7-8.5c0-4.7-3.8-8.4-8.6-8.4
		C486.3,192.5,482.7,196.1,482.7,201z"/>
	<path class="st2" d="M530.4,202.5c0,2.5-0.1,3-0.5,4.4c-0.4,1.2-1.1,2.3-2,3.1c-1.8,1.6-4.2,2.4-7,2.4c-4.6,0-8-2.1-9.1-5.5
		c-0.5-1.4-0.5-2.1-0.5-4.5v-12.6h3.2v12.7c0,2.9,0.3,4.1,1.4,5.2c1.2,1.2,2.9,1.9,5,1.9c3.2,0,5.7-1.6,6.2-4.1c0.1-0.6,0.2-2,0.2-3
		v-12.7h3.2V202.5z"/>
	<path class="st2" d="M545,189.8c4.5,0,7.3,2.4,7.3,6.2c0,2.6-1.3,4.6-3.7,5.5c0.9,0.6,1.2,0.9,1.9,1.7c1,1.1,1.5,1.9,3,4.4
		c0.8,1.2,1.4,2.2,1.9,2.8l1,1.3l0.2,0.3h-3.8l-0.2-0.3l-0.8-1.2c-0.1-0.2-0.4-0.6-0.8-1.2c-0.8-1.3-1.7-2.6-2.1-3.3
		c-1.1-1.5-1.9-2.5-2.8-3.1c-0.8-0.6-1.2-0.7-2.7-0.7h-0.9v9.7h-3.2v-22.3H545z M542.6,199.5h1.2c0.9,0,1.7,0,2.3-0.1
		c1.8-0.2,2.9-1.6,2.9-3.4c0-1.3-0.7-2.5-1.7-3c-0.8-0.4-1.8-0.5-3.8-0.5h-1V199.5z"/>
	<path class="st2" d="M582.6,189.8h1.3c4.3,0,7,2.5,7,6.3c0,2.9-1.7,5.2-4.4,5.9c-1.3,0.3-2,0.4-4.1,0.4H580v9.7h-3.2v-22.3H582.6z
		 M580,199.6h2.6h1c2.6,0,4.1-1.3,4.1-3.5c0-2.3-1.4-3.4-4.3-3.4h-0.9H580V199.6z"/>
	<path class="st2" d="M616.4,212.1h-3.3l-3-6.6h-9.5l-2.8,6.6h-3.3l9.6-22.5h2.3L616.4,212.1z M601.9,202.7h6.9l-3.6-8.1
		L601.9,202.7z"/>
	<path class="st2" d="M633.9,194.7c-1.6-1.5-3.4-2.3-5.2-2.3c-2.1,0-3.6,1.1-3.6,2.6c0,1.3,0.9,2.4,3.1,3.7l2.5,1.4
		c2.7,1.6,4.1,3.7,4.1,6.2c0,3.6-2.7,6.1-6.5,6.1c-2.2,0-4.2-0.7-6-2.1v-4.1c0.8,1,1.1,1.3,1.8,1.8c1.2,0.9,2.8,1.4,4.2,1.4
		c2,0,3.5-1.2,3.5-2.9c0-1.4-1-2.8-2.9-3.9l-2.4-1.5c-3-1.8-4.2-3.5-4.2-5.9c0-3.5,2.7-5.9,6.6-5.9c1.8,0,3.5,0.5,5.1,1.6V194.7z"/>
	<path class="st2" d="M653.3,194.7c-1.6-1.5-3.4-2.3-5.2-2.3c-2.1,0-3.6,1.1-3.6,2.6c0,1.3,0.9,2.4,3.1,3.7l2.5,1.4
		c2.7,1.6,4.1,3.7,4.1,6.2c0,3.6-2.7,6.1-6.5,6.1c-2.2,0-4.2-0.7-6-2.1v-4.1c0.8,1,1.1,1.3,1.8,1.8c1.2,0.9,2.8,1.4,4.2,1.4
		c2,0,3.5-1.2,3.5-2.9c0-1.4-1.1-2.8-3-3.9l-2.4-1.5c-3-1.8-4.2-3.5-4.2-5.9c0-3.5,2.7-5.9,6.6-5.9c1.8,0,3.5,0.5,5.1,1.6V194.7z"/>
	<path class="st2" d="M665.3,212.1h-3.2v-22.3h3.2V212.1z"/>
	<path class="st2" d="M697.7,200.9c0,6.6-5.2,11.5-12.2,11.5c-6.7,0-11.8-4.9-11.8-11.4c0-6.7,5-11.5,12-11.5
		C692.5,189.5,697.7,194.4,697.7,200.9z M677,201c0,4.8,3.7,8.4,8.7,8.4c5,0,8.7-3.7,8.7-8.5c0-4.7-3.8-8.4-8.6-8.4
		C680.7,192.5,677,196.1,677,201z"/>
	<path class="st2" d="M726.8,212.1h-2.8l-14.9-17.2v17.2h-3v-22.3h2.6l15.1,17.3v-17.3h3V212.1z"/>
</g>
</svg>
